<svg width="64" height="65" viewBox="0 0 64 65" fill="none" xmlns="http://www.w3.org/2000/svg">
<g filter="url(#filter0_i_26_785)">
<path d="M63.9924 46.1981C63.9857 46.4044 63.9766 46.6842 63.9651 47.0379C63.995 47.3627 63.984 47.7015 63.932 48.0544C63.9215 48.3785 63.8711 48.6873 63.7807 48.9805C63.7317 49.245 63.6243 49.4348 63.4589 49.5498C63.0864 49.8088 62.6967 49.9789 62.2898 50.0603C61.8836 50.1122 61.4578 50.1491 61.0123 50.1709C60.6082 50.1639 60.1827 50.186 59.7364 50.2372C59.3313 50.2597 58.9236 50.3559 58.5137 50.5257C58.585 50.8217 58.7607 51.0164 59.0407 51.1096C59.3622 51.1743 59.6834 51.2388 60.0049 51.3033C60.3677 51.339 60.668 51.4327 60.9057 51.5842C61.1847 51.7069 61.3181 51.9599 61.3057 52.3429C61.2855 52.9617 61.1273 53.4749 60.831 53.8826C60.576 54.2614 60.2614 54.6097 59.8871 54.9275C59.5138 55.2159 59.1399 55.519 58.7656 55.8369C58.3914 56.1547 58.095 56.5623 57.8767 57.0598C57.617 57.586 57.3013 57.9638 56.93 58.1932C56.5585 58.4226 56.1482 58.6072 55.6988 58.7467C55.2907 58.8576 54.862 58.9829 54.4126 59.1225C53.9633 59.2622 53.5303 59.52 53.1137 59.8961C52.6576 60.242 52.2882 60.4125 52.0051 60.4076C51.8839 60.4055 51.743 60.3883 51.5823 60.3561C51.4215 60.3237 51.22 60.3055 50.9775 60.3014C50.7754 60.2979 50.5714 60.3533 50.3655 60.4676C50.201 60.5532 50.1162 60.6697 50.1114 60.817C50.1097 60.8759 50.1491 60.9061 50.2298 60.9076C50.3106 60.909 50.3304 60.9241 50.2891 60.9528C49.7935 61.2685 48.9121 61.6365 47.6448 62.0568C46.3785 62.4477 44.9308 62.8206 43.3017 63.1757C41.6736 63.5013 39.966 63.7813 38.1792 64.0157C36.4336 64.2213 34.7727 64.3105 33.1964 64.2832C30.4481 64.2357 27.722 64.1295 25.0179 63.9647C22.3532 63.8302 19.6266 63.7388 16.838 63.6905L8.77494 63.551C8.65368 63.5489 8.46892 63.6341 8.22069 63.8067C8.01286 63.9799 7.76748 64.0641 7.48457 64.0593C7.03999 64.0516 6.4554 63.9973 5.73079 63.8962C5.04658 63.796 4.3643 63.6368 3.68394 63.4186C3.00358 63.2004 2.40548 62.9394 1.88965 62.6358C1.4152 62.3032 1.18469 61.9307 1.1981 61.5181C1.20288 61.3708 1.22693 61.2533 1.27023 61.1656C1.31448 61.0485 1.35921 60.9165 1.40442 60.7699C1.79499 59.9511 2.32031 59.3411 2.9804 58.9398C3.64142 58.509 4.34047 58.1526 5.07754 57.8704C5.85599 57.5596 6.63445 57.2488 7.4129 56.938C8.23176 56.6278 8.9539 56.1834 9.5793 55.6046C10.2451 55.0264 10.7964 54.24 11.2332 53.2451C11.6699 52.2502 11.9156 50.913 11.9702 49.2335C12.0201 47.7012 11.928 46.1813 11.6939 44.6736C11.5003 43.1667 11.4284 41.647 11.4782 40.1149C11.6107 37.2868 11.7825 34.489 11.9939 31.7212C12.2456 28.9543 12.4377 26.1567 12.5701 23.3286L12.8565 16.3904C12.8804 15.6538 12.8678 14.7985 12.8186 13.8249C12.8098 12.8517 12.6379 11.9201 12.3029 11.0298C12.0093 10.1107 11.4886 9.33517 10.7408 8.7031C10.0344 8.04225 8.99558 7.65573 7.62429 7.54354C6.93819 7.50218 6.15438 7.35594 5.27288 7.10483C4.39141 6.85371 3.55273 6.52961 2.75687 6.13257C2.00237 5.70675 1.35036 5.23848 0.800822 4.72776C0.251301 4.21705 -0.0138833 3.66703 0.00528719 3.07771C0.0215697 2.57679 0.23707 2.16776 0.65177 1.85063C1.06743 1.50403 1.56154 1.2325 2.13406 1.03604C2.70755 0.810103 3.31908 0.658534 3.9686 0.581331C4.65951 0.475361 5.28787 0.427272 5.85371 0.437067C7.14702 0.459455 8.41677 0.584625 9.66296 0.812576C10.9101 1.01106 12.2006 1.12184 13.5343 1.14493C15.1913 1.17362 16.8503 1.14338 18.5112 1.05419C20.2126 0.965711 21.8942 0.862152 23.5559 0.743507C25.2187 0.595395 26.8807 0.47675 28.5415 0.387571C30.2429 0.299092 31.9422 0.269545 33.6396 0.298929C35.0542 0.323416 36.4674 0.392102 37.879 0.504987C39.2917 0.588407 40.7043 0.671826 42.117 0.755245C42.3519 0.995169 42.7699 1.19404 43.3714 1.35187C43.9729 1.50969 44.6153 1.65348 45.2985 1.78325C46.0221 1.9137 46.726 2.02908 47.4103 2.12937C48.0955 2.2002 48.619 2.26822 48.9808 2.33345C49.946 2.49757 50.7692 2.67398 51.4505 2.86267C52.1731 3.02259 52.7723 3.25408 53.2477 3.55713C53.7644 3.83142 54.1975 4.19271 54.5469 4.641C54.9368 5.08999 55.2817 5.67088 55.5821 6.38366C55.6196 6.47275 55.7972 6.60849 56.1148 6.79089C56.4728 6.97398 56.8712 7.15778 57.31 7.34227C57.7489 7.52676 58.1675 7.7109 58.5659 7.89469C58.9643 8.07848 59.2424 8.23071 59.4002 8.35138C59.9132 8.74353 60.4195 9.34194 60.9189 10.1466C61.4598 10.9225 61.9382 11.7563 62.354 12.648C62.7699 13.5396 63.1053 14.4152 63.3604 15.2746C63.6156 16.134 63.7345 16.829 63.7173 17.3594C63.6819 18.4496 63.424 19.536 62.944 20.6186C62.5043 21.7017 62.0455 22.7552 61.5675 23.7788C61.2644 24.3927 60.8209 24.9747 60.2368 25.5248C59.6932 26.0755 59.1491 26.641 58.6045 27.2212C58.0609 27.772 57.5773 28.3385 57.1541 28.9208C56.7711 29.5038 56.5692 30.1196 56.5481 30.7678C56.5183 31.6813 56.7513 32.5992 57.2471 33.5217C57.7428 34.4442 58.3216 35.2945 58.9838 36.0726C59.2553 36.431 59.5676 36.7755 59.9208 37.1059C60.3144 37.437 60.6877 37.7678 61.041 38.0982C61.4355 38.3999 61.7888 38.7304 62.1007 39.0895C62.4134 39.4193 62.6843 39.7924 62.9134 40.2092C63.4081 41.1612 63.7196 42.1543 63.8477 43.1883C63.9768 44.193 64.025 45.1962 63.9924 46.1981ZM53.4129 18.9941C53.4233 18.67 53.3752 18.2858 53.2684 17.8418C53.1614 17.3977 53.0344 16.9533 52.887 16.5085C52.7408 16.0342 52.5939 15.5747 52.4466 15.1299C52.3003 14.6557 52.1926 14.2411 52.1233 13.8861C52.0162 13.442 51.8459 13.0852 51.612 12.8158C51.3792 12.517 51.104 12.2764 50.7864 12.094C50.4697 11.8821 50.1122 11.6843 49.7138 11.5005C49.3163 11.2872 48.9199 11.0445 48.5243 10.7723C47.535 10.1066 46.5818 9.57412 45.6647 9.17497C44.7475 8.77583 43.7872 8.46437 42.7834 8.24062C41.7798 8.01686 40.713 7.86574 39.5832 7.78721C38.4545 7.67922 37.203 7.61333 35.829 7.58954C34.9398 7.57415 34.0098 7.57279 33.0387 7.58548C32.1083 7.59884 31.2566 7.67256 30.4839 7.80659C30.3204 7.86272 30.2169 7.93463 30.1735 8.02234C30.1304 8.11003 30.0263 8.19669 29.8618 8.28229C29.7378 8.36858 29.4924 8.45278 29.1258 8.53489C28.7602 8.58752 28.1933 8.60719 27.4253 8.59389C26.2533 8.57361 25.2796 8.67469 24.504 8.89712C23.7687 9.12024 23.1718 9.44896 22.7128 9.88326C22.2951 10.2888 21.9956 10.7996 21.8137 11.4155C21.6329 12.0021 21.5099 12.678 21.4445 13.4435C21.3725 14.4151 21.2994 15.4163 21.2254 16.4468C21.1919 17.4782 21.0977 18.5085 20.9429 19.5377C20.7891 20.5375 20.5348 21.5207 20.1797 22.4875C19.8653 23.455 19.3697 24.3898 18.6935 25.292C20.9433 25.7438 23.2364 26.1078 25.5729 26.384C27.9094 26.6604 30.2093 26.8182 32.4727 26.8573C34.0488 26.8846 35.6265 26.8677 37.2056 26.8065C38.8251 26.7461 40.4062 26.6261 41.9487 26.4465C42.5173 26.3678 43.2703 26.2188 44.2076 25.999C45.1852 25.7802 46.1244 25.5015 47.025 25.1634C47.9661 24.8259 48.7874 24.442 49.4889 24.0119C50.2307 23.5826 50.6497 23.1328 50.7459 22.6628C50.8383 22.3106 51.0104 21.9893 51.2626 21.6989C51.555 21.4091 51.8469 21.1339 52.1385 20.8737C52.4715 20.5846 52.7639 20.2948 53.016 20.0044C53.2681 19.7139 53.4003 19.3772 53.4129 18.9941ZM54.4531 48.5538C54.4781 47.7876 54.3616 47.019 54.1035 46.2481C53.8859 45.4777 53.7089 44.7081 53.572 43.9391C53.4738 43.2299 53.3707 42.6679 53.263 42.2533C53.1954 41.8394 53.0454 41.483 52.8124 41.1842C52.6209 40.8566 52.3279 40.5418 51.9332 40.2403C51.5387 39.9386 50.9652 39.5454 50.2126 39.0606C50.0315 38.4089 49.8217 38.0219 49.583 37.8999C49.3847 37.7785 49.1645 37.7157 48.9219 37.7116C48.7199 37.7081 48.4972 37.7189 48.2535 37.7442C48.0515 37.7407 47.8495 37.7372 47.6474 37.7337L46.8388 36.4815C46.0834 36.0851 45.406 35.7786 44.8065 35.5617C44.2473 35.3457 43.5039 35.2002 42.5763 35.1252C41.7698 35.0523 40.9654 34.9204 40.1627 34.7296C39.4006 34.5396 38.5951 34.4371 37.7465 34.4224C37.3827 34.4162 37.0965 34.5143 36.8877 34.7172C36.6789 34.9199 36.5139 35.0203 36.3927 35.0181C36.1501 35.0139 35.8681 34.9796 35.5467 34.915C35.2263 34.8211 34.8852 34.7415 34.5233 34.6762C34.1624 34.5815 33.7809 34.5012 33.3786 34.4353C33.0177 34.3406 32.6756 34.2904 32.3524 34.2849C30.5337 34.2533 28.7506 34.3698 27.003 34.6344C25.2969 34.8702 23.5696 35.1352 21.8212 35.4292C21.4778 36.0425 21.1324 36.7146 20.7851 37.4457C20.4783 38.1774 20.1911 38.9241 19.9238 39.6862C19.6562 40.448 19.4292 41.2107 19.2427 41.974C19.0571 42.7078 18.9538 43.3988 18.9327 44.0471C18.922 44.3712 18.9539 44.6372 19.028 44.8449C19.1032 45.023 19.1989 45.1868 19.3153 45.3363C19.4319 45.4857 19.5281 45.6348 19.6041 45.7835C19.68 45.9322 19.7147 46.1097 19.708 46.3159C19.6697 47.4946 19.4499 48.6554 19.0488 49.7983C18.6891 50.9124 18.49 52.0588 18.4517 53.2374C18.4267 54.0034 18.5444 54.7426 18.8042 55.4546C19.0642 56.1667 19.5281 56.8234 20.1959 57.4246C21.0042 57.4386 21.7683 57.5698 22.4881 57.8181C23.2091 58.0369 23.9735 58.1534 24.7818 58.1674C25.3478 58.1771 25.8967 58.0835 26.4287 57.8863C27.0012 57.6899 27.4492 57.5945 27.7726 57.6C28.096 57.6056 28.335 57.7129 28.4899 57.922C28.6854 58.1317 29.0053 58.2405 29.4498 58.2481L29.6924 58.2524C29.8184 58.1071 30.0446 57.9931 30.3707 57.9103C30.698 57.798 31.064 57.7307 31.4692 57.7082C31.9157 57.657 32.3815 57.6356 32.8664 57.644C33.3524 57.6229 33.8177 57.6162 34.2623 57.6239C35.1109 57.6386 35.7572 57.6645 36.2007 57.7017C36.6847 57.7395 37.23 57.7638 37.8361 57.7742C39.5423 57.5384 41.1695 57.2422 42.7177 56.8858C44.0216 56.584 45.3484 56.1943 46.6985 55.7164C48.089 55.2393 49.1792 54.6685 49.9692 54.0041C50.3828 53.7164 50.8394 53.3558 51.3389 52.9222C51.8787 52.4893 52.3583 52.0407 52.7778 51.5761C53.2387 51.0829 53.6187 50.5883 53.9179 50.0922C54.2585 49.5675 54.4368 49.0546 54.4531 48.5538Z" fill="url(#paint0_linear_26_785)"/>
</g>
<defs>
<filter id="filter0_i_26_785" x="0.0043335" y="0.287842" width="63.9979" height="68.0002" filterUnits="userSpaceOnUse" color-interpolation-filters="sRGB">
<feFlood flood-opacity="0" result="BackgroundImageFix"/>
<feBlend mode="normal" in="SourceGraphic" in2="BackgroundImageFix" result="shape"/>
<feColorMatrix in="SourceAlpha" type="matrix" values="0 0 0 0 0 0 0 0 0 0 0 0 0 0 0 0 0 0 127 0" result="hardAlpha"/>
<feMorphology radius="16" operator="erode" in="SourceAlpha" result="effect1_innerShadow_26_785"/>
<feOffset dy="4"/>
<feGaussianBlur stdDeviation="8"/>
<feComposite in2="hardAlpha" operator="arithmetic" k2="-1" k3="1"/>
<feColorMatrix type="matrix" values="0 0 0 0 0 0 0 0 0 0 0 0 0 0 0 0 0 0 0.8 0"/>
<feBlend mode="normal" in2="shape" result="effect1_innerShadow_26_785"/>
</filter>
<linearGradient id="paint0_linear_26_785" x1="32.0045" y1="0.287923" x2="32.0014" y2="64.2879" gradientUnits="userSpaceOnUse">
<stop stop-color="#F05353"/>
</linearGradient>
</defs>
</svg>
