<svg width="643" height="721" viewBox="0 0 643 721" fill="none" xmlns="http://www.w3.org/2000/svg">
<g filter="url(#filter0_i_26_66)">
<path d="M502.194 492.795C502.154 494.764 502.099 497.438 502.03 500.815C502.21 503.917 502.144 507.154 501.83 510.524C501.767 513.62 501.464 516.569 500.92 519.369C500.625 521.895 499.978 523.708 498.983 524.806C496.741 527.28 494.395 528.905 491.946 529.682C489.501 530.178 486.938 530.53 484.257 530.738C481.825 530.672 479.264 530.884 476.578 531.372C474.139 531.587 471.686 532.506 469.219 534.128C469.648 536.955 470.705 538.814 472.391 539.705C474.325 540.322 476.259 540.938 478.194 541.554C480.378 541.895 482.184 542.79 483.615 544.237C485.295 545.409 486.097 547.825 486.023 551.483C485.901 557.393 484.949 562.294 483.165 566.188C481.631 569.806 479.737 573.134 477.484 576.169C475.237 578.923 472.987 581.818 470.734 584.855C468.482 587.89 466.698 591.783 465.384 596.534C463.82 601.56 461.92 605.168 459.685 607.359C457.449 609.551 454.98 611.314 452.275 612.646C449.819 613.706 447.239 614.902 444.534 616.236C441.829 617.57 439.224 620.032 436.716 623.624C433.971 626.928 431.747 628.556 430.044 628.509C429.314 628.49 428.466 628.326 427.499 628.018C426.531 627.709 425.318 627.535 423.858 627.495C422.642 627.462 421.414 627.992 420.175 629.083C419.185 629.901 418.675 631.013 418.646 632.42C418.635 632.983 418.873 633.271 419.358 633.285C419.845 633.298 419.964 633.443 419.715 633.717C416.732 636.733 411.427 640.247 403.8 644.262C396.178 647.995 387.464 651.557 377.66 654.949C367.86 658.059 357.583 660.733 346.828 662.972C336.322 664.937 326.325 665.789 316.838 665.528C300.296 665.075 283.889 664.061 267.613 662.488C251.576 661.204 235.165 660.331 218.381 659.87L169.851 658.539C169.121 658.519 168.009 659.333 166.515 660.982C165.264 662.636 163.788 663.44 162.085 663.395C159.409 663.321 155.891 662.802 151.529 661.837C147.411 660.88 143.305 659.359 139.21 657.276C135.115 655.191 131.515 652.699 128.411 649.799C125.555 646.623 124.168 643.065 124.249 639.125C124.277 637.718 124.422 636.596 124.683 635.758C124.949 634.639 125.218 633.379 125.49 631.978C127.841 624.159 131.003 618.332 134.976 614.5C138.955 610.384 143.162 606.981 147.599 604.286C152.284 601.317 156.969 598.348 161.655 595.38C166.583 592.417 170.93 588.172 174.694 582.644C178.701 577.121 182.02 569.611 184.649 560.108C187.277 550.607 188.756 537.835 189.085 521.794C189.386 507.159 188.832 492.643 187.423 478.243C186.258 463.851 185.826 449.337 186.126 434.703C186.923 407.693 187.958 380.971 189.231 354.536C190.746 328.11 191.903 301.39 192.7 274.38L194.425 208.114C194.569 201.079 194.493 192.91 194.197 183.611C194.145 174.316 193.11 165.418 191.094 156.915C189.327 148.137 186.193 140.73 181.693 134.694C177.441 128.382 171.189 124.691 162.935 123.619C158.806 123.224 154.088 121.828 148.783 119.43C143.478 117.031 138.43 113.936 133.64 110.144C129.099 106.077 125.175 101.605 121.867 96.7273C118.56 91.8496 116.964 86.5965 117.079 80.968C117.177 76.1838 118.474 72.2771 120.97 69.2482C123.472 65.9378 126.446 63.3444 129.892 61.4679C133.344 59.3099 137.025 57.8622 140.934 57.1247C145.092 56.1125 148.874 55.6531 152.28 55.7466C160.064 55.9602 167.706 57.1554 175.207 59.3324C182.713 61.2279 190.48 62.2857 198.507 62.506C208.481 62.7797 218.466 62.4906 228.462 61.6385C238.702 60.7931 248.823 59.8038 258.825 58.6703C268.833 57.2554 278.836 56.122 288.832 55.27C299.072 54.4246 309.3 54.1421 319.517 54.4225C328.031 54.6561 336.536 55.3119 345.032 56.3898C353.535 57.1863 362.037 57.9828 370.539 58.7793C371.953 61.0707 374.469 62.97 378.09 64.4773C381.71 65.9846 385.576 67.3578 389.688 68.597C394.043 69.8428 398.28 70.9447 402.398 71.9024C406.522 72.5788 409.673 73.2284 411.851 73.8514C417.66 75.4186 422.615 77.1033 426.715 78.9054C431.065 80.4327 434.671 82.6435 437.532 85.5378C440.642 88.1574 443.249 91.608 445.351 95.8895C447.698 100.178 449.774 105.726 451.582 112.533C451.807 113.384 452.876 114.681 454.788 116.423C456.943 118.171 459.34 119.927 461.981 121.688C464.623 123.45 467.142 125.209 469.54 126.964C471.938 128.72 473.611 130.174 474.561 131.326C477.649 135.071 480.696 140.787 483.702 148.472C486.957 155.882 489.836 163.846 492.339 172.362C494.842 180.878 496.861 189.24 498.396 197.448C499.932 205.656 500.647 212.294 500.543 217.359C500.33 227.772 498.778 238.149 495.889 248.488C493.242 258.833 490.481 268.895 487.603 278.671C485.779 284.535 483.109 290.093 479.594 295.347C476.322 300.607 473.047 306.008 469.769 311.549C466.497 316.81 463.587 322.221 461.039 327.783C458.734 333.351 457.519 339.232 457.392 345.423C457.212 354.147 458.614 362.915 461.598 371.725C464.582 380.536 468.065 388.657 472.05 396.088C473.685 399.511 475.564 402.802 477.69 405.956C480.059 409.119 482.306 412.279 484.432 415.434C486.806 418.315 488.933 421.471 490.81 424.901C492.692 428.051 494.322 431.615 495.701 435.595C498.679 444.688 500.553 454.172 501.324 464.049C502.101 473.644 502.391 483.225 502.194 492.795ZM438.524 232.974C438.587 229.878 438.297 226.21 437.654 221.969C437.01 217.727 436.246 213.483 435.359 209.234C434.479 204.705 433.595 200.317 432.708 196.068C431.828 191.539 431.18 187.579 430.762 184.189C430.118 179.947 429.093 176.54 427.686 173.966C426.285 171.113 424.628 168.814 422.717 167.073C420.811 165.049 418.659 163.16 416.261 161.404C413.869 159.368 411.482 157.05 409.102 154.45C403.148 148.092 397.411 143.006 391.891 139.194C386.37 135.382 380.591 132.408 374.549 130.271C368.509 128.134 362.088 126.691 355.288 125.941C348.495 124.91 340.962 124.281 332.692 124.054C327.341 123.907 321.743 123.894 315.898 124.015C310.298 124.143 305.172 124.847 300.521 126.128C299.537 126.664 298.915 127.351 298.654 128.188C298.394 129.026 297.768 129.854 296.777 130.671C296.031 131.495 294.554 132.3 292.348 133.084C290.147 133.587 286.735 133.775 282.113 133.648C275.059 133.454 269.198 134.42 264.53 136.544C260.104 138.675 256.511 141.815 253.749 145.963C251.235 149.836 249.432 154.715 248.337 160.598C247.249 166.2 246.508 172.655 246.115 179.967C245.681 189.246 245.241 198.808 244.795 208.651C244.594 218.501 244.027 228.342 243.095 238.172C242.169 247.72 240.638 257.111 238.501 266.345C236.608 275.585 233.625 284.514 229.555 293.131C243.096 297.445 256.898 300.921 270.96 303.559C285.023 306.199 298.865 307.705 312.488 308.079C321.975 308.339 331.47 308.177 340.975 307.592C350.722 307.015 360.238 305.869 369.522 304.153C372.945 303.402 377.476 301.978 383.118 299.879C389.002 297.789 394.655 295.127 400.075 291.897C405.74 288.674 410.683 285.008 414.905 280.9C419.37 276.799 421.892 272.503 422.471 268.014C423.027 264.65 424.063 261.582 425.581 258.808C427.341 256.04 429.098 253.412 430.853 250.926C432.857 248.166 434.617 245.398 436.135 242.623C437.652 239.849 438.448 236.633 438.524 232.974ZM444.779 515.295C444.93 507.977 444.229 500.637 442.675 493.273C441.366 485.915 440.301 478.566 439.477 471.221C438.886 464.447 438.266 459.08 437.617 455.12C437.211 451.167 436.308 447.764 434.906 444.909C433.753 441.78 431.99 438.774 429.614 435.894C427.24 433.012 423.788 429.257 419.258 424.628C418.168 418.403 416.906 414.707 415.469 413.542C414.276 412.383 412.95 411.783 411.49 411.743C410.274 411.71 408.934 411.813 407.468 412.055C406.252 412.021 405.036 411.988 403.82 411.955L398.953 399.995C394.406 396.209 390.329 393.282 386.721 391.211C383.355 389.148 378.881 387.758 373.298 387.042C368.444 386.346 363.602 385.087 358.771 383.264C354.184 381.45 349.336 380.471 344.229 380.33C342.039 380.271 340.317 381.209 339.06 383.146C337.803 385.083 336.81 386.041 336.08 386.02C334.621 385.981 332.923 385.653 330.989 385.036C329.06 384.139 327.007 383.379 324.829 382.755C322.657 381.851 320.361 381.084 317.94 380.455C315.768 379.551 313.708 379.071 311.763 379.018C300.817 378.717 290.085 379.83 279.567 382.358C269.298 384.61 258.902 387.141 248.378 389.949C246.311 395.807 244.232 402.226 242.142 409.208C240.295 416.197 238.567 423.329 236.957 430.607C235.347 437.884 233.981 445.168 232.858 452.458C231.741 459.466 231.118 466.067 230.991 472.258C230.927 475.354 231.119 477.894 231.565 479.878C232.017 481.579 232.593 483.143 233.294 484.571C233.996 485.998 234.575 487.422 235.033 488.842C235.489 490.263 235.698 491.958 235.657 493.927C235.427 505.184 234.104 516.271 231.689 527.187C229.524 537.828 228.326 548.777 228.095 560.034C227.945 567.35 228.652 574.41 230.216 581.21C231.781 588.011 234.573 594.283 238.592 600.025C243.457 600.158 248.056 601.411 252.389 603.783C256.728 605.873 261.328 606.985 266.194 607.118C269.6 607.211 272.904 606.317 276.106 604.433C279.552 602.557 282.248 601.646 284.194 601.699C286.141 601.752 287.579 602.777 288.512 604.774C289.688 606.777 291.613 607.816 294.289 607.889L295.749 607.929C296.507 606.542 297.869 605.453 299.832 604.662C301.802 603.59 304.005 602.947 306.443 602.731C309.131 602.242 311.934 602.038 314.853 602.118C317.778 601.916 320.578 601.852 323.254 601.926C328.362 602.066 332.252 602.314 334.921 602.668C337.834 603.03 341.116 603.261 344.764 603.361C355.033 601.109 364.827 598.279 374.145 594.875C381.993 591.993 389.979 588.27 398.105 583.705C406.475 579.149 413.036 573.697 417.791 567.351C420.28 564.604 423.029 561.159 426.035 557.018C429.284 552.883 432.171 548.598 434.696 544.161C437.47 539.451 439.757 534.726 441.558 529.989C443.608 524.977 444.681 520.078 444.779 515.295Z" fill="url(#paint0_linear_26_66)"/>
</g>
<defs>
<filter id="filter0_i_26_66" x="117.073" y="54.3178" width="385.18" height="615.256" filterUnits="userSpaceOnUse" color-interpolation-filters="sRGB">
<feFlood flood-opacity="0" result="BackgroundImageFix"/>
<feBlend mode="normal" in="SourceGraphic" in2="BackgroundImageFix" result="shape"/>
<feColorMatrix in="SourceAlpha" type="matrix" values="0 0 0 0 0 0 0 0 0 0 0 0 0 0 0 0 0 0 127 0" result="hardAlpha"/>
<feOffset dy="4"/>
<feGaussianBlur stdDeviation="8"/>
<feComposite in2="hardAlpha" operator="arithmetic" k2="-1" k3="1"/>
<feColorMatrix type="matrix" values="0 0 0 0 0 0 0 0 0 0 0 0 0 0 0 0 0 0 0.8 0"/>
<feBlend mode="normal" in2="shape" result="effect1_innerShadow_26_66"/>
</filter>
<linearGradient id="paint0_linear_26_66" x1="309.675" y1="54.3177" x2="309.645" y2="665.574" gradientUnits="userSpaceOnUse">
<stop stop-color="#F05353"/>
<stop offset="1" stop-color="#8A3030" stop-opacity="0.2"/>
</linearGradient>
</defs>
</svg>
