<svg width="30" height="24" viewBox="0 0 30 24" fill="none" xmlns="http://www.w3.org/2000/svg">
<path d="M27.2515 12H3.43046C2.7015 12 2.00238 12.2371 1.48693 12.659C0.971466 13.081 0.681885 13.6533 0.681885 14.25C0.681885 14.8467 0.971466 15.419 1.48693 15.841C2.00238 16.2629 2.7015 16.5 3.43046 16.5H27.2515C27.9805 16.5 28.6796 16.2629 29.195 15.841C29.7105 15.419 30.0001 14.8467 30.0001 14.25C30.0001 13.6533 29.7105 13.081 29.195 12.659C28.6796 12.2371 27.9805 12 27.2515 12ZM28.1677 18H2.51427C2.27128 18 2.03824 18.079 1.86642 18.2197C1.69461 18.3603 1.59808 18.5511 1.59808 18.75V19.5C1.59808 20.2956 1.98419 21.0587 2.67147 21.6213C3.35874 22.1839 4.29089 22.5 5.26285 22.5H25.4191C26.3911 22.5 27.3232 22.1839 28.0105 21.6213C28.6978 21.0587 29.0839 20.2956 29.0839 19.5V18.75C29.0839 18.5511 28.9873 18.3603 28.8155 18.2197C28.6437 18.079 28.4107 18 28.1677 18ZM4.03973 10.5H26.6422C28.6218 10.5 29.7699 8.44219 28.6361 6.94312C26.3353 3.9 21.2705 1.50469 15.341 1.5C9.41206 1.50469 4.34666 3.9 2.04587 6.94266C0.910933 8.44172 2.06018 10.5 4.03973 10.5ZM22.6705 5.25C22.8517 5.25 23.0289 5.29399 23.1795 5.3764C23.3302 5.45881 23.4476 5.57594 23.517 5.71299C23.5863 5.85003 23.6045 6.00083 23.5691 6.14632C23.5338 6.2918 23.4465 6.42544 23.3184 6.53033C23.1902 6.63522 23.027 6.70665 22.8493 6.73559C22.6715 6.76453 22.4873 6.74968 22.3199 6.69291C22.1525 6.63614 22.0094 6.54001 21.9087 6.41668C21.8081 6.29334 21.7543 6.14834 21.7543 6C21.7543 5.80109 21.8509 5.61032 22.0227 5.46967C22.1945 5.32902 22.4275 5.25 22.6705 5.25ZM15.341 3.75C15.5222 3.75 15.6993 3.79399 15.85 3.8764C16.0007 3.95881 16.1181 4.07594 16.1874 4.21299C16.2568 4.35003 16.2749 4.50083 16.2396 4.64632C16.2042 4.7918 16.117 4.92544 15.9888 5.03033C15.8607 5.13522 15.6974 5.20665 15.5197 5.23559C15.342 5.26453 15.1578 5.24968 14.9904 5.19291C14.823 5.13614 14.6799 5.04001 14.5792 4.91668C14.4785 4.79334 14.4248 4.64834 14.4248 4.5C14.4248 4.30109 14.5213 4.11032 14.6931 3.96967C14.8649 3.82902 15.098 3.75 15.341 3.75ZM8.01143 5.25C8.19264 5.25 8.36977 5.29399 8.52044 5.3764C8.67111 5.45881 8.78854 5.57594 8.85788 5.71299C8.92723 5.85003 8.94537 6.00083 8.91002 6.14632C8.87467 6.2918 8.78741 6.42544 8.65928 6.53033C8.53114 6.63522 8.36789 6.70665 8.19017 6.73559C8.01245 6.76453 7.82823 6.74968 7.66082 6.69291C7.49341 6.63614 7.35032 6.54001 7.24964 6.41668C7.14897 6.29334 7.09524 6.14834 7.09524 6C7.09524 5.80109 7.19176 5.61032 7.36358 5.46967C7.5354 5.32902 7.76844 5.25 8.01143 5.25Z" fill="#F05353"/>
</svg>
