<svg width="65" height="65" viewBox="0 0 65 65" fill="none" xmlns="http://www.w3.org/2000/svg">
<g clip-path="url(#clip0_26_708)">
<path d="M4.40866 0.546143L9.43343 56.9879L31.9921 63.279L54.6144 56.9671L59.6487 0.548811L4.40866 0.546143ZM49.2035 13.4793L47.5291 32.2817L47.5341 32.3832L47.5271 32.6167L47.5271 32.6147L46.3375 45.7617L46.2064 46.9297L32.0262 50.851L32.0152 50.861L17.8599 46.9163L16.9019 36.0467L23.8434 36.0471L24.3357 41.5741L32.0286 43.6595L32.0266 43.6635L32.0266 43.6625L39.7482 41.5483L40.5646 32.5479L24.4231 32.5471L24.2847 31.0256L23.9694 27.4611L23.804 25.5471L41.1785 25.5479L41.8108 18.5479L15.3478 18.5467L15.2094 17.0262L14.8945 13.4606L14.7286 11.5466L49.3691 11.5483L49.2035 13.4793Z" fill="#F05353"/>
</g>
<defs>
<clipPath id="clip0_26_708">
<rect width="64" height="64" fill="white" transform="translate(0.0286865 0.0458984)"/>
</clipPath>
</defs>
</svg>
