<svg width="65" height="65" viewBox="0 0 65 65" fill="none" xmlns="http://www.w3.org/2000/svg">
<g clip-path="url(#clip0_26_764)">
<path d="M63.3482 49.269C61.0681 49.8489 59.6582 49.2938 58.3933 47.3938C55.5535 43.1386 52.4187 39.0785 49.3939 34.9433C49.0039 34.4083 48.5989 33.8833 48.094 33.2183C44.5137 38.0481 40.9385 42.6479 37.5833 47.4328C36.3832 49.1427 35.1231 49.8876 32.8832 49.2825L46.344 31.2182L33.8148 14.9026C35.9699 14.4827 37.4598 14.6978 38.7798 16.6278C41.6945 20.888 44.9093 24.9431 48.1141 29.2333C51.3393 24.9584 54.5145 20.8986 57.5147 16.6787C58.7198 14.9688 60.0149 14.3188 62.1798 14.9489C60.5397 17.1239 58.9346 19.2638 57.3195 21.3887C55.1394 24.2536 52.9992 27.1535 50.7391 29.9584C49.9341 30.9584 50.064 31.6084 50.784 32.5534C54.9637 38.0486 59.0934 43.5988 63.3482 49.269ZM0.679062 30.916C1.03915 29.111 1.27924 27.271 1.77932 25.501C4.77984 14.7862 17.0801 10.3318 25.5297 16.9722C30.4795 20.8674 31.7093 26.3575 31.464 32.5475L3.56398 32.5461C3.14345 43.6511 11.1381 50.3565 21.3283 46.937C24.9033 45.7371 27.0085 42.9373 28.0637 39.4373C28.5987 37.6823 29.4838 37.4074 31.1337 37.9075C30.2885 42.2874 28.3733 45.9473 24.3732 48.2371C18.3731 51.6668 9.80811 50.5564 5.30334 45.7912C2.64348 42.9911 1.51365 39.506 1.01383 35.741C0.938858 35.141 0.783886 34.551 0.663915 33.956C0.673964 32.9426 0.679013 31.9293 0.679062 30.916ZM3.6141 30.1711L28.8291 30.1723C28.6645 22.1423 23.6648 16.4371 16.8298 16.3868C9.32977 16.3264 3.9395 21.8961 3.6141 30.1711Z" fill="#F05353"/>
</g>
<defs>
<clipPath id="clip0_26_764">
<rect width="64" height="64" fill="white" transform="translate(0.0155487 0.0458984)"/>
</clipPath>
</defs>
</svg>
