<svg width="65" height="65" viewBox="0 0 65 65" fill="none" xmlns="http://www.w3.org/2000/svg">
<path d="M61.0632 17.8205L63.015 12.7666L62.93 12.4536L43.6232 17.5392C45.6819 14.5618 44.975 12.1738 44.975 12.1738C44.975 12.1738 38.8093 16.1105 34.1468 16.0072C29.4843 15.904 27.9814 14.6594 20.8323 16.9401C13.6831 19.2182 11.6623 26.2141 9.58973 27.717C7.51716 29.2199 1.01392 34.1141 1.01392 34.1141L1.02792 34.2011L6.89051 32.3349C6.89051 32.3349 5.28244 33.8498 1.86621 38.4537L1.70672 38.3062L1.71272 38.3387C1.71272 38.3387 4.45802 42.5348 7.15255 41.7589C7.42306 41.6799 7.72807 41.551 8.06157 41.381C9.14654 41.985 10.5625 42.5791 12.126 42.7427C12.126 42.7427 11.0676 41.5121 10.1846 40.1126C10.4231 39.9591 10.6676 39.7996 10.9162 39.6381L10.8012 39.7191L13.0336 40.5392L12.7872 38.4402C12.7952 38.4362 12.8012 38.4302 12.8092 38.4262L15.0032 39.2323L14.7308 37.3233C15.0048 37.1796 15.2824 37.0429 15.5633 36.9133L17.8507 28.2634L27.3075 21.8134L26.5549 23.7039C24.6377 28.4188 21.0376 29.5316 21.0376 29.5316L19.5346 30.101C18.4176 31.422 17.9465 31.7474 17.5628 36.1814C18.4638 35.955 19.3243 35.9005 20.1043 36.1111C24.1448 37.2002 25.544 42.0688 24.4555 43.4163C24.183 43.7537 23.5344 44.3292 22.7159 45.0062L21.0754 45.0061L21.0533 46.3356C20.9968 46.3801 20.9403 46.4226 20.8858 46.4671L19.2173 46.467L19.1973 47.764C19.0498 47.877 18.9023 47.986 18.7607 48.0935C17.1932 48.1259 15.2073 46.7578 15.2073 46.7578C15.2073 48.0023 16.2437 49.9174 16.2437 49.9174C16.2437 49.9174 16.3122 49.8849 16.4277 49.8284C16.3267 49.9029 16.2702 49.9434 16.2702 49.9434C16.2702 49.9434 20.466 52.7416 23.1081 51.7052C25.4576 50.7843 31.5404 45.9886 36.791 43.7184L52.6797 39.5336L54.7749 34.1057L42.6663 37.2951L42.6665 32.4206L56.8742 28.6778L58.9695 23.2499L42.6707 27.5441L42.671 22.6676L61.0632 17.8205ZM32.2272 28.1521L35.9968 27.1583L36.0473 27.3463L34.8716 30.3928L30.9646 31.4231L32.2272 28.1521ZM33.5279 34.6732L29.6208 35.7035L30.8835 32.4311L34.6531 31.4373L34.7035 31.6253L33.5279 34.6732ZM38.6189 33.5804L34.7119 34.6108L35.9746 31.3383L39.7441 30.3445L39.7946 30.5325L38.6189 33.5804Z" fill="#F05353"/>
</svg>
