<svg width="128" height="128" viewBox="0 0 128 128" fill="none" xmlns="http://www.w3.org/2000/svg">
<g clip-path="url(#clip0_21_280)">
<path d="M30.96 0.141968C17.949 0.141968 7.45799 10.732 7.45799 23.642C7.45799 34.938 15.527 44.522 26.218 46.639V80.025C26.218 90.414 34.794 98.785 44.981 98.785H45.181C46.291 106.753 53.251 112.905 61.421 112.905C70.498 112.905 77.861 105.545 77.861 96.466C77.861 87.389 70.498 80.025 61.421 80.025C53.149 80.025 46.291 86.178 45.181 94.145H44.981C37.315 94.145 30.86 87.791 30.86 80.025V56.422C32.3808 57.9861 34.1998 59.2294 36.2094 60.0784C38.219 60.9274 40.3784 61.3649 42.56 61.365H45.182C46.292 69.333 53.25 75.486 61.42 75.486C69.691 75.486 76.55 69.333 77.659 61.366H87.444C88.554 69.333 95.513 75.486 103.682 75.486C112.76 75.486 120.124 68.124 120.124 59.046C120.124 49.969 112.76 42.605 103.682 42.605C95.412 42.605 88.553 48.758 87.444 56.725H77.659C76.549 48.758 69.59 42.605 61.42 42.605C53.25 42.605 46.291 48.758 45.182 56.725H42.56C36.911 56.725 32.17 52.69 31.06 47.345C43.971 47.042 54.46 36.552 54.46 23.642C54.46 10.732 43.87 0.141968 30.96 0.141968ZM30.96 4.88197C41.248 4.88197 49.72 13.252 49.72 23.642V23.744C49.7246 26.2089 49.2425 28.6504 48.3014 30.9286C47.3602 33.2067 45.9785 35.2766 44.2356 37.0196C42.4927 38.7625 40.4227 40.1442 38.1446 41.0853C35.8664 42.0265 33.4249 42.5086 30.96 42.504H30.86C28.395 42.5087 25.9533 42.0267 23.6749 41.0856C21.3966 40.1446 19.3265 38.7629 17.5834 37.02C15.8403 35.277 14.4584 33.2071 13.5171 30.9289C12.5758 28.6506 12.0935 26.209 12.098 23.744V23.642C12.098 13.354 20.471 4.88197 30.96 4.88197ZM26.321 11.538C23.901 11.538 21.479 13.557 21.479 16.179V31.207C21.479 34.737 25.614 37.057 28.639 35.241L40.643 27.779C43.467 25.963 43.568 21.626 40.643 19.81L28.64 12.245C28.034 11.741 27.128 11.538 26.321 11.538ZM26.219 16.179L38.222 23.744L26.219 31.207V16.179ZM61.42 47.144C67.876 47.144 73.122 52.388 73.222 58.844V58.944C73.222 65.399 67.976 70.645 61.521 70.746H61.421C54.965 70.746 49.721 65.502 49.62 59.046V58.944C49.72 52.489 54.965 47.244 61.42 47.144ZM103.783 47.144C110.238 47.144 115.484 52.388 115.585 58.844V58.944C115.585 65.399 110.339 70.645 103.883 70.746H103.783C97.328 70.746 92.083 65.502 91.983 59.046V58.944C91.983 52.489 97.227 47.244 103.783 47.144ZM66.263 53.296C65.657 53.296 65.051 53.499 64.547 54.003L58.999 59.551L57.185 57.734C56.7408 57.2973 56.1429 57.0526 55.52 57.0526C54.8971 57.0526 54.2992 57.2973 53.855 57.734C53.4183 58.1781 53.1736 58.7761 53.1736 59.399C53.1736 60.0218 53.4183 60.6198 53.855 61.064L57.385 64.594C57.8292 65.0306 58.4271 65.2753 59.05 65.2753C59.6729 65.2753 60.2708 65.0306 60.715 64.594L67.976 57.431C68.4122 56.9872 68.6567 56.3898 68.6567 55.7675C68.6567 55.1452 68.4122 54.5478 67.976 54.104C67.472 53.599 66.868 53.296 66.263 53.296ZM108.625 53.296C108.02 53.296 107.414 53.499 106.909 54.003L101.362 59.551L99.547 57.734C99.1029 57.2976 98.5051 57.0531 97.8825 57.0531C97.2599 57.0531 96.6621 57.2976 96.218 57.734C95.7813 58.1781 95.5366 58.7761 95.5366 59.399C95.5366 60.0218 95.7813 60.6198 96.218 61.064L99.748 64.594C100.192 65.0306 100.79 65.2753 101.413 65.2753C102.036 65.2753 102.634 65.0306 103.078 64.594L110.339 57.431C110.775 56.9872 111.02 56.3898 111.02 55.7675C111.02 55.1452 110.775 54.5478 110.339 54.104C109.835 53.599 109.23 53.296 108.625 53.296ZM103.783 78.715C95.513 78.715 88.653 84.867 87.544 92.835H87.344L84.922 92.936C83.611 92.936 82.602 94.046 82.602 95.357C82.602 96.668 83.712 97.676 85.022 97.676L87.444 97.576H87.544C88.654 105.544 95.613 111.696 103.783 111.696C112.861 111.696 120.224 104.333 120.224 95.255C120.224 86.177 112.861 78.715 103.783 78.715ZM103.783 83.455C110.238 83.455 115.484 88.699 115.585 95.155V95.255C115.585 101.71 110.339 106.956 103.883 107.057H103.783C97.328 107.057 92.083 101.813 91.983 95.357V95.255C91.9764 93.7035 92.2771 92.1661 92.8677 90.7315C93.4584 89.2969 94.3273 87.9934 95.4244 86.8964C96.5214 85.7993 97.8249 84.9304 99.2595 84.3397C100.694 83.7491 102.232 83.4484 103.783 83.455ZM61.52 84.767C67.975 84.767 73.221 90.011 73.322 96.467V96.567C73.322 103.022 68.077 108.267 61.622 108.367H61.52C55.064 108.367 49.82 103.123 49.72 96.667V96.567C49.72 90.112 54.964 84.767 61.52 84.767ZM56.78 93.037C54.864 93.037 53.25 94.65 53.25 96.567C53.25 98.483 54.864 100.097 56.78 100.097C58.696 100.097 60.31 98.483 60.31 96.567C60.31 94.65 58.696 93.037 56.78 93.037ZM66.161 93.037C64.245 93.037 62.631 94.65 62.631 96.567C62.631 98.483 64.245 100.097 66.161 100.097C68.077 100.097 69.691 98.483 69.691 96.567C69.691 94.65 68.077 93.037 66.161 93.037ZM56.78 95.357C57.486 95.357 57.99 95.861 57.99 96.567C57.99 97.273 57.486 97.777 56.78 97.777C56.074 97.777 55.57 97.273 55.57 96.567C55.57 95.861 56.175 95.357 56.78 95.357ZM66.161 95.357C66.867 95.357 67.371 95.861 67.371 96.567C67.371 97.273 66.867 97.777 66.161 97.777C65.455 97.777 64.949 97.273 64.949 96.567C65.05 95.861 65.556 95.357 66.161 95.357ZM13.621 115.713C13.435 115.713 13.26 115.748 13.095 115.82C12.9378 115.884 12.795 115.98 12.675 116.1C12.4373 116.351 12.3056 116.684 12.307 117.03C12.3042 117.375 12.4366 117.708 12.676 117.957C12.796 118.072 12.936 118.165 13.096 118.237C13.26 118.303 13.436 118.335 13.621 118.335C13.808 118.335 13.981 118.303 14.14 118.237C14.299 118.165 14.436 118.072 14.551 117.957C14.6734 117.836 14.77 117.691 14.8351 117.532C14.9002 117.372 14.9325 117.201 14.93 117.029C14.93 116.849 14.897 116.678 14.831 116.519C14.7665 116.362 14.6713 116.219 14.551 116.099C14.4352 115.978 14.2951 115.882 14.14 115.819C13.9765 115.747 13.7996 115.711 13.621 115.713ZM96.944 115.713C96.758 115.713 96.583 115.748 96.418 115.82C96.2608 115.884 96.118 115.98 95.998 116.1C95.819 116.288 95.6982 116.525 95.6501 116.78C95.6021 117.035 95.6287 117.299 95.727 117.54C95.792 117.698 95.883 117.836 95.998 117.957C96.119 118.072 96.259 118.165 96.418 118.237C96.583 118.303 96.758 118.335 96.944 118.335C97.13 118.335 97.304 118.303 97.462 118.237C97.6147 118.17 97.7537 118.075 97.872 117.957C97.9942 117.836 98.0906 117.691 98.1556 117.531C98.2205 117.372 98.2526 117.201 98.25 117.029C98.2529 116.856 98.2209 116.685 98.156 116.525C98.091 116.366 97.9944 116.221 97.872 116.099C97.7566 115.978 97.6169 115.882 97.462 115.819C97.2988 115.747 97.1222 115.711 96.944 115.713ZM28.528 116.05V127.669H30.536V122.382C30.881 121.91 31.206 121.537 31.513 121.262C31.825 120.989 32.153 120.852 32.492 120.852C33.172 120.852 33.51 121.311 33.51 122.226V127.669H35.518V122.06C35.518 121.616 35.462 121.217 35.352 120.86C35.2607 120.523 35.0984 120.209 34.876 119.939C34.6611 119.681 34.3875 119.478 34.078 119.348C33.7251 119.198 33.3443 119.125 32.961 119.133C32.676 119.133 32.414 119.163 32.179 119.223C31.7185 119.328 31.295 119.556 30.953 119.882C30.778 120.041 30.605 120.222 30.435 120.425L30.535 118.912V116.05H28.528ZM47.044 116.05V127.314C47.521 127.468 48.021 127.589 48.541 127.677C49.1035 127.773 49.6733 127.82 50.244 127.817C50.863 127.817 51.435 127.728 51.961 127.553C52.4711 127.383 52.9375 127.102 53.327 126.731C53.716 126.359 54.017 125.891 54.231 125.333C54.45 124.773 54.56 124.11 54.56 123.343C54.5668 122.755 54.4972 122.169 54.353 121.599C54.216 121.079 54.017 120.637 53.754 120.276C53.5081 119.919 53.178 119.629 52.793 119.431C52.3847 119.227 51.9332 119.125 51.477 119.133C50.912 119.133 50.427 119.252 50.021 119.488C49.621 119.723 49.271 120.036 48.969 120.425L49.052 118.78V116.05H47.044ZM22.914 116.643L20.857 117.177V119.314H18.613V120.876H20.857V124.954C20.857 125.459 20.917 125.895 21.038 126.262C21.165 126.624 21.356 126.923 21.614 127.159C21.877 127.394 22.206 127.569 22.601 127.685C23.001 127.8 23.475 127.858 24.023 127.858C24.352 127.858 24.7 127.833 25.067 127.783C25.434 127.733 25.799 127.668 26.16 127.586V125.983C25.8782 126.06 25.5929 126.123 25.305 126.172C24.988 126.227 24.6668 126.255 24.345 126.254C23.829 126.254 23.462 126.134 23.243 125.892C23.023 125.645 22.913 125.283 22.913 124.807V120.877H26.16V119.314H22.914V116.643ZM87.719 116.643L85.664 117.177V119.314H83.418V120.876H85.664V124.954C85.664 125.459 85.723 125.895 85.844 126.262C85.969 126.624 86.163 126.923 86.42 127.159C86.684 127.394 87.01 127.569 87.405 127.685C87.805 127.8 88.282 127.858 88.83 127.858C89.159 127.858 89.507 127.833 89.874 127.783C90.241 127.733 90.605 127.668 90.967 127.586V125.983C90.6852 126.06 90.3998 126.123 90.112 126.172C89.794 126.227 89.4718 126.255 89.149 126.254C88.634 126.254 88.267 126.134 88.048 125.892C87.828 125.645 87.718 125.283 87.718 124.807V120.877H90.968V119.314H87.718L87.719 116.643ZM5.23499 116.741C4.40199 116.741 3.65899 116.87 3.00699 117.128C2.37954 117.372 1.81668 117.757 1.36199 118.254C0.917993 118.742 0.578993 119.34 0.343993 120.047C0.113993 120.754 -0.00100708 121.553 -0.00100708 122.447C-0.00100708 123.335 0.108993 124.117 0.327993 124.791C0.552993 125.465 0.872993 126.031 1.28899 126.485C1.70665 126.94 2.22471 127.291 2.80199 127.511C3.39999 127.741 4.06999 127.858 4.81599 127.858C5.44599 127.858 6.02999 127.802 6.56599 127.693C7.09995 127.585 7.61922 127.413 8.11299 127.183V121.452H4.29099V123.122H6.11699V125.866C6.03786 125.893 5.95818 125.918 5.87799 125.941C5.80799 125.963 5.72999 125.982 5.64799 125.998C5.56599 126.015 5.47799 126.028 5.38399 126.04C5.27442 126.046 5.16471 126.048 5.05499 126.048C4.52899 126.048 4.08299 125.964 3.71499 125.794C3.35627 125.63 3.04515 125.378 2.81099 125.061C2.56813 124.709 2.3975 124.313 2.30899 123.895C2.19997 123.387 2.14765 122.868 2.15299 122.348C2.15299 121.756 2.21899 121.226 2.34999 120.755C2.48699 120.283 2.68599 119.885 2.94299 119.561C3.20359 119.24 3.53578 118.984 3.91299 118.814C4.33583 118.632 4.79264 118.542 5.25299 118.55C5.75299 118.55 6.24599 118.613 6.73299 118.74C7.22699 118.86 7.67499 119.016 8.08099 119.208V117.211C7.62011 117.07 7.15086 116.957 6.67599 116.874C6.20114 116.785 5.71905 116.741 5.23599 116.742L5.23499 116.741ZM67.633 116.923L64.451 127.669H66.457L67.065 125.547H70.815L71.407 127.669H73.643L70.462 116.923H67.633ZM68.964 118.895L70.363 123.895H67.55L68.964 118.895ZM106.162 119.133C105.52 119.133 104.944 119.24 104.434 119.454C103.924 119.662 103.492 119.959 103.136 120.343C102.773 120.746 102.495 121.218 102.32 121.731C102.128 122.314 102.034 122.926 102.042 123.54C102.042 124.258 102.132 124.888 102.312 125.431C102.493 125.968 102.755 126.419 103.094 126.781C103.434 127.137 103.848 127.405 104.335 127.586C104.823 127.767 105.377 127.858 105.996 127.858C106.648 127.858 107.23 127.751 107.74 127.537C108.232 127.336 108.673 127.027 109.03 126.633C109.38 126.243 109.65 125.777 109.836 125.234C110.022 124.686 110.116 124.084 110.116 123.426C110.116 122.724 110.024 122.108 109.844 121.576C109.689 121.074 109.425 120.613 109.071 120.226C108.727 119.862 108.302 119.583 107.831 119.413C107.342 119.226 106.788 119.133 106.162 119.133ZM116.282 119.133C115.975 119.133 115.699 119.166 115.452 119.232C114.968 119.368 114.525 119.62 114.16 119.965C113.972 120.148 113.796 120.342 113.634 120.548L113.584 119.314H111.851V127.669H113.856V122.382C114.202 121.91 114.529 121.537 114.836 121.262C115.148 120.989 115.473 120.852 115.813 120.852C116.493 120.852 116.833 121.311 116.833 122.226V127.669H118.838V122.06C118.838 121.616 118.785 121.217 118.675 120.86C118.583 120.523 118.421 120.209 118.198 119.939C117.983 119.681 117.709 119.478 117.4 119.348C117.046 119.198 116.666 119.125 116.282 119.133ZM124.898 119.133C124.29 119.133 123.759 119.198 123.304 119.33C122.893 119.441 122.505 119.625 122.16 119.874C121.874 120.081 121.641 120.351 121.478 120.664C121.326 120.961 121.247 121.291 121.248 121.625C121.248 121.975 121.297 122.282 121.396 122.545C121.5 122.803 121.654 123.031 121.856 123.229C122.059 123.426 122.314 123.599 122.621 123.747C122.933 123.889 123.295 124.017 123.706 124.133C124.15 124.259 124.51 124.373 124.784 124.478C125.058 124.576 125.268 124.674 125.416 124.773C125.545 124.843 125.654 124.945 125.73 125.071C125.784 125.175 125.81 125.289 125.81 125.415C125.81 125.684 125.68 125.903 125.416 126.073C125.159 126.238 124.766 126.32 124.24 126.32C123.785 126.32 123.302 126.273 122.786 126.18C122.259 126.076 121.743 125.918 121.248 125.71V127.52C121.686 127.629 122.153 127.713 122.647 127.768C123.14 127.828 123.693 127.858 124.307 127.858C124.761 127.858 125.213 127.808 125.655 127.708C126.072 127.626 126.472 127.474 126.839 127.258C127.189 127.043 127.469 126.768 127.678 126.434C127.892 126.094 127.999 125.687 127.999 125.21C128.003 124.917 127.959 124.625 127.867 124.346C127.777 124.09 127.628 123.859 127.432 123.672C127.201 123.452 126.934 123.274 126.642 123.146C126.249 122.964 125.842 122.816 125.424 122.703C124.997 122.583 124.651 122.473 124.388 122.373C124.177 122.292 123.974 122.192 123.781 122.076C123.662 122.007 123.563 121.908 123.494 121.789C123.443 121.684 123.417 121.569 123.419 121.452C123.419 121.189 123.542 120.983 123.789 120.835C124.041 120.687 124.373 120.615 124.784 120.615C125.195 120.615 125.608 120.647 126.025 120.713C126.447 120.773 126.895 120.879 127.373 121.033V119.397C127.017 119.324 126.658 119.263 126.297 119.216C125.833 119.157 125.366 119.13 124.898 119.133ZM79.168 119.183C78.5505 119.175 77.9369 119.281 77.358 119.496C76.8408 119.692 76.3706 119.994 75.978 120.384C75.586 120.78 75.2805 121.253 75.081 121.773C74.873 122.316 74.77 122.92 74.77 123.589C74.77 124.279 74.866 124.889 75.058 125.415C75.255 125.942 75.538 126.383 75.905 126.739C76.2862 127.104 76.744 127.379 77.245 127.545C77.77 127.725 78.365 127.817 79.029 127.817C79.489 127.817 79.931 127.777 80.353 127.701C80.7716 127.625 81.1814 127.507 81.576 127.348V125.563C81.4015 125.638 81.2233 125.704 81.042 125.76C80.856 125.82 80.664 125.876 80.467 125.926C80.2743 125.97 80.0798 126.005 79.884 126.032C79.7008 126.054 79.5165 126.065 79.332 126.066C78.971 126.066 78.642 126.007 78.345 125.892C78.0577 125.777 77.7975 125.603 77.581 125.382C77.366 125.146 77.201 124.869 77.096 124.568C76.9762 124.222 76.9176 123.857 76.923 123.491C76.923 123.107 76.975 122.757 77.079 122.439C77.189 122.115 77.345 121.842 77.548 121.617C77.75 121.393 78 121.217 78.296 121.091C78.592 120.965 78.926 120.902 79.299 120.902C79.655 120.902 80.031 120.949 80.426 121.042C80.826 121.135 81.197 121.266 81.536 121.436V119.488C81.2068 119.393 80.8713 119.321 80.532 119.273C80.0807 119.207 79.624 119.177 79.168 119.183ZM10.349 119.314V120.877H12.709V126.107H10.062V127.669H17.173V126.107H14.764V119.314H10.349ZM37.769 119.314V124.923C37.769 125.367 37.823 125.769 37.927 126.131C38.037 126.487 38.198 126.793 38.412 127.051C38.626 127.308 38.892 127.509 39.21 127.651C39.5669 127.795 39.9492 127.865 40.334 127.858C40.636 127.858 40.911 127.821 41.158 127.75C41.643 127.625 42.0856 127.373 42.44 127.019C42.621 126.844 42.799 126.648 42.974 126.434L43.024 127.669H44.759V119.314H42.754V124.602C42.4644 125.01 42.1336 125.388 41.767 125.729C41.46 126.003 41.137 126.139 40.803 126.139C40.458 126.139 40.201 126.024 40.031 125.794C39.861 125.558 39.777 125.212 39.777 124.757V119.314H37.769ZM93.672 119.314V120.877H96.032V126.107H93.384V127.669H100.496V126.107H98.086V119.314H93.672ZM51.008 120.853C51.238 120.853 51.441 120.902 51.617 121.001C51.797 121.094 51.947 121.243 52.067 121.451C52.194 121.661 52.29 121.926 52.355 122.25C52.421 122.573 52.454 122.965 52.454 123.426C52.454 123.859 52.404 124.251 52.306 124.602C52.2209 124.919 52.076 125.217 51.879 125.48C51.7025 125.719 51.4716 125.912 51.2055 126.043C50.9394 126.175 50.6458 126.241 50.349 126.237C50.1098 126.237 49.8711 126.218 49.635 126.18C49.4363 126.15 49.2411 126.1 49.052 126.032V122.382C49.397 121.91 49.722 121.537 50.029 121.262C50.341 120.989 50.668 120.853 51.008 120.853ZM106.095 120.869C106.73 120.869 107.211 121.089 107.535 121.527C107.864 121.96 108.027 122.609 108.027 123.475C108.027 123.848 107.987 124.195 107.911 124.519C107.844 124.819 107.728 125.105 107.566 125.366C107.416 125.599 107.21 125.792 106.967 125.926C106.697 126.063 106.397 126.13 106.095 126.123C105.486 126.123 105.007 125.903 104.657 125.465C104.306 125.021 104.131 124.362 104.131 123.491C104.131 123.129 104.166 122.791 104.237 122.472C104.314 122.154 104.431 121.877 104.59 121.641C104.749 121.4 104.952 121.211 105.198 121.074C105.445 120.937 105.744 120.869 106.095 120.869Z" fill="#F05353"/>
</g>
<defs>
<clipPath id="clip0_21_280">
<rect width="128" height="128" fill="white"/>
</clipPath>
</defs>
</svg>
