<svg width="65" height="65" viewBox="0 0 65 65" fill="none" xmlns="http://www.w3.org/2000/svg">
<path d="M4.54463 1.03955L9.54443 57.0863L31.9921 63.2879L54.5024 57.0955L59.5126 1.04221L4.54463 1.03955ZM49.107 14.3112L48.7933 17.8972L48.6552 19.5417L22.3227 19.5404L22.9509 26.5404L48.0289 26.5417L47.8608 28.2771L46.2434 46.3366L46.1244 47.4716L32.0262 51.3454L32.0262 51.3464L32.0092 51.3554L17.9209 47.6432L16.9649 37.0402L23.8724 37.0405L24.3616 42.5L32.005 44.5409L32.0265 44.5409L32.0265 44.2679L39.7041 42.3308L40.5066 33.5413L16.6576 33.5401L14.967 14.4816L14.8026 12.54L49.2721 12.5417L49.107 14.3112Z" fill="#F05353"/>
</svg>
