<svg width="65" height="65" viewBox="0 0 65 65" fill="none" xmlns="http://www.w3.org/2000/svg">
<path d="M0.028656 0.0522461L0.0255647 64.0522L64.0256 64.0553L64.0287 0.0553374L0.028656 0.0522461ZM33.879 54.5885C32.9342 56.508 31.1309 57.769 29.0414 58.3776C25.8306 59.1147 22.7596 58.6942 20.4752 57.323C18.9464 56.3849 17.7525 54.941 16.9421 53.2775L21.8164 50.2928C21.8589 50.3107 21.9869 50.5421 22.1579 50.8412C22.7794 51.8826 23.3155 52.6199 24.3691 53.1376C25.4044 53.4909 27.6771 53.7168 28.5548 51.8952C29.0909 50.9685 28.9205 47.9896 28.9207 44.6939C28.9204 39.515 28.9448 34.3576 28.945 29.2376L34.94 29.2379C34.9397 34.8699 34.9702 40.204 34.9392 45.6998C34.9519 49.0687 35.2441 52.0721 33.879 54.5885ZM58.7489 52.896C56.6647 60.024 45.0464 60.2549 40.4038 55.5453C39.4229 54.4367 38.808 53.8576 38.2229 52.5781C40.6903 51.159 40.6903 51.159 43.0911 49.77C44.3951 51.7746 45.6008 52.877 47.7701 53.3282C50.713 53.6877 53.674 52.6767 53.0101 49.5509C52.3277 46.998 46.984 46.3767 43.3474 43.6465C39.6555 41.1667 38.7905 35.1415 41.8248 31.6989C42.836 30.4256 44.5605 29.4755 46.3699 29.0188L48.2582 28.7747C51.8837 28.7017 54.1497 29.6592 55.8131 31.5168C56.276 31.9858 56.6538 32.4917 57.3603 33.5879C55.429 34.8187 55.4351 34.8069 52.6687 36.5978C52.0779 35.3249 51.0975 34.5261 50.0612 34.179C48.4525 33.6915 46.4239 34.2213 46.003 35.9211C45.857 36.4449 45.8872 36.9323 46.1191 37.7976C46.7708 39.2839 48.9581 39.9302 50.92 40.8319C56.5678 43.1229 58.4748 45.579 58.9437 48.5026C59.3952 51.0196 58.8344 52.6523 58.7489 52.896Z" fill="#F05353"/>
</svg>
