<svg width="65" height="65" viewBox="0 0 65 65" fill="none" xmlns="http://www.w3.org/2000/svg">
<g clip-path="url(#clip0_26_745)">
<path d="M0.0209045 25.6016L0.0202824 38.4826L2.23128 38.4827L2.23177 28.3547L10.3853 38.4881L24.2323 38.4887L24.2324 36.4322L15.2969 36.4318L15.297 33.0313L22.482 33.0316L22.4821 30.9751L15.2971 30.9748L15.2973 27.6643L24.2323 27.6647L24.2324 25.6067L13.0859 25.6062L13.0858 27.6642L13.0868 27.6642L13.0863 38.3932L2.7844 25.6017L0.0209045 25.6016ZM42.5659 25.6086L42.5658 27.6661L47.0808 27.6663L47.0803 38.4913L49.2903 38.4914L49.2908 27.6664L53.7143 27.6667L53.7144 25.6087L42.5659 25.6081L42.5659 25.6086ZM26.9049 25.6134L37.2693 38.4959L40.1708 38.496L34.9886 32.0593L40.1639 25.624L37.2689 25.6289L33.5392 30.2592L29.7994 25.614L26.9044 25.6139L26.9049 25.6134ZM61.9836 32.9141C61.6031 32.914 61.261 32.978 60.958 33.111C60.657 33.2425 60.419 33.4275 60.245 33.665C60.07 33.903 59.9825 34.181 59.9825 34.497C59.9825 34.882 60.1114 35.189 60.3724 35.4205C60.6309 35.6525 60.9859 35.825 61.4344 35.9385L62.0544 36.0946C62.2294 36.137 62.4009 36.1928 62.5674 36.2616C62.6966 36.3127 62.8132 36.3913 62.9089 36.4921C62.9918 36.589 63.0359 36.7131 63.0329 36.8406C63.0341 36.9869 62.984 37.129 62.8913 37.2421C62.7908 37.3635 62.6596 37.4559 62.5113 37.5096C62.3303 37.5764 62.1383 37.609 61.9453 37.6056C61.7554 37.6082 61.5666 37.5773 61.3873 37.5145C61.2313 37.4583 61.0928 37.3623 60.9853 37.236C60.8796 37.103 60.8181 36.9402 60.8094 36.7705L59.8389 36.7705C59.8523 37.1255 59.9468 37.4285 60.1218 37.6765C60.2968 37.9245 60.5398 38.113 60.8518 38.2415C61.1618 38.3715 61.5303 38.4365 61.9528 38.4366C62.3903 38.4366 62.7623 38.3686 63.0693 38.2366C63.3778 38.1016 63.6133 37.9151 63.7763 37.6776C63.9398 37.4382 64.0203 37.1637 64.0204 36.8487C64.0204 36.6157 63.9754 36.4127 63.8874 36.2401C63.8001 36.0685 63.6774 35.9174 63.5274 35.7966C63.3713 35.6716 63.1983 35.5695 63.0134 35.4931C62.8212 35.4115 62.622 35.3471 62.4184 35.3006L61.9084 35.1756C61.7957 35.1486 61.6844 35.1161 61.5749 35.078C61.4702 35.0424 61.37 34.9946 61.2765 34.9355C61.1895 34.8835 61.1159 34.8119 61.0615 34.7265C61.0071 34.6398 60.9796 34.5389 60.9825 34.4365C60.9829 34.3074 61.0246 34.1817 61.1015 34.078C61.1795 33.973 61.294 33.89 61.4405 33.828C61.6088 33.7633 61.7882 33.7321 61.9685 33.7361C62.261 33.7361 62.4995 33.7991 62.6835 33.9276C62.7723 33.9876 62.8465 34.0668 62.9004 34.1595C62.9544 34.2521 62.9867 34.3557 62.995 34.4626L63.945 34.4627C63.9449 34.1747 63.8553 33.8939 63.6885 33.6591C63.522 33.4261 63.2925 33.2426 63 33.1111C62.708 32.9786 62.3701 32.9141 61.9836 32.9141ZM57.9845 32.9859L57.9844 36.7609C57.9829 36.9494 57.9533 37.1094 57.8963 37.2379C57.845 37.3595 57.7564 37.4617 57.6433 37.5298C57.5343 37.5963 57.3993 37.6298 57.2418 37.6298C57.0968 37.6298 56.9688 37.6013 56.8563 37.5448C56.7479 37.4916 56.6572 37.4081 56.5953 37.3043C56.53 37.1902 56.4963 37.0608 56.4979 36.9293L55.5164 36.9292C55.5163 37.2597 55.5898 37.5357 55.7398 37.7573C55.889 37.9793 56.0993 38.1533 56.3453 38.2583C56.6169 38.3745 56.9099 38.4325 57.2053 38.4283C57.5538 38.4283 57.8608 38.3614 58.1228 38.2284C58.38 38.1007 58.5947 37.9011 58.7408 37.6539C58.8873 37.4044 58.9629 37.1074 58.9649 36.7604L58.965 32.9859L57.9845 32.9859ZM31.3185 33.0141L26.8963 38.5049L29.7988 38.505L32.7675 34.8151L31.3185 33.0141ZM54.2108 37.2642C54.0488 37.2642 53.9108 37.3202 53.7958 37.4322C53.7403 37.4834 53.6962 37.5459 53.6666 37.6155C53.6369 37.685 53.6223 37.7601 53.6238 37.8357C53.6219 37.9121 53.6363 37.9881 53.6659 38.0586C53.6956 38.1291 53.7398 38.1925 53.7958 38.2447C53.9108 38.3572 54.0488 38.4127 54.2108 38.4127C54.3118 38.4134 54.411 38.3864 54.4978 38.3347C54.5863 38.2842 54.6568 38.2147 54.7118 38.1267C54.7658 38.0392 54.7945 37.9385 54.7948 37.8357C54.7948 37.7599 54.7791 37.6849 54.7486 37.6154C54.7182 37.5459 54.6736 37.4836 54.6178 37.4322C54.5646 37.3784 54.5012 37.3359 54.4313 37.307C54.3614 37.2782 54.2865 37.2636 54.2108 37.2642Z" fill="#F05353"/>
</g>
<defs>
<clipPath id="clip0_26_745">
<rect width="64" height="64" fill="white" transform="translate(0.0221252 0.0524902)"/>
</clipPath>
</defs>
</svg>
