<svg width="65" height="65" viewBox="0 0 65 65" fill="none" xmlns="http://www.w3.org/2000/svg">
<g clip-path="url(#clip0_26_748)">
<path d="M43.0509 12.3734C42.9895 12.373 42.929 12.3885 42.8754 12.4184C42.8195 12.451 42.7729 12.4974 42.74 12.5531C42.7072 12.6089 42.6892 12.6722 42.6879 12.7369L42.6874 22.2019C42.6863 22.2485 42.6737 22.294 42.6506 22.3345C42.6276 22.375 42.5949 22.4091 42.5554 22.4339C42.5155 22.4554 42.4708 22.4666 42.4254 22.4666C42.3801 22.4666 42.3354 22.4554 42.2954 22.4339L40.7625 21.5473C40.65 21.4828 40.5226 21.4489 40.393 21.4489C40.2633 21.4489 40.136 21.4828 40.0235 21.5473L33.8893 25.114C33.7756 25.178 33.6809 25.2709 33.6147 25.3832C33.5485 25.4956 33.5131 25.6235 33.5123 25.754L33.5119 32.873C33.5119 33.135 33.6574 33.3835 33.8889 33.5145L40.0237 37.0823C40.1361 37.1466 40.2633 37.1804 40.3927 37.1804C40.5222 37.1804 40.6494 37.1466 40.7617 37.0823L46.8969 33.5151C47.1284 33.3841 47.2739 33.1356 47.2739 32.8736L47.2748 15.1256C47.2748 14.8491 47.1293 14.6006 46.8978 14.4706L43.2379 12.4184C43.1799 12.3891 43.1159 12.3737 43.0509 12.3734ZM6.85749 21.2547C6.74249 21.2547 6.62699 21.2977 6.52599 21.3547L0.390816 24.9089C0.275615 24.9746 0.180007 25.0698 0.113828 25.1848C0.0476493 25.2997 0.0132896 25.4302 0.0142843 25.5628L0.028823 35.1133C0.0288167 35.2448 0.0998103 35.3764 0.215807 35.4349C0.269541 35.4705 0.332582 35.4895 0.397055 35.4895C0.461527 35.4895 0.524571 35.4705 0.578307 35.4349L4.22591 33.3385C4.33936 33.2742 4.43379 33.1811 4.49965 33.0685C4.56551 32.9559 4.60045 32.828 4.60094 32.6976L4.60116 28.2281C4.60117 27.9661 4.74618 27.7176 4.97819 27.5866L6.52573 26.6842C6.63883 26.6152 6.76929 26.58 6.90174 26.5827C7.03174 26.5827 7.16273 26.6112 7.26423 26.6842L8.81219 27.5868C9.04368 27.7178 9.18917 27.9663 9.18916 28.2283L9.18894 32.6983C9.18893 32.9593 9.33292 33.2083 9.56391 33.3383L13.1818 35.4355C13.2381 35.471 13.3033 35.4899 13.3698 35.4899C13.4364 35.4899 13.5015 35.471 13.5578 35.4355C13.6154 35.404 13.6634 35.3575 13.6966 35.3009C13.7298 35.2442 13.747 35.1797 13.7463 35.114L13.7468 25.5635C13.7468 25.3015 13.6018 25.0535 13.3698 24.922L7.24949 21.3547C7.14657 21.2995 7.03372 21.2654 6.91749 21.2542L6.85699 21.2542L6.85749 21.2547ZM57.1925 21.3606L57.1925 21.3616L57.1915 21.3626C57.065 21.3626 56.939 21.3951 56.823 21.4611L50.6873 25.0258C50.4558 25.1578 50.3123 25.4053 50.3123 25.6678L50.3119 32.7878C50.3119 33.0498 50.4554 33.2978 50.6869 33.4283L56.7782 36.9231C56.888 36.9875 57.013 37.0215 57.1402 37.0215C57.2675 37.0215 57.3925 36.9876 57.5022 36.9231L61.1923 34.8568C61.2498 34.8252 61.2975 34.7786 61.3306 34.722C61.3636 34.6654 61.3806 34.6009 61.3799 34.5353C61.3804 34.47 61.3632 34.4058 61.3302 34.3495C61.2972 34.2931 61.2496 34.2468 61.1924 34.2153L55.029 30.647C54.9727 30.6139 54.9258 30.5668 54.893 30.5103C54.8602 30.4538 54.8424 30.3898 54.8416 30.3245L54.8417 28.097C54.8411 28.0318 54.8583 27.9677 54.8913 27.9116C54.9243 27.8554 54.972 27.8092 55.0292 27.778L56.9562 26.6716C57.0125 26.6361 57.0777 26.6173 57.1442 26.6173C57.2108 26.6173 57.2759 26.6361 57.3322 26.6716L59.2547 27.7782C59.3106 27.8109 59.3573 27.8574 59.3903 27.9133C59.4233 27.9691 59.4415 28.0324 59.4432 28.0972L59.4431 29.8442C59.4431 29.9757 59.5151 30.1067 59.6306 30.1647C59.6869 30.2005 59.7523 30.2195 59.8191 30.2195C59.8858 30.2195 59.9512 30.2005 60.0076 30.1647L63.6532 28.0249C63.765 27.96 63.8576 27.8665 63.9215 27.7541C63.9854 27.6416 64.0182 27.5143 64.0167 27.3849L64.0168 25.6524C64.0168 25.3904 63.8708 25.1429 63.6533 25.0114L57.563 21.4606C57.4505 21.3956 57.3229 21.361 57.193 21.3601L57.1925 21.3606ZM23.671 21.3835C23.5513 21.3838 23.4337 21.4153 23.33 21.475L17.2448 25.0082L19.3736 28.9133L23.743 21.3905C23.7192 21.3875 23.6954 21.3853 23.6715 21.384L23.6705 21.384L23.671 21.3835ZM23.954 21.4575L28.2571 28.8647L30.2798 25.1423C30.2423 25.1039 30.2003 25.0702 30.1548 25.0418L27.0194 23.2202L24.001 21.476C23.986 21.4685 23.9695 21.4635 23.954 21.4575ZM23.829 21.4875L19.4416 29.0393L23.7922 37.022C23.8042 37.0195 23.8162 37.0185 23.8282 37.015L28.1881 28.9917L23.8285 21.488L23.829 21.4875ZM17.1403 25.0732C17.0502 25.1362 16.9768 25.2203 16.9266 25.3182C16.8764 25.416 16.8509 25.5247 16.8523 25.6347L16.8519 32.7852C16.8519 32.8992 16.8829 33.0102 16.9359 33.1087L19.3001 29.0373L17.1403 25.0732ZM30.3653 25.2448L28.3296 28.9897L30.4884 32.7068L30.4888 25.6353C30.4888 25.4953 30.4428 25.3588 30.3648 25.2453L30.3653 25.2448ZM40.3932 26.6778C40.4257 26.6778 40.4582 26.6853 40.4882 26.7003L42.5847 27.9244C42.6427 27.9534 42.6722 28.0249 42.6722 28.0834L42.672 30.5299C42.672 30.6029 42.642 30.6619 42.5845 30.6909L40.4865 31.9133C40.4571 31.9276 40.4249 31.935 40.3922 31.935C40.3596 31.935 40.3273 31.9276 40.298 31.9133L38.2005 30.6917C38.1425 30.6627 38.1125 30.5892 38.1125 30.5307L38.1127 28.0842C38.1127 28.0112 38.1432 27.9537 38.2007 27.9242L40.2982 26.7003C40.3277 26.6855 40.3603 26.6778 40.3932 26.6778ZM57.1707 27.6686C57.1448 27.6689 57.1195 27.6769 57.0982 27.6916L55.9251 28.376C55.9031 28.3897 55.8849 28.4089 55.8725 28.4317C55.86 28.4545 55.8537 28.4801 55.8541 28.506L55.8541 29.876C55.8541 29.934 55.8816 29.978 55.9251 30.007L57.098 30.6916C57.1195 30.7058 57.1446 30.7133 57.1703 30.7133C57.196 30.7133 57.2211 30.7058 57.2425 30.6916L58.4146 30.0067C58.4366 29.9928 58.4548 29.9735 58.4674 29.9507C58.48 29.9279 58.4866 29.9022 58.4866 29.8762L58.4866 28.5072C58.4868 28.4811 58.4803 28.4555 58.4677 28.4327C58.4551 28.41 58.4368 28.3908 58.4147 28.3772L57.2427 27.6916C57.2213 27.6775 57.1963 27.67 57.1707 27.6701L57.1707 27.6691L57.1707 27.6686ZM28.2611 29.1172L24.0047 36.9495L24.0117 36.946L30.1554 33.3778C30.3269 33.2808 30.4369 33.1148 30.4739 32.9263L28.2611 29.1172ZM19.3696 29.1643L17.0119 33.2227C17.0619 33.2842 17.1204 33.3377 17.1869 33.3777L23.2637 36.909L23.3287 36.9465L23.3302 36.9465C23.3776 36.9733 23.4279 36.9945 23.4802 37.0095C23.4957 37.0145 23.5112 37.017 23.5262 37.0205C23.5562 37.027 23.5852 37.0315 23.6152 37.034C23.6297 37.0355 23.6437 37.035 23.6582 37.035L19.3696 29.1643ZM31.6243 35.8614C31.4108 35.8614 31.1978 35.9114 31.0168 36.0133L25.2416 39.3781C25.0562 39.4865 24.9025 39.6417 24.7958 39.8282C24.6891 40.0146 24.6332 40.2257 24.6336 40.4405L24.6332 47.1505C24.6332 47.5875 24.8647 47.995 25.2407 48.2141L26.7611 49.0871C27.4986 49.4512 27.7586 49.4492 28.0911 49.4492C29.1761 49.4493 29.7992 48.7803 29.7992 47.6303L29.7995 41.0088C29.799 40.9629 29.7808 40.9189 29.7487 40.8861C29.7165 40.8533 29.673 40.8342 29.627 40.8328L28.8895 40.8327C28.843 40.8333 28.7986 40.852 28.7657 40.8849C28.7328 40.9178 28.7141 40.9622 28.7135 41.0087L28.7132 47.6327C28.7132 48.1422 28.1802 48.6522 27.3267 48.2157L25.7487 47.2986C25.6907 47.2696 25.6617 47.1951 25.6617 47.1371L25.6621 40.4246C25.6621 40.3666 25.6911 40.2931 25.7491 40.2646L31.5217 36.9169C31.5652 36.8879 31.6377 36.8879 31.6967 36.9169L37.4686 40.2647C37.5261 40.2947 37.5566 40.3527 37.5566 40.4247L37.5562 47.1367C37.5562 47.2092 37.5262 47.2692 37.4682 47.2982L31.6946 50.6609C31.6511 50.6899 31.5786 50.6899 31.5196 50.6609L30.0451 49.7723C30.0011 49.7433 29.9431 49.7293 29.9001 49.7573C29.4951 49.9913 29.4236 50.0213 29.0326 50.1523C28.9456 50.1812 28.8011 50.2382 29.0901 50.3983L31.016 51.5498C31.204 51.6514 31.406 51.7089 31.6235 51.7089C31.8405 51.7089 32.0565 51.6514 32.23 51.5789L38.0032 48.2162C38.1887 48.1072 38.3423 47.9515 38.4489 47.7647C38.5555 47.5778 38.6113 47.3663 38.6107 47.1512L38.6111 40.4412C38.6111 40.0042 38.3796 39.5982 38.0036 39.3797L32.2308 36.0144C32.0449 35.9127 31.8361 35.8597 31.6243 35.8614ZM40.6376 38.9263C40.3412 38.9275 40.0574 39.0463 39.8486 39.2567C39.6398 39.4671 39.523 39.7518 39.5241 40.0483C39.5233 40.3445 39.6401 40.629 39.8488 40.8392C40.0576 41.0494 40.3413 41.1681 40.6375 41.1693C41.246 41.1693 41.7526 40.6594 41.7526 40.0484C41.7512 39.7525 41.6335 39.469 41.4249 39.2592C41.2163 39.0494 40.9335 38.93 40.6376 38.9268L40.6376 38.9263ZM40.6226 39.1143L40.6241 39.1143C40.7476 39.1128 40.8701 39.1359 40.9845 39.1822C41.0989 39.2285 41.203 39.2971 41.2906 39.384C41.3782 39.471 41.4477 39.5745 41.4949 39.6885C41.5421 39.8026 41.5661 39.9249 41.5656 40.0484C41.5656 40.5584 41.145 40.9933 40.624 40.9933C40.118 40.9933 39.6971 40.5723 39.6971 40.0483C39.6971 39.5243 40.1316 39.1153 40.6226 39.1143ZM40.2176 39.4213L40.2176 40.7013L40.4646 40.7013L40.4646 40.1948L40.6836 40.1948C40.7706 40.1948 40.7986 40.2238 40.8136 40.2963C40.8136 40.3113 40.8566 40.6308 40.8566 40.6888L41.1166 40.6888C41.0866 40.6308 41.0731 40.4548 41.0586 40.3528C41.0446 40.1928 41.0306 40.0773 40.8566 40.0628C40.9436 40.0333 41.0866 39.9903 41.0866 39.7573C41.0866 39.4223 40.7966 39.4223 40.6521 39.4223L40.2176 39.4213ZM40.4366 39.6253L40.6376 39.6253C40.7106 39.6253 40.8271 39.6253 40.8271 39.8003C40.8271 39.8583 40.7976 39.9753 40.6376 39.9753L40.4366 39.9753L40.4366 39.6253ZM33.2021 40.63C31.5521 40.6299 30.566 41.3293 30.566 42.5088C30.5659 43.7758 31.5504 44.1229 33.1279 44.2829C35.0229 44.473 35.1679 44.7505 35.1678 45.129C35.1678 45.784 34.6468 46.0595 33.4313 46.0595C31.8973 46.0594 31.5638 45.6809 31.4478 44.9099C31.4479 44.8219 31.3779 44.7649 31.2909 44.7649L30.5384 44.7648C30.4919 44.7648 30.4474 44.7833 30.4146 44.8161C30.3818 44.8489 30.3634 44.8934 30.3633 44.9398C30.3633 45.9298 30.8852 47.0933 33.4182 47.0935C35.2407 47.0936 36.2958 46.3656 36.2958 45.0836C36.2959 43.8321 35.4559 43.4966 33.6769 43.2635C31.8819 43.0304 31.6944 42.8994 31.6945 42.4774C31.6945 42.1279 31.8545 41.6629 33.1845 41.663C34.372 41.663 34.8205 41.925 34.9945 42.7255C35.0027 42.7618 35.0227 42.7943 35.0512 42.8182C35.0797 42.842 35.1153 42.8559 35.1525 42.8575L35.9194 42.8576C35.9629 42.8576 36.008 42.8291 36.0375 42.8001C36.0646 42.7613 36.0796 42.7154 36.0805 42.6681C35.965 41.2706 35.0546 40.63 33.2021 40.63Z" fill="#F05353"/>
</g>
<defs>
<clipPath id="clip0_26_748">
<rect width="64" height="64" fill="white" transform="translate(0.0155411 0.0393066)"/>
</clipPath>
</defs>
</svg>
