<svg width="128" height="128" viewBox="0 0 128 128" fill="none" xmlns="http://www.w3.org/2000/svg">
<path d="M72.086 86.132L71.492 85.988C58.367 82.144 56.342 71.677 56.342 71.677L74.524 76.759L84.15 39.77L84.034 39.739C72.227 36.577 64.394 31.047 61.29 28.447C56.89 24.762 54.955 22.201 53.05 26.075C51.368 29.492 49.214 35.052 47.13 42.837C42.614 59.694 39.238 95.266 67.157 102.751L67.729 102.88L72.086 86.132ZM53.279 55.282C53.279 55.282 57.679 48.439 65.141 50.56C72.608 52.681 73.186 60.936 73.186 60.936L53.279 55.282ZM44.762 78.733L31.787 82.41C31.787 82.41 33.197 74.381 42.755 71.198L35.408 43.625L34.773 43.818C25.662 46.275 18.297 45.623 15.223 45.091C10.866 44.34 8.587 43.383 8.801 46.697C8.987 49.62 9.683 54.151 11.278 60.137C14.728 73.098 26.132 98.074 47.683 92.269L48.318 92.07L44.762 78.733ZM19.548 60.315L34.864 56.28C34.864 56.28 34.418 62.172 28.676 63.685C22.933 65.197 19.548 60.315 19.548 60.315ZM109.372 41.336C105.391 42.034 95.84 42.903 84.036 39.74C72.229 36.578 64.396 31.048 61.292 28.448C56.892 24.763 54.957 22.202 53.052 26.076C51.368 29.493 49.215 35.053 47.131 42.838C42.615 59.695 39.239 95.267 67.158 102.752C95.07 110.231 109.93 77.735 114.447 60.877C116.531 53.094 117.445 47.201 117.697 43.401C117.984 39.096 115.027 40.346 109.373 41.337L109.372 41.336ZM53.279 55.282C53.279 55.282 57.679 48.439 65.141 50.56C72.608 52.681 73.186 60.936 73.186 60.936L53.279 55.282ZM71.495 85.988C58.37 82.143 56.345 71.677 56.345 71.677L91.604 81.535C91.604 81.533 84.487 89.785 71.495 85.988ZM83.961 64.478C83.961 64.478 88.355 57.64 95.815 59.767C103.275 61.891 103.863 70.146 103.863 70.146L83.961 64.478ZM51.732 83.935V76.756L31.787 82.412C31.787 82.412 33.261 73.849 43.663 70.898C46.818 70.004 49.509 70.01 51.732 70.439V40.995H61.719C60.632 37.635 59.58 35.048 58.696 33.251C57.235 30.276 55.736 32.248 52.335 35.093C49.939 37.094 43.885 41.364 34.774 43.819C25.663 46.276 18.298 45.624 15.224 45.092C10.867 44.34 8.588 43.384 8.802 46.697C8.988 49.62 9.684 54.152 11.279 60.137C14.729 73.099 26.132 98.074 47.683 92.269C53.312 90.752 57.287 87.754 60.041 83.933H51.732V83.935ZM19.548 60.315L34.864 56.28C34.864 56.28 34.417 62.172 28.675 63.685C22.932 65.197 19.547 60.314 19.547 60.314L19.548 60.315Z" fill="#F05353"/>
</svg>
