<svg width="65" height="65" viewBox="0 0 65 65" fill="none" xmlns="http://www.w3.org/2000/svg">
<g clip-path="url(#clip0_26_740)">
<path d="M32.0203 37.7409C35.1683 37.741 37.7204 35.1892 37.7206 32.0411C37.7207 28.8931 35.1689 26.341 32.0208 26.3409C28.8728 26.3407 26.3207 28.8926 26.3206 32.0406C26.3204 35.1886 28.8723 37.7407 32.0203 37.7409Z" fill="#F05353"/>
<path d="M53.671 22.6419C52.571 22.2419 51.4211 21.8418 50.2211 21.4917C50.5211 20.2918 50.7712 19.0918 50.9712 17.9418C52.0216 11.3418 50.8718 6.69178 47.6719 4.89162C46.7219 4.34158 45.6719 4.09153 44.4719 4.09147C40.9719 4.0913 36.5218 6.69108 32.0216 11.0409C27.5218 6.69065 23.0719 4.09043 19.5719 4.09027C18.3719 4.09021 17.3219 4.34016 16.3719 4.89011C13.1718 6.73996 12.0216 11.3899 13.0712 17.94C13.2712 19.09 13.5211 20.29 13.8211 21.49C12.6211 21.8399 11.471 22.1899 10.371 22.6398C4.1209 25.0395 0.720745 28.3394 0.720566 32.0394C0.720387 35.7394 4.17023 39.0395 10.3701 41.4398C11.4701 41.8399 12.6201 42.2399 13.8201 42.59C13.52 43.79 13.2699 44.99 13.0699 46.14C12.0196 52.7399 13.1693 57.39 16.3693 59.1901C17.3192 59.7402 18.3692 59.9902 19.5692 59.9903C23.1192 59.9904 27.5693 57.3907 32.0196 53.0409C36.5193 57.3911 40.9692 59.9913 44.4692 59.9915C45.6692 59.9915 46.7192 59.7416 47.6693 59.1916C50.8693 57.3418 52.0196 52.6918 50.9699 46.1418C50.7699 44.9918 50.52 43.7918 50.2201 42.5917C51.4201 42.2418 52.5701 41.8919 53.6701 41.4419C59.9202 39.0422 63.3204 35.7424 63.3206 32.0424C63.3207 28.3424 59.9209 25.0422 53.671 22.6419ZM46.2718 7.39156C48.3217 8.59165 49.0215 12.2917 48.1713 17.5416C48.0212 18.5916 47.7712 19.6916 47.4711 20.8416C44.8711 20.2415 42.1212 19.8414 39.2212 19.5912C37.5213 17.1911 35.7714 15.041 34.0215 13.091C37.7217 9.44114 41.4718 6.94132 44.5218 6.94147C45.1718 6.9415 45.7718 7.09153 46.2718 7.39156ZM40.6703 37.0413C39.7702 38.6412 38.7202 40.2412 37.6201 41.8411C35.7701 41.991 33.9201 42.041 32.0201 42.0409C30.0701 42.0408 28.2201 41.9907 26.4201 41.8406C25.3202 40.2405 24.3202 38.6405 23.4203 37.0405C22.4704 35.3904 21.5705 33.6904 20.7706 32.0403C21.5706 30.3904 22.4707 28.6904 23.4208 27.0405C24.3209 25.4405 25.371 23.8405 26.471 22.2406C28.321 22.0907 30.171 22.0408 32.071 22.0409C34.021 22.041 35.871 22.0911 37.671 22.2411C38.771 23.8412 39.7709 25.4412 40.6708 27.0413C41.6207 28.6913 42.5206 30.3914 43.3206 32.0414C42.4705 33.6914 41.6204 35.3413 40.6703 37.0413ZM44.8204 35.3915C45.5703 37.1415 46.1702 38.8416 46.7202 40.5416C45.0201 40.9415 43.2201 41.2414 41.3201 41.4913C41.9202 40.5413 42.5702 39.5414 43.1203 38.4914C43.7203 37.4414 44.2704 36.3915 44.8204 35.3915ZM32.0197 48.9409C30.8198 47.6408 29.6699 46.2408 28.5699 44.7907C29.7199 44.8408 30.8699 44.8908 32.0199 44.8909C33.1699 44.8909 34.3199 44.841 35.47 44.791C34.3699 46.241 33.2198 47.6409 32.0197 48.9409ZM22.7201 41.4404C20.8201 41.1903 19.0201 40.8902 17.3202 40.4902C17.8702 38.8402 18.4703 37.0902 19.2204 35.3402C19.7704 36.3403 20.3203 37.3903 20.9203 38.3903C21.5202 39.4904 22.1202 40.4404 22.7201 41.4404ZM19.2207 28.6902C18.4708 26.9402 17.8709 25.2402 17.321 23.5402C19.021 23.1402 20.821 22.8403 22.721 22.5904C22.121 23.5404 21.4709 24.5404 20.9209 25.5903C20.3208 26.6403 19.7708 27.6903 19.2207 28.6902ZM32.0214 15.1409C33.2213 16.4409 34.3713 17.841 35.4712 19.291C34.3212 19.241 33.1712 19.1909 32.0212 19.1909C30.8712 19.1908 29.7212 19.2408 28.5712 19.2907C29.6713 17.8408 30.8213 16.4408 32.0214 15.1409ZM43.1209 25.6414L41.321 22.6413C43.221 22.8914 45.021 23.1915 46.721 23.5916C46.1709 25.2416 45.5708 26.9915 44.8207 28.7415C44.2708 27.6915 43.7208 26.6414 43.1209 25.6414ZM15.8713 17.5401C15.0215 12.29 15.7217 8.59008 17.7718 7.39018C18.2718 7.0902 18.8718 6.94023 19.5218 6.94026C22.5218 6.94041 26.2717 9.39059 30.0215 13.0908C28.2714 14.9907 26.5213 17.1906 24.8212 19.5905C21.9212 19.8404 19.1711 20.2902 16.5711 20.8401C16.2712 19.6901 16.0712 18.5901 15.8713 17.5401ZM3.52057 32.0395C3.52068 29.6895 6.3708 27.1896 11.3709 25.3399C12.3709 24.9399 13.4709 24.59 14.5709 24.29C15.3708 26.7901 16.3707 29.4401 17.5706 32.0902C16.3704 34.7401 15.3203 37.3401 14.5702 39.84C7.67029 37.8397 3.52043 34.8395 3.52057 32.0395ZM17.7694 56.6902C15.7194 55.4901 15.0196 51.79 15.8699 46.5401C16.0199 45.4901 16.27 44.3901 16.57 43.2401C19.17 43.8402 21.92 44.2404 24.82 44.4905C26.5198 46.8906 28.2697 49.0407 30.0197 50.9908C26.3195 54.6406 22.5694 57.1404 19.5194 57.1403C18.8694 57.1402 18.2694 56.9902 17.7694 56.6902ZM48.1699 46.5416C49.0196 51.7917 48.3194 55.4917 46.2694 56.6916C45.7694 56.9915 45.1694 57.1415 44.5194 57.1415C41.5194 57.1413 37.7695 54.6911 34.0197 50.991C35.7697 49.091 37.5198 46.8911 39.22 44.4912C42.12 44.2414 44.87 43.7915 47.47 43.2416C47.77 44.3916 47.9699 45.4916 48.1699 46.5416ZM52.6702 38.7419C51.6702 39.1418 50.5702 39.4918 49.4702 39.7917C48.6703 37.2917 47.6704 34.6416 46.4706 31.9916C47.6707 29.3416 48.7208 26.7417 49.4709 24.2417C56.3708 26.242 60.5207 29.2422 60.5206 32.0422C60.5205 34.3922 57.6203 36.8921 52.6702 38.7419Z" fill="#F05353"/>
</g>
<defs>
<clipPath id="clip0_26_740">
<rect width="64" height="64" fill="white" transform="translate(0.02211 0.0393066)"/>
</clipPath>
</defs>
</svg>
