<svg width="65" height="65" viewBox="0 0 65 65" fill="none" xmlns="http://www.w3.org/2000/svg">
<g clip-path="url(#clip0_26_722)">
<path d="M32.0235 12.8485C23.49 12.8481 18.1583 17.1128 16.0229 25.6462C19.2221 21.3809 22.9567 19.7815 27.2221 20.8482C29.6576 21.4554 31.398 23.2214 33.3254 25.1785C36.4623 28.3622 40.0931 32.0479 48.0226 32.0482C56.5556 32.0487 61.8878 27.7834 64.0232 19.248C60.8235 23.5159 57.0894 25.1152 52.8235 24.0485C50.3885 23.4409 48.6501 21.6753 46.7202 19.7182C43.5853 16.5345 39.9555 12.8489 32.0235 12.8485ZM16.0226 32.0467C7.48959 32.0463 2.15738 36.3115 0.0219682 44.8469C3.22117 40.5791 6.95525 38.9798 11.2212 40.0465C13.6567 40.6541 15.3971 42.4197 17.3245 44.3768C20.4613 47.5604 24.0922 51.2461 32.0217 51.2465C40.5547 51.2469 45.8869 46.9821 48.0223 38.4487C44.8226 42.7141 41.0885 44.3134 36.8225 43.2467C34.3876 42.6396 32.6492 40.8735 30.7193 38.9164C27.5844 35.7328 23.9546 32.0471 16.0226 32.0467Z" fill="#F05353"/>
</g>
<defs>
<clipPath id="clip0_26_722">
<rect width="64" height="64" fill="white" transform="translate(0.0221252 0.0458984)"/>
</clipPath>
</defs>
</svg>
