<svg width="120" height="120" viewBox="0 0 120 120" fill="none" xmlns="http://www.w3.org/2000/svg">
<path d="M55.3877 0.113534C56.9702 -0.0945788 58.642 0.0470884 60.2369 0.0470884C66.1455 0.0470884 71.9467 0.965888 77.6001 2.70727C84.8149 4.92975 91.5349 8.48303 97.4661 13.1577C104.736 18.8874 110.759 26.4027 114.625 34.8371C121.856 50.6171 121.803 69.7413 114.394 85.4549C109.604 95.615 101.919 104.119 92.6169 110.32C85.0273 115.38 76.1508 118.477 67.1196 119.573C55.624 120.969 43.1965 118.929 32.8625 113.622C13.4625 103.66 0.273468 83.6085 0.0125505 61.6347C-0.037662 57.3982 0.028193 53.1364 0.865537 48.9411C2.22941 42.1086 4.60738 35.504 8.17873 29.5089C12.042 23.0234 17.0321 17.3002 23.0077 12.686C30.0152 7.27494 38.1596 3.38285 46.7843 1.4028C48.8672 0.924679 50.9585 0.659711 53.0603 0.403449L53.7244 0.322575C54.2781 0.255024 54.8325 0.186586 55.3877 0.113534ZM35.3184 100.012C32.6468 100.299 29.8291 100.786 27.5362 102.289C28.0523 102.413 28.6439 102.29 29.1824 102.289C30.4757 102.287 31.7815 102.238 33.0735 102.295C36.3079 102.437 39.6779 102.955 42.8013 103.813C46.8003 104.911 50.3226 107.073 54.1753 108.53C58.2397 110.068 62.2856 110.545 66.5969 110.545C68.7695 110.545 70.9256 110.539 73.0322 109.945C71.9328 109.359 70.359 109.469 69.1411 109.224C66.4986 108.694 63.9005 108.047 61.3589 107.139C59.4882 106.47 57.6864 105.645 55.8928 104.803L54.7404 104.26C53.0756 103.477 51.4068 102.704 49.6856 102.052C45.1596 100.34 40.1443 99.4937 35.3184 100.012ZM39.3591 88.6276C34.065 88.6276 28.7105 89.5616 23.9444 91.9675C22.7896 92.5504 21.692 93.2449 20.6519 94.0146C20.3349 94.2492 19.7729 94.5507 19.6558 94.9585C19.5369 95.3723 19.9618 95.7189 20.2029 95.9836C21.3942 95.3476 22.5261 94.6745 23.7947 94.1917C31.9997 91.0699 41.9464 91.7243 50.1345 94.5867C54.2179 96.0142 57.9802 98.1489 61.9575 99.8231C66.4056 101.695 70.9488 102.909 75.7261 103.532C81.3611 104.266 87.7858 103.671 92.9367 101.124C94.7467 100.229 97.2598 98.8658 98.0251 96.8843C97.0799 96.967 96.2294 97.3727 95.3313 97.6523C93.9032 98.097 92.4581 98.4741 90.9912 98.7685C86.0194 99.7661 80.7324 99.972 75.7261 99.0666C71.0077 98.2133 66.6236 96.4995 62.2602 94.6966L61.7032 94.4661C61.332 94.3121 60.9608 94.1577 60.5894 94.0034L60.0323 93.7721C57.8031 92.8474 55.5654 91.9338 53.2773 91.1339C48.8325 89.5799 44.0689 88.6276 39.3591 88.6276ZM48.6379 7.17466C42.2917 8.57876 36.6066 11.3129 31.128 14.7598C27.9473 16.7607 24.9047 18.8107 22.1485 21.386C18.0496 25.2161 14.917 29.8712 12.1848 34.7336C9.36977 39.7433 7.56489 45.5819 6.69254 51.247C5.83679 56.8049 5.69581 62.6484 6.67608 68.2109C7.90148 75.1652 10.2339 81.691 13.9173 87.7268C15.1551 87.1478 16.0339 85.8276 17.0601 84.9383C19.1323 83.1427 21.3078 81.4784 23.6451 80.0422C24.5102 79.5106 25.399 79.0978 26.3389 78.7195C26.6934 78.5767 27.2731 78.4462 27.4399 78.0562C27.7051 77.4368 27.2147 76.3588 27.1304 75.717C26.8899 73.8815 26.7448 72.0147 26.7901 70.1625C26.9218 64.7681 27.9283 59.2986 29.8445 54.2495C31.2885 50.4451 33.4945 46.9909 36.1078 43.891C36.9946 42.8391 37.9372 41.86 38.9102 40.8887C39.4852 40.3147 40.1987 39.8235 40.5564 39.0871C38.68 39.0883 36.8033 39.6303 35.0191 40.1805C31.1752 41.3658 27.4308 43.1247 24.2437 45.6062C22.7899 46.7383 21.7252 48.2221 20.3503 49.4134C19.9286 49.779 19.1731 50.2688 18.5904 49.9931C17.7099 49.5766 17.8458 47.8412 17.7449 47.0436C17.357 43.9757 18.5173 40.0952 19.9919 37.4358C22.359 33.1667 26.7359 29.5215 31.8762 29.6488C34.0961 29.7037 36.0396 30.4762 38.1619 30.9805C37.6237 30.2147 36.9022 29.6566 36.2163 29.0289C34.5358 27.4909 32.6977 26.0862 30.679 25.0236C29.8668 24.5962 28.9923 24.3365 28.1348 24.0225C27.7036 23.8647 27.1607 23.6475 26.9984 23.1675C26.6981 22.2786 28.2961 21.4554 28.8831 21.0805C31.1522 19.6315 33.9345 18.4396 36.6653 18.3725C40.933 18.2675 45.1027 20.6393 46.8606 24.6753C47.4786 26.0941 47.6614 27.5944 47.7826 29.1086L47.8047 29.3927L47.8364 29.8191C47.8398 29.8665 47.8433 29.9139 47.8468 29.9613L47.8678 30.2458L47.8897 30.5301C49.23 29.4357 50.1727 27.8252 51.4814 26.6531C54.5423 23.9115 58.7312 22.6945 62.7058 23.9286C66.2977 25.0438 69.4196 27.5265 71.257 30.8304C71.7377 31.6948 73.0788 33.8075 72.1099 34.6684C71.3515 35.3425 70.3898 34.8172 69.5901 34.5377C68.9845 34.3261 68.3588 34.1918 67.7309 34.0675L67.3883 34.0003C67.2741 33.978 67.1599 33.9556 67.0459 33.9327C64.8711 33.496 62.3412 33.5413 60.1616 33.9252C58.7524 34.1733 57.3753 34.6756 55.9712 34.8837V35.1839C59.8105 35.2158 63.5244 37.4095 65.4187 40.7385C66.2035 42.1176 66.5954 43.6962 66.8961 45.2421C67.2678 47.1529 67.0065 49.2346 66.4853 51.0969C66.3105 51.7213 65.9932 52.7798 65.2477 52.9236C64.7208 53.0252 64.2733 52.4998 63.9725 52.1455C63.184 51.2169 62.4339 50.334 61.5085 49.532C59.1676 47.5034 56.6924 45.6322 54.1753 43.8278C52.8388 42.8698 51.375 41.6242 49.8352 41.0387C50.2682 42.0833 50.6923 43.0544 50.8396 44.1913C51.2727 47.5354 49.8749 50.683 47.7768 53.1986C47.1366 53.9664 46.4517 54.7396 45.6448 55.3361C45.3101 55.5835 44.8902 55.9066 44.4475 55.8366C43.0596 55.617 42.8944 53.5216 42.6816 52.448C41.9608 48.8119 42.2502 45.2006 43.2503 41.6392C42.3605 42.0911 41.7175 43.0799 41.1588 43.891C39.9296 45.6758 38.8632 47.5636 38.0984 49.5957C35.0527 57.6902 35.0821 67.171 39.0277 74.9636C39.4682 75.8338 40.1369 75.717 41.0054 75.717C41.1362 75.717 41.2673 75.7162 41.3984 75.715L41.792 75.711C42.5796 75.7027 43.3689 75.6992 44.1482 75.8035C44.5526 75.8575 45.1141 75.8093 45.4342 76.1078C45.8175 76.4654 45.6132 77.0785 45.5249 77.5185C45.2783 78.7486 45.1958 79.8666 45.1958 81.1214C46.834 80.8671 47.288 78.2367 47.8687 76.918C48.5267 75.4241 49.1963 73.9288 49.8051 72.4143C50.1044 71.67 50.5048 70.8377 50.3997 70.0124C50.2818 69.0848 49.6127 68.1013 49.1463 67.3102C48.2636 65.813 47.2603 64.2723 46.6105 62.6564C46.0911 61.3646 46.5748 59.7503 48.0395 59.2888C48.8473 59.0342 49.7092 59.5335 50.2349 60.1184C51.3373 61.3444 52.049 63.1689 52.8493 64.6079L59.0931 75.8671C59.6233 76.8206 60.1547 77.773 60.6972 78.7195C60.9089 79.0888 61.1242 79.6589 61.5578 79.8164C61.9439 79.9566 62.4714 79.7573 62.8555 79.6803C63.8525 79.4803 64.848 79.2644 65.8486 79.0834C67.0477 78.8664 68.8755 78.9071 69.7397 77.9689C68.4757 77.5679 67.0146 77.5916 65.699 77.682C64.9088 77.7363 64.0328 78.0195 63.3067 77.5572C62.226 76.8694 61.5076 75.2805 60.8464 74.2158C59.2162 71.5905 57.6803 68.9256 56.1192 66.2593L55.8694 65.8348L55.3673 64.9865C55.1166 64.5621 54.8679 64.1366 54.6267 63.7072C54.4402 63.3751 54.1638 62.9375 54.4309 62.5714C54.7115 62.1869 55.3231 62.1643 55.8753 62.1635L55.9848 62.1636C56.2018 62.1639 56.4051 62.164 56.5698 62.1423C58.7979 61.8487 61.057 61.6055 63.3044 61.6055C63.1295 60.996 62.6292 60.3071 62.7892 59.6545C63.1471 58.1944 65.2446 57.7376 66.2201 58.7853C66.875 59.4886 67.2556 60.4566 67.6816 61.3053C68.2439 62.4256 68.8841 63.5086 69.4862 64.6079C70.5401 66.5327 71.6911 68.4045 72.7749 70.3126C72.8643 70.47 72.9564 70.6266 73.0495 70.783L73.1895 71.0176C73.6574 71.8 74.1271 72.5877 74.3791 73.4652C70.6149 73.2927 67.7892 68.9163 66.1479 65.9591C66.017 66.4325 66.2298 66.8551 66.4 67.3102C66.7536 68.2552 67.1762 69.1552 67.7081 70.0124C68.4678 71.2365 69.3386 72.497 70.488 73.3858C72.5277 74.9628 75.2174 74.9715 77.6716 74.8029C79.2454 74.6947 81.2119 73.9771 82.76 74.4639C84.3055 74.95 84.9276 76.6572 84.0098 77.9687C83.3222 78.9511 82.4045 79.3221 81.2634 79.4701C82.0704 81.2039 83.1275 82.8129 83.8938 84.5743C84.213 85.3081 84.5457 86.4326 85.3106 86.8198C85.8199 87.0774 86.5495 86.8375 87.1001 86.8261C86.5475 85.3618 85.5129 84.1192 85.0048 82.6227C86.554 82.6937 88.0522 83.5033 89.4946 84.02C92.332 85.0364 95.1336 86.1476 97.9313 87.2689L99.2224 87.7869C100.373 88.2485 101.531 88.7055 102.664 89.2073C103.079 89.3909 103.654 89.8201 104.112 89.5559C104.486 89.3402 104.728 88.8259 104.959 88.4774C105.605 87.5025 106.189 86.4904 106.768 85.475C109.087 81.4085 110.788 76.9527 111.924 72.4143C115.672 57.4465 112.457 40.9314 103.451 28.4284C99.9907 23.6246 95.6391 19.4717 90.8415 16.0323C78.8352 7.42567 63.0834 3.97885 48.6379 7.17466ZM73.1819 81.8164C69.9991 82.6474 66.719 83.4007 63.4541 83.8236C63.8835 85.2878 64.9327 86.712 65.7008 88.0271C65.9977 88.5355 66.3154 89.2165 66.9022 89.4372C67.565 89.6864 68.366 89.282 68.9914 89.0779C68.7019 88.2844 68.2146 87.5702 67.8157 86.8261C67.6514 86.5192 67.3971 86.1559 67.5326 85.7916C67.7886 85.1031 68.8517 85.1437 69.4404 85.024C70.9919 84.7088 72.5273 84.3153 74.0798 84.0038C74.6518 83.8889 75.4483 83.5779 76.0231 83.7701C76.4535 83.9139 76.713 84.2691 76.9584 84.6395L77.0685 84.8065C77.2153 85.0289 77.3657 85.2461 77.5534 85.4158C78.181 85.9835 79.1197 86.0707 79.9165 86.2256C79.4302 85.1297 78.6221 84.1709 78.104 83.073C77.8027 82.4346 77.5552 81.4952 76.8956 81.1262C75.9871 80.6179 74.1106 81.5738 73.1819 81.8164ZM53.1277 74.516C52.9779 76.4193 52.395 77.9678 51.4814 79.6202C52.5283 79.7529 53.5961 79.8002 54.6243 80.0554C55.3949 80.2467 56.105 80.6115 56.8691 80.8212C56.4606 79.7016 55.7026 78.7027 55.1153 77.6686C54.5223 76.6248 53.9917 75.3564 53.1277 74.516Z" fill="#F05353"/>
</svg>
