<svg width="65" height="65" viewBox="0 0 65 65" fill="none" xmlns="http://www.w3.org/2000/svg">
<g clip-path="url(#clip0_26_732)">
<path d="M1.02712 32.0142L1.02561 63.2642L63.5256 63.2672L63.5286 0.767179L1.02863 0.76416L1.02712 32.0142ZM51.3922 29.5166C52.8892 29.8641 54.2497 30.647 55.3021 31.7668C55.8815 32.37 56.3852 33.0417 56.802 33.7669C56.802 33.8469 54.1019 35.6717 52.4569 36.6916C52.3969 36.7316 52.1569 36.4716 51.8919 36.0766C51.5916 35.5584 51.165 35.1248 50.6518 34.8161C50.1385 34.5074 49.5555 34.3338 48.957 34.3115C47.062 34.1814 45.842 35.1763 45.8519 36.8113C45.8362 37.2184 45.9294 37.6223 46.1218 37.9813C46.5368 38.8464 47.3118 39.3614 49.7417 40.4115C54.2166 42.3367 56.1316 43.6068 57.3215 45.4119C58.6514 47.4119 58.9462 50.642 58.0461 53.0319C57.046 55.6319 54.5959 57.3967 51.1309 57.9816C49.5483 58.1628 47.9493 58.1459 46.3709 57.9313C43.962 57.5405 41.7399 56.3934 40.026 54.656C39.4511 54.021 38.3311 52.366 38.4011 52.246C38.5837 52.1105 38.7759 51.9885 38.9762 51.881L41.2762 50.5611L43.0713 49.5212L43.4462 50.0762C44.0791 50.9815 44.8844 51.753 45.8161 52.3463C47.8161 53.3964 50.5461 53.2515 51.8961 52.0366C52.3494 51.5914 52.6322 51.0013 52.6953 50.3691C52.7584 49.7369 52.5977 49.1026 52.2413 48.5766C51.7413 47.8816 50.7414 47.2966 47.9464 46.0764C44.7215 44.6863 43.3315 43.8262 42.0616 42.4561C41.2688 41.552 40.6835 40.4854 40.3468 39.3311C40.0956 38.0123 40.0585 36.6616 40.237 35.3311C40.9021 32.2161 43.2372 30.0412 46.6472 29.3964C48.2265 29.201 49.8261 29.2449 51.3922 29.5266L51.3922 29.5166ZM36.7221 32.1359L36.722 34.6959L28.607 34.6955L28.6059 57.8105L22.8509 57.8102L22.852 34.6902L14.717 34.6898L14.7171 32.1898C14.6953 31.3292 14.7187 30.468 14.7872 29.6098C14.8172 29.5698 19.7872 29.5501 25.7872 29.5604L36.6922 29.5609L36.7221 32.1359Z" fill="#F05353"/>
</g>
<defs>
<clipPath id="clip0_26_732">
<rect width="64" height="64" fill="white" transform="translate(0.0286865 0.059082)"/>
</clipPath>
</defs>
</svg>
