<svg width="128" height="128" viewBox="0 0 128 128" fill="none" xmlns="http://www.w3.org/2000/svg">
<path d="M96.265 1.10203C94.8319 1.14323 93.4161 1.42726 92.078 1.94203C91.454 2.18203 90.561 2.66203 89.4 3.38003C88.5342 3.91529 87.659 4.43537 86.775 4.94003C85.6986 5.91418 84.6172 6.88286 83.531 7.84603C82.4867 8.90363 81.5674 10.0777 80.791 11.345C80.7717 11.3771 80.7599 11.4148 80.7563 11.4559C80.7527 11.4969 80.7573 11.5402 80.77 11.583C80.814 11.731 80.776 11.82 80.654 11.85C80.547 11.8773 80.4636 11.9147 80.422 11.954C79.8994 12.4745 79.5338 13.1315 79.367 13.85C79.297 14.13 79.184 14.412 79.025 14.694C78.8712 14.9476 78.7579 15.2236 78.689 15.512C78.619 15.867 78.55 16.224 78.482 16.579C78.4508 16.6967 78.394 16.806 78.3157 16.8991C78.2374 16.9923 78.1395 17.0671 78.029 17.118C71.7178 15.3143 65.1565 14.5427 58.599 14.833C58.3103 14.8451 58.0237 14.8876 57.744 14.96C57.464 15.035 57.185 15.117 56.908 15.206C49.9805 15.5592 43.1739 17.1623 36.817 19.938C36.3517 19.7384 35.9631 19.394 35.709 18.956L35.325 18.303C34.2858 16.8239 33.0906 15.4607 31.76 14.237C31.312 13.675 30.572 13.077 29.537 12.447C27.11 10.967 24.622 10.189 22.073 10.11L21.487 10.137C21.2232 10.149 20.9593 10.1151 20.707 10.037C19.9875 10.0131 19.278 10.2103 18.674 10.602L17.86 11.128C15.736 12.355 14.06 14.002 12.83 16.073C11.432 18.433 10.419 21.01 9.79 23.801C9.402 25.516 9.25 27.416 9.336 29.503C9.411 29.689 9.466 29.882 9.501 30.079C9.529 30.234 9.511 30.426 9.448 30.657C9.36224 30.9733 9.31754 31.2993 9.315 31.627C9.311 31.867 9.386 32.175 9.54 32.553C9.854 33.327 9.964 34.138 9.872 34.987C10.38 37.213 10.781 38.864 11.075 39.938C11.153 40.226 11.158 40.471 11.086 40.674L10.797 41.276C10.0868 41.9307 9.4739 42.6837 8.977 43.512C8.392 44.488 8.083 45.002 8.051 45.053C7.695 45.635 7.381 46.243 7.111 46.877C3.72664 52.5636 1.53104 58.8776 0.656999 65.437C0.374129 66.2014 0.25423 67.0165 0.304999 67.83C0.0581958 69.5155 -0.03885 71.2195 0.0149988 72.922L0.113999 75.985C0.134999 77.84 0.197999 79.113 0.304999 79.803C0.797029 82.9793 1.56323 86.107 2.595 89.151L2.915 89.701C3.86374 92.5999 5.0546 95.4138 6.475 98.113C7.201 99.49 7.758 100.428 8.147 100.923C9.09613 102.478 10.1363 103.976 11.262 105.408L12.026 106.434C12.476 107.037 12.991 107.584 13.565 108.08C14.17 108.815 14.772 109.55 15.372 110.287C16.3899 111.139 17.3843 112.018 18.354 112.924C19.323 113.828 20.2 114.544 20.984 115.07C22.6151 116.162 24.3032 117.166 26.041 118.078C27.2963 118.976 28.5782 119.835 29.885 120.656C30.697 121.245 31.646 121.746 32.731 122.16C34.953 123.01 37.008 123.696 38.899 124.217C39.599 124.409 40.539 124.79 41.719 125.361C41.798 125.4 41.8874 125.417 41.977 125.408C42.5333 125.354 43.0936 125.358 43.649 125.42C44.523 125.641 45.398 125.86 46.274 126.074C47.003 126.251 49.851 126.504 54.819 126.836C56.2002 126.929 57.5862 126.926 58.967 126.826C61.6885 126.966 64.4168 126.894 67.127 126.609C67.957 126.522 68.972 126.339 70.174 126.062C71.1836 125.832 72.1967 125.618 73.213 125.42C74.3055 125.016 75.4224 124.681 76.557 124.418C78.2905 123.677 80.0354 122.964 81.791 122.277C82.281 122.084 82.854 121.791 83.508 121.397C84.141 121.013 84.729 120.733 85.269 120.554C86.552 120.134 87.651 119.574 88.569 118.879C88.841 118.672 89.164 118.51 89.539 118.392C90.1238 118.207 90.6708 117.92 91.154 117.542C92.375 116.907 93.5499 116.186 94.67 115.386C95.7847 114.584 96.8736 113.747 97.935 112.876C99.8217 111.343 101.566 109.642 103.146 107.795C103.62 107.24 104.171 106.756 104.783 106.357C105.567 105.458 106.299 104.515 106.976 103.533C110.297 99.4453 113.001 94.8929 115.002 90.021C115.202 89.661 115.392 89.295 115.566 88.924C115.68 88.683 115.788 88.292 115.89 87.752C115.954 87.4092 116.061 87.0759 116.209 86.76C116.325 86.514 116.414 86.227 116.474 85.902C116.53 85.5997 116.636 85.3087 116.787 85.041C116.96 84.738 117.066 84.481 117.105 84.27C117.157 83.99 117.206 83.707 117.252 83.428C117.266 83.3527 117.247 83.2671 117.199 83.188C117.031 82.908 117.101 82.688 117.409 82.529C117.67 82.1641 117.798 81.7208 117.771 81.273C117.766 81.1839 117.785 81.0979 117.826 81.025C118.131 80.4652 118.292 79.8385 118.296 79.201C118.619 77.4 118.849 75.587 118.988 73.766C118.99 73.759 119.045 73.373 119.152 72.606C119.212 72.176 119.212 71.727 119.15 71.258C119.015 70.2099 118.998 69.1499 119.1 68.098C118.966 67.5701 118.956 67.0185 119.07 66.486C119.087 66.4045 119.078 66.3173 119.043 66.236C118.983 66.09 118.943 65.939 118.92 65.783C118.902 65.664 118.928 65.471 118.996 65.207C119.058 64.972 119.054 64.771 118.982 64.604C118.807 64.1824 118.711 63.7323 118.697 63.276C118.695 63.2144 118.716 63.1544 118.757 63.1083C118.798 63.0623 118.856 63.0339 118.917 63.029C120.015 62.9472 121.071 62.5752 121.977 61.951C122.622 61.5099 123.242 61.0335 123.834 60.524C124.546 60.1641 125.104 59.5574 125.402 58.817C125.654 58.477 125.892 58.131 126.117 57.777C126.16 57.71 126.175 57.6221 126.16 57.531C126.117 57.277 126.191 57.106 126.38 57.018C126.473 56.9766 126.544 56.9217 126.58 56.863C127.527 55.3477 127.983 53.5772 127.886 51.793C127.884 51.7067 127.902 51.6212 127.939 51.543C128.01 51.3932 128.019 51.2214 127.964 51.065L127.841 50.701C127.614 49.6348 127.206 48.6152 126.636 47.686C126.572 47.5778 126.483 47.4871 126.375 47.422C125.998 47.194 125.781 46.975 125.722 46.77C125.679 46.621 125.579 46.4949 125.445 46.418C124.641 45.9569 123.878 45.4276 123.164 44.836C122.908 44.622 122.267 44.396 121.24 44.153C120.776 44.161 120.313 44.143 119.851 44.1C119.173 44.038 118.715 44.016 118.476 44.032C117.49 44.0995 116.532 44.3865 115.672 44.872C114.874 45.1161 114.09 45.3995 113.32 45.721C113.286 45.735 113.249 45.736 113.214 45.7238C113.18 45.7117 113.151 45.6872 113.133 45.655C110.417 40.6012 106.983 35.968 102.937 31.9C102.707 31.67 102.654 31.397 102.781 31.085L104.451 26.97C105.623 23.906 106.381 20.648 106.726 17.195C107.062 13.833 106.654 10.626 105.506 7.57803C105.417 7.38211 105.31 7.19468 105.187 7.01803C104.005 4.71503 102.3 2.98103 100.074 1.81603H100.072C99.3411 1.43282 98.5398 1.20248 97.717 1.13903C97.2341 1.10003 96.7493 1.08735 96.265 1.10103V1.10203ZM95.598 2.93603C95.678 2.93703 95.76 2.94103 95.84 2.94403C96.3139 2.96333 96.7851 3.02491 97.248 3.12803C97.5545 3.19757 97.8564 3.28608 98.152 3.39303C97.409 3.12533 96.6292 2.97389 95.84 2.94403C95.7594 2.94019 95.6787 2.93752 95.598 2.93603ZM102.254 6.29403C102.272 6.3627 102.282 6.43311 102.285 6.50403C102.284 6.55885 102.272 6.61293 102.25 6.66303C102.228 6.70865 102.193 6.74688 102.15 6.77303C102.14 6.77903 102.127 6.78403 102.115 6.79003C102.103 6.79603 102.09 6.80303 102.075 6.80703C102.09 6.80303 102.102 6.79603 102.115 6.79003C102.127 6.78403 102.14 6.78003 102.15 6.77303C102.193 6.74688 102.228 6.70865 102.25 6.66303C102.261 6.64052 102.27 6.61566 102.275 6.59103C102.288 6.52982 102.289 6.46651 102.277 6.40503C102.272 6.36761 102.264 6.33054 102.254 6.29403ZM93.782 7.68503C93.5115 7.68793 93.2412 7.70295 92.972 7.73003C92.9723 7.73003 92.9717 7.73003 92.972 7.73003C93.238 7.70203 93.507 7.68703 93.781 7.68403L93.782 7.68503ZM94.619 7.71403C95.1869 7.75714 95.7495 7.85424 96.299 8.00403C97.3481 8.28972 98.3237 8.79713 99.16 9.49203C99.16 9.49236 99.16 9.4927 99.16 9.49303C98.3236 8.79826 97.3481 8.29086 96.299 8.00503C95.7495 7.85495 95.187 7.75751 94.619 7.71403ZM88.607 9.56703C87.917 10.127 87.232 10.696 86.551 11.27C85.6909 11.991 84.9219 12.814 84.261 13.721C83.6027 14.6317 83.0573 15.6189 82.637 16.661L81.557 19.389L82.635 16.661C83.066 15.6 83.608 14.621 84.261 13.721C84.9209 12.8136 85.6899 11.9898 86.549 11.268C87.23 10.694 87.917 10.127 88.607 9.56703ZM94.252 9.11603C95.534 9.09003 96.709 9.45403 97.775 10.208C98.148 10.47 98.445 10.837 98.665 11.309C99.2754 12.5998 99.7571 13.9477 100.103 15.333L100.343 17.264C100.35 17.3279 100.392 17.41 100.461 17.494C100.662 17.744 100.669 18.013 100.481 18.3C100.163 18.78 100.067 19.348 100.195 20.005C100.218 20.1241 100.215 20.2465 100.186 20.3639C100.157 20.4813 100.102 20.5909 100.027 20.685C99.9344 20.7924 99.8743 20.9239 99.8539 21.0642C99.8336 21.2046 99.8537 21.3478 99.912 21.477C99.639 21.72 99.55 22.009 99.644 22.347L99.445 23.282L99.178 23.952C99.1716 24.0263 99.1406 24.0963 99.09 24.151L99.094 24.163L99.088 24.151C99.0394 24.2826 99.0222 24.4238 99.0378 24.5632C99.0534 24.7026 99.1015 24.8365 99.178 24.954C98.698 25.314 98.408 25.782 98.308 26.358H98.306C98.2223 26.6445 98.1991 26.9452 98.238 27.241C98.278 27.594 98.163 27.658 97.89 27.432C93.431 23.739 88.55 20.886 83.252 18.874C83.2319 18.866 83.2145 18.8543 83.2015 18.8402C83.1885 18.8261 83.1804 18.8102 83.178 18.794L83.17 18.735L84.508 16.661C86.37 13.671 88.839 11.381 91.916 9.78803C92.751 9.35603 93.529 9.13203 94.252 9.11603ZM22.319 11.921C21.716 11.983 21.348 12.015 21.217 12.012C21.347 12.015 21.716 11.983 22.319 11.921ZM100.211 12.044H100.221C100.221 12.0447 100.221 12.0454 100.221 12.046L100.211 12.044ZM23.143 12.825C23.1843 12.8211 23.224 12.8245 23.26 12.835C23.1869 12.8154 23.1011 12.825 23.018 12.862C23.0592 12.8429 23.1015 12.8304 23.143 12.825ZM101.344 13.059C101.427 13.108 101.478 13.164 101.494 13.229C101.509 13.294 101.493 13.369 101.441 13.45C101.491 13.369 101.509 13.293 101.494 13.229C101.478 13.163 101.427 13.108 101.344 13.06V13.059ZM24.844 13.106L24.92 13.114C24.938 13.121 24.956 13.125 24.973 13.132C24.956 13.125 24.938 13.122 24.92 13.116C24.895 13.114 24.87 13.108 24.844 13.106ZM27.495 13.513C27.505 13.518 27.518 13.521 27.53 13.526L27.541 13.528H27.53L27.495 13.513ZM105.818 14.636L105.804 14.686C105.808 14.669 105.812 14.652 105.818 14.636ZM101.039 15.055C100.991 15.232 101.048 15.402 101.207 15.565C101.047 15.401 100.99 15.232 101.039 15.055ZM105.795 15.106L105.801 15.136C105.895 15.523 105.975 15.916 106.041 16.311C106.04 16.311 106.04 16.311 106.039 16.311C105.974 15.9165 105.894 15.5245 105.799 15.136L105.795 15.106ZM79.893 15.257C79.9162 15.3047 79.9466 15.3485 79.983 15.387C80.084 15.492 80.219 15.512 80.385 15.448C80.219 15.512 80.085 15.492 79.982 15.388C79.9455 15.3492 79.9161 15.305 79.893 15.257ZM80.625 15.421C80.6277 15.421 80.6304 15.421 80.633 15.421C80.663 15.428 80.691 15.44 80.721 15.448C80.691 15.44 80.662 15.43 80.633 15.423C80.6304 15.4223 80.6277 15.4217 80.625 15.421ZM64.246 15.774C64.1659 15.7712 64.0856 15.7746 64.006 15.784C64.084 15.774 64.163 15.77 64.246 15.774ZM104.986 16.516C105.065 16.559 105.112 16.611 105.126 16.673C105.142 16.733 105.126 16.803 105.078 16.882C105.126 16.802 105.142 16.734 105.127 16.672C105.112 16.612 105.064 16.559 104.986 16.516ZM104.609 16.762C104.505 16.9 104.424 17.094 104.363 17.342C104.423 17.094 104.505 16.9 104.609 16.762ZM48.198 17.196C47.879 17.251 46.678 17.601 44.594 18.245C46.679 17.601 47.88 17.251 48.197 17.196H48.198ZM105.621 17.204C105.64 17.2007 105.659 17.2014 105.677 17.206C105.602 17.188 105.508 17.239 105.394 17.364C105.481 17.269 105.557 17.216 105.621 17.204ZM105.683 17.206C105.758 17.227 105.812 17.321 105.847 17.487C105.895 17.714 105.914 17.938 105.904 18.157C105.894 18.376 105.856 18.591 105.789 18.802C105.8 19.5969 105.687 20.3887 105.455 21.149C105.409 21.302 105.263 21.576 105.021 21.966C105.264 21.576 105.408 21.303 105.455 21.149C105.687 20.391 105.797 19.609 105.789 18.802C105.924 18.3765 105.944 17.9228 105.847 17.487C105.812 17.321 105.757 17.227 105.683 17.206ZM79.123 17.388C79.1127 17.4066 79.0995 17.4235 79.084 17.438C79.07 17.4506 79.0535 17.4599 79.0355 17.4654C79.0176 17.471 78.9986 17.4725 78.98 17.47C78.966 17.468 78.953 17.462 78.937 17.456C78.952 17.462 78.967 17.468 78.98 17.47C78.9986 17.4725 79.0176 17.471 79.0355 17.4654C79.0535 17.4599 79.07 17.4506 79.084 17.438C79.0995 17.4235 79.1127 17.4066 79.123 17.388ZM78.158 17.347C78.1777 17.4827 78.1524 17.6211 78.086 17.741C78.1184 17.6799 78.1413 17.6141 78.154 17.546C78.1662 17.48 78.1676 17.4135 78.158 17.347ZM60.973 17.493L61.006 17.495L60.938 17.497C60.949 17.497 60.961 17.493 60.973 17.493ZM58.299 17.514C58.31 17.514 58.321 17.517 58.332 17.516L58.266 17.518C58.276 17.518 58.288 17.515 58.299 17.514ZM62.012 17.538C62.022 17.538 62.032 17.538 62.043 17.54H62.045V17.542L62.012 17.538ZM59.94 17.581L59.904 17.587L59.884 17.585H59.902L59.94 17.581ZM55.22 17.596C55.1662 17.6947 55.0973 17.7844 55.016 17.862C54.876 17.987 54.732 18.007 54.58 17.922C54.732 18.007 54.877 17.987 55.016 17.862C55.086 17.8 55.154 17.712 55.22 17.596ZM64.936 17.647H65L64.936 17.649V17.647ZM58.045 17.83C57.4929 17.8979 56.9432 17.9846 56.397 18.09C56.6966 18.0436 56.9953 17.9916 57.293 17.934C57.543 17.895 57.794 17.861 58.045 17.83ZM77.955 17.93C78.318 18.076 78.677 18.233 79.033 18.4C79.256 18.438 79.469 18.491 79.67 18.555C79.4614 18.4888 79.2486 18.4377 79.033 18.4C78.6779 18.234 78.3185 18.0767 77.955 17.93ZM49.694 18.01C49.6957 18.01 49.6973 18.01 49.699 18.01C49.6973 18.0107 49.6957 18.0113 49.694 18.012C49.694 18.0114 49.694 18.0107 49.694 18.01ZM49.904 18.01C49.906 18.01 49.908 18.01 49.91 18.01C50.067 18.115 50.237 18.183 50.42 18.214L50.473 18.208L50.423 18.215C50.2394 18.185 50.0644 18.1158 49.91 18.012C49.9083 18.0113 49.9057 18.0107 49.904 18.01ZM64.012 18.143C64.022 18.152 64.027 18.161 64.027 18.171C64.027 18.181 64.023 18.191 64.012 18.201C64.022 18.19 64.027 18.18 64.027 18.171C64.027 18.161 64.023 18.151 64.012 18.143ZM67.25 18.225C67.27 18.23 67.29 18.238 67.309 18.245C67.29 18.238 67.271 18.23 67.25 18.225ZM47.128 20.473C45.326 20.703 43.848 20.987 42.692 21.323C42.3367 21.425 41.9863 21.5435 41.642 21.678C41.634 21.682 41.63 21.681 41.622 21.684L41.642 21.678C41.9863 21.5435 42.3367 21.425 42.692 21.323C43.848 20.987 45.327 20.703 47.128 20.473ZM44.49 19.913C44.478 19.919 44.464 19.923 44.451 19.928C44.464 19.922 44.477 19.918 44.49 19.913ZM104.013 20.21C103.992 20.43 103.988 20.697 104.002 21.012L104 21.05V21.014C103.986 20.746 103.99 20.4774 104.013 20.21ZM43.09 20.499H43.104C43.0993 20.499 43.0947 20.499 43.09 20.499ZM23.174 21.046C23.2152 21.0468 23.258 21.0568 23.299 21.075C23.481 21.157 23.71 21.179 23.985 21.141C24.131 21.122 24.3 21.153 24.493 21.231C24.6455 21.2986 24.8052 21.3486 24.969 21.38C26.948 21.71 28.464 22.729 29.519 24.436C29.632 24.619 29.857 24.791 30.194 24.954L33.159 28.299L35.159 31.243C35.1825 31.2777 35.1959 31.3182 35.1979 31.3602C35.1998 31.4022 35.1902 31.444 35.17 31.481C34.9204 31.9561 34.5455 32.3538 34.086 32.631C34.0679 32.6415 34.0481 32.6488 34.028 32.6524C34.0078 32.6561 33.9877 32.656 33.969 32.6523C33.9502 32.6485 33.9331 32.6411 33.9188 32.6306C33.9046 32.6201 33.8934 32.6066 33.886 32.591L33.694 32.178C33.69 31.906 33.579 31.725 33.358 31.633C33.3216 31.6181 33.2807 31.6131 33.239 31.6187C33.1973 31.6243 33.1561 31.6402 33.119 31.665C32.309 32.195 32.318 32.74 33.147 33.303V33.305C33.213 33.353 33.239 33.424 33.225 33.516C33.1245 33.6077 33.0488 33.7233 33.005 33.852C33.006 33.862 33.01 33.872 33.012 33.883C33.01 33.873 33.005 33.863 33.002 33.853L31.785 34.983C31.7507 35.015 31.709 35.0381 31.6637 35.0503C31.6184 35.0624 31.5709 35.0632 31.5254 35.0526C31.48 35.042 31.4379 35.0203 31.4031 34.9895C31.3683 34.9587 31.3418 34.9197 31.326 34.876L30.893 33.661C30.8788 33.6219 30.8547 33.5881 30.8242 33.5646C30.7936 33.541 30.7582 33.5289 30.723 33.53C30.166 33.544 30.007 33.836 30.243 34.407C30.4573 34.9256 30.5742 35.4791 30.588 36.04C30.5907 36.1265 30.564 36.2117 30.512 36.282C29.9718 37.0366 29.3173 37.7022 28.572 38.255C28.5373 38.2809 28.4959 38.2949 28.4567 38.2942C28.4174 38.2934 28.3835 38.278 28.362 38.251C28.294 38.159 28.263 38.008 28.272 37.799C28.2741 37.7614 28.2673 37.7238 28.2522 37.6892C28.237 37.6547 28.214 37.6242 28.1849 37.6002C28.1557 37.5763 28.1214 37.5595 28.0846 37.5513C28.0478 37.5431 28.0095 37.5437 27.973 37.553C27.001 37.796 26.943 38.23 27.797 38.856L27.517 39.469L25.59 41.286C25.3885 41.054 25.25 40.774 25.188 40.473C25.1078 39.9954 24.9075 39.546 24.606 39.167C24.5962 39.1543 24.5835 39.1443 24.5689 39.1376C24.5543 39.131 24.5383 39.1281 24.5223 39.129C24.5064 39.13 24.4909 39.1349 24.4772 39.1433C24.4635 39.1517 24.4521 39.1632 24.444 39.177C24.3538 39.3133 24.2822 39.4609 24.231 39.616C24.191 39.739 24.121 39.886 24.021 40.053C23.86 40.326 23.951 40.504 24.297 40.589C24.3247 40.596 24.3496 40.6123 24.3682 40.6356C24.3868 40.6589 24.3983 40.6881 24.401 40.719L24.53 42.212C24.363 43.012 23.874 43.437 23.059 43.483C22.9959 42.94 22.7837 42.425 22.446 41.995C22.421 41.9641 22.3863 41.9427 22.348 41.9345C22.3096 41.9263 22.27 41.9318 22.236 41.95C21.921 42.116 21.875 42.386 22.096 42.762C22.249 43.34 22.413 43.916 22.59 44.487C22.114 44.967 21.534 45.188 20.85 45.155C20.3403 44.2085 19.9173 43.2178 19.586 42.195C19.3221 41.7277 19.1605 41.2096 19.112 40.675L18.822 40.005C18.6539 40.0559 18.4762 40.0672 18.303 40.038C18.1669 40.0106 18.0465 39.9318 17.967 39.818C17.898 39.718 17.813 39.484 17.713 39.112C17.6624 38.9186 17.6279 38.7212 17.61 38.522C17.628 38.725 17.663 38.922 17.713 39.112C17.813 39.484 17.897 39.72 17.967 39.818C18.0465 39.9318 18.1669 40.0106 18.303 40.038C18.445 40.07 18.618 40.057 18.822 40.005H18.825C18.7997 39.7264 18.7427 39.4517 18.655 39.186C18.5621 38.9282 18.5036 38.6592 18.481 38.386C18.414 37.0993 18.2245 35.8218 17.915 34.571C17.845 34.288 17.791 33.803 17.755 33.116C17.745 33.119 17.735 33.117 17.725 33.12L17.752 33.114C17.8028 32.6615 17.7537 32.2034 17.608 31.772C17.5804 31.6875 17.5742 31.5975 17.59 31.51C17.712 30.87 17.77 30.222 17.764 29.569C17.848 29.2016 17.7995 28.8162 17.627 28.481C17.6102 28.4474 17.6038 28.4092 17.6088 28.371C17.6138 28.3328 17.6298 28.2963 17.655 28.266C17.7305 28.1852 17.7867 28.0883 17.8196 27.9827C17.8525 27.8771 17.8612 27.7654 17.845 27.656C17.7947 27.3342 17.8317 27.0047 17.952 26.702C18.3416 25.7021 18.8192 24.7386 19.379 23.823C19.6817 23.3344 20.0829 22.9141 20.557 22.589C21.3591 22.0305 22.1954 21.5229 23.061 21.069C23.0943 21.0527 23.133 21.0449 23.174 21.046ZM28.842 21.089C29.014 21.321 29.192 21.549 29.375 21.77C29.191 21.55 29.015 21.322 28.842 21.089ZM56.778 21.126C57.13 21.098 57.457 21.239 57.758 21.55C58.3242 22.1345 58.7883 22.8099 59.131 23.548C59.161 23.614 59.215 23.681 59.291 23.748C59.482 23.924 59.62 24.192 59.703 24.553C59.816 25.043 60.018 25.505 60.311 25.943C60.3308 25.9737 60.3428 26.0087 60.3459 26.0451C60.349 26.0814 60.3432 26.118 60.3288 26.1516C60.3145 26.1851 60.2922 26.2147 60.2638 26.2376C60.2354 26.2605 60.2018 26.2761 60.166 26.283C59.696 26.367 59.342 26.244 59.106 25.915C58.9461 25.6886 58.7838 25.4639 58.619 25.241C57.6059 24.1831 56.8039 22.9415 56.256 21.583C56.2419 21.5478 56.2349 21.5101 56.2353 21.4723C56.2358 21.4344 56.2436 21.397 56.2585 21.3623C56.2734 21.3276 56.295 21.2963 56.322 21.2702C56.349 21.244 56.381 21.2236 56.416 21.21C56.539 21.163 56.66 21.135 56.778 21.126ZM38.918 21.844L38.885 21.862L38.86 21.87C38.87 21.867 38.873 21.863 38.883 21.86L38.918 21.844ZM38.43 22.132L38.428 22.137L38.426 22.135L38.43 22.132ZM36.557 22.411C36.6304 22.3966 36.7057 22.4029 36.7738 22.4292C36.8418 22.4555 36.8996 22.5006 36.94 22.559V22.561C36.8996 22.5026 36.8418 22.4575 36.7738 22.4312C36.7057 22.4049 36.6304 22.3986 36.557 22.413L35.221 22.68C35.1257 22.7026 35.0278 22.712 34.93 22.708C35 22.714 35.097 22.703 35.221 22.678L36.557 22.411ZM86.437 22.516C86.473 22.532 86.517 22.546 86.553 22.561C87.77 23.0817 88.9554 23.6734 90.103 24.333C90.567 24.6 91.701 25.282 93.506 26.376C92.3763 25.6868 91.2413 25.0065 90.101 24.335C89.5277 24.0047 88.9447 23.6912 88.353 23.395C87.7613 23.1001 87.161 22.8227 86.553 22.563C86.516 22.547 86.475 22.533 86.437 22.516ZM99.764 23.242C99.808 23.289 99.846 23.324 99.879 23.35C99.911 23.377 99.939 23.395 99.959 23.403C99.9299 23.3893 99.903 23.3714 99.879 23.35C99.8388 23.3164 99.8005 23.2797 99.764 23.242ZM29.803 23.266C29.914 23.284 30.062 23.364 30.246 23.505C30.062 23.365 29.914 23.284 29.803 23.266ZM39.094 23.434C39.164 23.582 39.231 23.73 39.319 23.868C39.548 24.314 39.795 24.75 40.039 25.188C39.795 24.75 39.546 24.315 39.317 23.868C39.229 23.73 39.164 23.581 39.094 23.434ZM30.248 23.504C30.323 23.56 30.398 23.611 30.475 23.661C31.151 24.085 31.635 24.5 31.928 24.903C31.635 24.5 31.15 24.087 30.475 23.663C30.3977 23.6128 30.322 23.5591 30.248 23.504ZM38.3616 23.5265C38.3987 23.535 38.4292 23.555 38.448 23.583V23.585C38.4297 23.5564 38.3988 23.5356 38.3616 23.5265ZM75.549 23.998C75.652 24.0208 75.7482 24.0674 75.83 24.134C76.028 24.284 76.172 24.558 76.262 24.954C76.822 27.462 77.099 28.734 77.094 28.768C77.034 29.196 77.119 29.582 77.348 29.928C77.3731 29.965 77.389 30.006 77.3943 30.0469C77.3995 30.0877 77.3939 30.1271 77.378 30.161C77.217 30.514 76.938 30.683 76.539 30.669C76.5001 30.6673 76.462 30.6533 76.4294 30.6287C76.3968 30.604 76.3709 30.5698 76.355 30.53C76.0736 29.8612 75.894 29.154 75.822 28.432C75.3401 27.3355 74.9455 26.2027 74.642 25.044C74.6208 24.9635 74.6164 24.8797 74.629 24.798C74.6415 24.7162 74.6708 24.6383 74.715 24.569C74.989 24.136 75.268 23.945 75.549 23.999V23.998ZM46.949 24.237C46.9755 24.234 47.0028 24.2372 47.0287 24.2464C47.0546 24.2556 47.0784 24.2706 47.098 24.29C47.624 24.801 48.092 25.364 48.5 25.981C48.679 26.251 48.965 26.648 49.364 27.171C49.665 27.563 49.918 27.988 50.121 28.448C50.383 29.044 50.205 29.178 49.586 28.85C49.1297 28.6112 48.7031 28.3195 48.315 27.981C47.879 27.605 47.262 26.746 46.459 25.405C46.4335 25.3625 46.4171 25.3178 46.4113 25.275C46.4055 25.2323 46.4106 25.193 46.426 25.161L46.828 24.323C46.8388 24.2997 46.8555 24.2798 46.8765 24.2648C46.8976 24.2498 46.9224 24.2403 46.949 24.237ZM99.154 24.268L99.162 24.278H99.16L99.154 24.268ZM38.41 24.614C38.4854 24.6503 38.5667 24.673 38.65 24.681C38.7241 24.6898 38.7938 24.7202 38.8502 24.7685C38.794 24.7204 38.7247 24.6909 38.651 24.682C38.5676 24.6739 38.4853 24.6509 38.41 24.614ZM11.737 24.722C11.638 25.102 11.459 26.267 11.211 28.124C11.46 26.251 11.636 25.117 11.737 24.722ZM40.4723 26.0385C40.4749 26.0771 40.4683 26.1143 40.453 26.147C40.387 26.274 40.301 26.343 40.2 26.357C40.301 26.343 40.385 26.274 40.451 26.147C40.4666 26.1145 40.4745 26.0771 40.4723 26.0385ZM101.285 26.239C101.512 26.4491 101.765 26.6296 102.037 26.776C101.913 26.6874 101.783 26.6072 101.648 26.536C101.521 26.4449 101.4 26.3457 101.285 26.239ZM33.244 26.741C33.349 26.943 33.453 27.202 33.557 27.518C33.585 27.6007 33.6364 27.6736 33.705 27.728C34.208 28.1261 34.5422 28.6993 34.641 29.333C34.5417 28.6992 34.2071 28.1261 33.704 27.728C33.6358 27.6735 33.5847 27.6006 33.557 27.518C33.4728 27.2514 33.3681 26.9916 33.244 26.741ZM99.142 26.716C99.1199 26.7992 99.0845 26.8783 99.037 26.95C99.0045 26.9961 98.9789 27.0466 98.961 27.1C98.9782 27.0467 99.0031 26.9961 99.035 26.95C99.0837 26.8787 99.1199 26.7995 99.142 26.716ZM66.69 28.077C66.7631 28.0814 66.8338 28.1049 66.895 28.145C66.9241 28.1644 66.9471 28.1953 66.9612 28.2344C66.9754 28.2735 66.9801 28.3191 66.975 28.366C66.925 28.793 67.015 29.156 67.246 29.46C67.604 29.932 67.788 30.179 67.799 30.2C67.967 30.577 68.106 31.042 68.215 31.593C68.247 31.757 68.315 31.901 68.42 32.028C68.807 32.49 69.022 33.003 69.066 33.569C69.086 33.829 68.982 33.897 68.754 33.77C68.5529 33.6623 68.3919 33.4926 68.295 33.286C68.2066 33.0926 68.1133 32.9016 68.015 32.713C67.7897 32.3654 67.5883 32.0029 67.412 31.628C66.7047 30.615 66.2614 29.4416 66.122 28.214C66.1197 28.1946 66.1214 28.1746 66.127 28.1558C66.1326 28.1371 66.1418 28.1204 66.1539 28.1072C66.166 28.094 66.1804 28.0849 66.1958 28.0806C66.2113 28.0764 66.2272 28.0772 66.242 28.083L66.322 28.118C66.3499 28.1287 66.3774 28.1348 66.4025 28.1358C66.4276 28.1369 66.4496 28.1328 66.467 28.124C66.5364 28.0903 66.6129 28.0742 66.69 28.077ZM11.196 28.231V28.233H11.186L11.196 28.231ZM76.67 29.374C76.625 29.377 76.53 29.444 76.387 29.575C76.3561 29.6034 76.335 29.6409 76.327 29.682C76.312 29.78 76.358 29.812 76.463 29.774C76.4974 29.762 76.5303 29.7411 76.5595 29.7126C76.5887 29.684 76.6137 29.6485 76.633 29.608C76.709 29.448 76.721 29.37 76.67 29.374ZM101.543 30.776C101.551 30.7836 101.561 30.7894 101.572 30.7931C101.583 30.7967 101.594 30.7981 101.605 30.7971C101.617 30.7962 101.627 30.793 101.637 30.7876C101.647 30.7822 101.655 30.7749 101.662 30.766L101.672 30.751C101.668 30.756 101.668 30.761 101.664 30.766C101.663 30.766 101.663 30.766 101.662 30.766C101.655 30.7749 101.647 30.7822 101.637 30.7876C101.627 30.793 101.617 30.7962 101.605 30.7971C101.594 30.7981 101.583 30.7967 101.572 30.7931C101.561 30.7894 101.551 30.7836 101.543 30.776ZM34.815 30.171C35.002 30.179 35.155 30.205 35.278 30.251C35.1288 30.2004 34.9726 30.1734 34.815 30.171ZM57.276 30.495C57.723 30.476 58.11 30.777 58.438 31.397C58.56 31.629 58.732 31.817 58.951 31.96C59.113 32.067 59.157 32.23 59.081 32.45C59.0383 32.5742 59.0328 32.7081 59.0654 32.8349C59.0979 32.9617 59.167 33.0758 59.264 33.163C60.141 33.946 60.638 34.706 60.756 35.442C60.801 35.717 60.712 35.772 60.488 35.606C59.33 34.7478 58.2534 33.7847 57.272 32.729C57.2143 32.6683 57.1765 32.5879 57.164 32.499C57.091 32.019 56.841 31.635 56.416 31.342C56.3783 31.3162 56.3473 31.2818 56.3255 31.2416C56.3037 31.2015 56.2917 31.1568 56.2905 31.1111C56.2894 31.0654 56.299 31.0201 56.3188 30.9789C56.3385 30.9377 56.3677 30.9018 56.404 30.874C56.716 30.633 57.007 30.506 57.276 30.494V30.495ZM35.467 31.532L35.471 31.542C35.4703 31.542 35.4697 31.542 35.469 31.542C35.467 31.539 35.469 31.535 35.467 31.532ZM17.17 33.946H17.172L17.17 33.95V33.946ZM101.306 34.991C101.391 34.9873 101.475 35.015 101.543 35.069C102.843 36.116 103.469 37.433 103.423 39.02C103.399 39.82 103.191 40.427 102.803 40.846C102.417 41.26 101.921 41.434 101.313 41.366C100.845 41.314 100.419 41.09 100.035 40.69C98.756 39.363 98.645 37.794 99.701 35.983C100.065 35.359 100.601 35.028 101.306 34.991ZM77.967 35.952V35.96L77.687 36.874L77.965 35.96C77.965 35.956 77.965 35.955 77.967 35.952ZM17.767 36.132C17.7714 36.1363 17.7758 36.1406 17.78 36.145C17.7755 36.1402 17.7708 36.1356 17.766 36.131L17.767 36.132ZM105.135 36.385C105.569 36.898 106.006 37.445 106.445 38.025C107.257 39.1 108.082 40.165 108.918 41.223C109.326 41.785 109.669 42.288 109.951 42.731C109.622 42.2185 109.276 41.7163 108.916 41.225C108.08 40.1686 107.255 39.1028 106.443 38.028C106.023 37.4681 105.586 36.9203 105.135 36.385ZM83.381 37.128C83.859 37.134 84.337 37.188 84.816 37.286C85.296 37.384 85.776 37.529 86.258 37.719L88.666 38.409C89.64 38.634 90.576 38.969 91.475 39.413C92.466 39.805 93.397 40.3 94.264 40.897C94.866 41.313 95.691 41.959 96.74 42.835C99.0598 44.7769 101.038 47.0932 102.594 49.688C102.629 49.7462 102.697 49.7819 102.785 49.7877C102.872 49.7934 102.971 49.7688 103.062 49.719C103.353 49.56 103.662 49.449 103.988 49.389C104.313 49.331 104.428 49.403 104.336 49.604C104.323 49.6308 104.299 49.659 104.265 49.6866C104.231 49.7142 104.189 49.7406 104.14 49.764L103.158 50.233C103.126 50.2496 103.102 50.2787 103.09 50.3149C103.077 50.3512 103.078 50.3921 103.092 50.43C103.357 51.1321 103.719 51.7936 104.168 52.395C105.229 54.8575 106.026 57.4251 106.548 60.055C106.562 60.1256 106.55 60.2128 106.512 60.303C106.394 60.581 106.404 61.037 106.542 61.668C106.569 61.791 106.586 61.916 106.594 62.043C106.614 62.457 106.666 62.873 106.752 63.289C106.817 63.616 106.827 63.925 106.781 64.217C106.704 64.701 106.663 65.014 106.658 65.155C106.35 73.274 103.256 79.989 97.377 85.303C93.435 88.867 88.759 91.054 83.347 91.865C83.331 91.868 83.138 91.922 82.769 92.029C82.5505 92.0911 82.3186 92.0876 82.102 92.019C82.0194 91.9926 81.9316 91.986 81.846 92C79.98 92.321 78.284 92.357 76.76 92.11C76.062 91.995 75.51 91.962 75.104 92.008C75.0177 92.0198 74.9299 92.0077 74.85 91.973C74.0008 91.6032 73.109 91.3402 72.195 91.19C71.4562 90.831 70.7018 90.505 69.934 90.213C67.2925 89.2124 64.8604 87.7288 62.762 85.838C58.734 82.218 55.938 77.668 54.373 72.188C54.3479 72.0999 54.3314 72.0094 54.324 71.918C54.257 71.008 54.119 70.296 53.912 69.785C53.7561 69.3964 53.66 68.9864 53.627 68.569L53.687 67.766C53.737 67.112 53.367 66.776 52.574 66.76C52.254 66.755 52.241 66.69 52.537 66.567C52.823 66.447 53.136 66.501 53.477 66.727C53.582 66.797 53.63 66.773 53.619 66.653L53.426 64.633C53.4242 64.6 53.4105 64.5648 53.3861 64.5304C53.3617 64.4961 53.3273 64.4637 53.286 64.436C53.071 64.292 53.071 64.146 53.286 64C53.3627 63.9467 53.4177 63.8788 53.442 63.807C53.59 63.334 53.645 62.847 53.606 62.347V61.811C53.601 61.811 53.599 61.808 53.594 61.807L53.606 61.809C53.8202 60.5753 54.1558 59.3657 54.608 58.198C55.0484 55.6839 55.9155 53.2637 57.172 51.042C57.406 50.933 57.469 50.757 57.362 50.516L58.422 49.168C59.4049 47.4062 60.7047 45.8409 62.256 44.551V44.553L64.051 43.293C64.1382 43.2426 64.2106 43.1702 64.261 43.083C64.776 42.787 65.301 42.513 65.84 42.263C66.4785 41.6289 67.212 41.0982 68.014 40.69C69.794 40.023 71.554 39.31 73.297 38.55C73.992 38.4824 74.6785 38.345 75.346 38.14C77.929 37.347 80.474 37.123 82.98 37.464C84.325 37.647 85.418 37.732 86.258 37.719C85.7909 37.5328 85.3084 37.3879 84.816 37.286C84.3438 37.188 83.8633 37.1351 83.381 37.128ZM51.081 37.27C51.117 37.2763 51.1525 37.2904 51.1851 37.3113C51.2177 37.3321 51.2467 37.3593 51.27 37.391C51.9806 38.3667 52.7469 39.3005 53.565 40.188C53.87 40.448 54.159 40.728 54.43 41.024C54.637 41.247 54.736 41.454 54.727 41.645C54.712 41.927 54.52 42.089 54.149 42.133C54.0673 42.1441 53.9805 42.1236 53.904 42.075C53.139 41.595 52.302 40.843 51.393 39.819C50.831 39.189 50.455 38.629 50.266 38.139C50.248 38.0928 50.2404 38.0454 50.2441 38.0029C50.2479 37.9605 50.2628 37.925 50.287 37.901L50.889 37.323C50.9132 37.3 50.9427 37.2833 50.9756 37.2742C51.0086 37.265 51.0451 37.2636 51.081 37.27ZM68.498 39.774C68.633 39.764 68.773 39.764 68.918 39.774C68.338 39.734 67.837 39.853 67.414 40.124C67.4107 40.1247 67.4073 40.1254 67.404 40.126C67.4073 40.1247 67.4107 40.1234 67.414 40.122C67.74 39.916 68.113 39.7962 68.498 39.774ZM66.725 40.208C66.6599 40.2073 66.5947 40.2107 66.53 40.218C66.59 40.21 66.655 40.208 66.725 40.208ZM40.473 40.503C40.716 40.466 41.023 40.673 41.391 41.126C41.607 41.527 41.898 41.848 42.262 42.088C42.719 42.392 42.951 42.546 42.959 42.553C43.623 43.076 44.283 43.603 44.938 44.135C45.116 44.221 45.258 44.377 45.369 44.602C45.3873 44.6399 45.3955 44.6818 45.3928 44.7237C45.3901 44.7656 45.3767 44.8062 45.3537 44.8414C45.3308 44.8766 45.2992 44.9052 45.2619 44.9246C45.2246 44.944 45.183 44.9535 45.141 44.952C43.944 44.9 43.025 44.382 42.385 43.395C42.3381 43.3241 42.2673 43.2706 42.184 43.243C41.5285 43.0371 40.9793 42.5837 40.653 41.979C40.6132 41.9069 40.5435 41.8523 40.459 41.827C40.2895 41.7745 40.133 41.6865 40 41.569C39.9699 41.5423 39.9476 41.5072 39.9353 41.4674C39.923 41.4275 39.9212 41.3843 39.93 41.342C40.049 40.818 40.23 40.54 40.473 40.503ZM65.342 42.043C65.2802 42.0945 65.1948 42.1196 65.104 42.113C64.78 42.09 64.549 42.157 64.408 42.319C64.548 42.158 64.782 42.088 65.106 42.112C65.1957 42.1187 65.2803 42.0933 65.342 42.043ZM12.02 43.495C11.7917 43.8008 11.5389 44.0874 11.264 44.352C11.2128 44.8495 10.9913 45.314 10.637 45.667C10.635 45.6694 10.633 45.6717 10.631 45.674C10.6323 45.6707 10.6336 45.6674 10.635 45.664C10.995 45.304 11.203 44.867 11.265 44.352C11.539 44.087 11.792 43.802 12.02 43.495ZM61.309 43.685C61.349 43.72 61.372 43.762 61.381 43.813C61.3891 43.8731 61.3823 43.9343 61.361 43.991C61.318 44.122 61.213 44.284 61.049 44.475C61.211 44.285 61.318 44.121 61.361 43.991C61.3823 43.9343 61.3891 43.8731 61.381 43.813C61.373 43.7629 61.3475 43.7172 61.309 43.684V43.685ZM60.408 44.425C60.532 44.545 60.647 44.611 60.752 44.622C60.647 44.612 60.532 44.547 60.408 44.425ZM12.842 44.512C13.156 45.353 13.561 46.142 14.106 46.854C13.561 46.144 13.156 45.354 12.842 44.512ZM119.466 45.184C121.216 45.076 122.654 45.732 123.781 47.151C123.838 47.172 123.864 47.221 123.859 47.295L124.906 48.049C125.122 48.205 125.1 48.289 124.841 48.301C124.153 48.336 124.201 48.63 124.986 49.184C125.221 49.352 125.388 49.571 125.486 49.842C125.687 50.404 125.774 51.087 125.746 51.892C125.742 51.9734 125.771 52.0587 125.826 52.133C126.033 52.407 125.909 52.515 125.455 52.457C125.471 52.5079 125.497 52.5549 125.532 52.595C125.567 52.6352 125.61 52.6675 125.658 52.69C125.699 52.708 125.738 52.7309 125.773 52.758C125.889 52.871 125.853 52.924 125.666 52.914C125.741 53.414 125.724 53.906 125.616 54.391C125.613 54.4047 125.607 54.4174 125.598 54.4281C125.589 54.4388 125.577 54.4472 125.563 54.4527C125.549 54.4582 125.534 54.4607 125.519 54.4599C125.503 54.459 125.488 54.455 125.474 54.448C125.314 54.366 125.181 54.382 125.076 54.497C125.053 54.5228 125.041 54.558 125.042 54.5969C125.044 54.6357 125.057 54.676 125.082 54.711C125.544 55.377 125.418 55.96 124.707 56.459C124.68 56.845 124.569 56.89 124.373 56.594C123.827 57.024 123.856 57.167 124.463 57.024C124.511 57.0129 124.558 57.0103 124.598 57.0165C124.637 57.0228 124.668 57.0376 124.685 57.059C124.713 57.095 124.727 57.139 124.728 57.194C125.178 57.376 125.342 57.664 125.218 58.057C125.206 58.0953 125.18 58.1275 125.146 58.1469C125.112 58.1663 125.072 58.1714 125.035 58.161L124.183 57.921L123.301 58.987C123.244 59.0557 123.164 59.0988 123.078 59.107C122.743 59.145 122.595 59.266 122.635 59.469C122.809 59.646 122.86 59.834 122.787 60.036C122.775 60.0689 122.751 60.0982 122.717 60.1208C122.684 60.1435 122.642 60.1584 122.597 60.164C122.428 60.1892 122.266 60.2484 122.121 60.338C121.983 60.57 121.757 60.748 121.441 60.873C121.125 60.998 120.631 61.266 119.959 61.676C119.731 61.906 119.444 62.015 119.099 62L118.045 61.994C117.731 61.994 117.369 61.909 116.959 61.743L114.099 60.59C113.862 60.494 113.5 60.253 113.014 59.87C110.827 58.149 109.969 55.886 110.441 53.082C110.442 53.072 110.451 52.958 110.463 52.741C110.473 52.542 110.563 52.377 110.728 52.245L110.949 51.845C110.937 51.413 111.109 51.077 111.463 50.84C111.455 50.739 111.47 50.6375 111.507 50.543C111.544 50.4486 111.602 50.3638 111.676 50.295C111.776 50.205 111.852 50.0914 111.896 49.9646C111.941 49.8378 111.953 49.7018 111.932 49.569C111.857 49.345 111.727 49.266 111.542 49.329C111.518 49.3382 111.491 49.36 111.465 49.3927C111.439 49.4253 111.414 49.4677 111.392 49.516L111.002 50.381C110.984 50.4176 110.957 50.45 110.921 50.4755C110.885 50.5011 110.842 50.5191 110.795 50.528C110.642 50.558 110.583 50.488 110.621 50.321C110.744 49.783 111.038 49.338 111.501 48.981C111.531 48.9573 111.567 48.9398 111.609 48.9297C111.65 48.9196 111.695 48.917 111.742 48.922C112.095 48.96 112.382 48.842 112.602 48.567C112.91 47.9844 113.373 47.4979 113.939 47.161C115.244 45.886 116.829 45.259 118.697 45.278H118.699C118.953 45.2321 119.208 45.2007 119.466 45.184ZM10.532 45.885C10.532 45.887 10.532 45.889 10.532 45.891L10.606 46.481L10.53 45.889C10.5307 45.8877 10.5313 45.8864 10.532 45.885ZM79.787 46.545C79.4752 46.5385 79.1635 46.5582 78.855 46.604C75.954 47.027 73.432 48.066 71.289 49.719C70.353 50.443 69.839 51.431 69.746 52.682C69.712 53.137 69.828 53.522 70.092 53.84C70.4215 54.2363 70.8412 54.5477 71.316 54.748C72.034 55.058 72.778 55.248 73.549 55.315L74.563 55.485C74.913 55.543 75.264 55.512 75.621 55.389C75.826 55.318 76.473 55.335 77.561 55.442C77.5991 55.4459 77.6347 55.4623 77.6617 55.4886C77.6886 55.5148 77.7054 55.5492 77.709 55.586C77.817 56.724 77.989 57.855 78.225 58.975C78.291 59.292 78.325 59.715 78.325 60.245C78.322 60.678 78.375 61.107 78.482 61.532C78.4895 61.5618 78.5065 61.5941 78.5321 61.6273C78.5576 61.6604 78.5913 61.6936 78.631 61.725L78.911 61.944C78.9113 62.0052 78.8985 62.0658 78.8735 62.1217C78.8485 62.1776 78.8118 62.2275 78.766 62.268C78.571 62.505 78.53 62.758 78.641 63.028C78.6757 63.1084 78.6954 63.1945 78.699 63.282C78.701 64.136 78.897 64.937 79.287 65.686C79.2934 65.6991 79.2966 65.7134 79.2965 65.7279C79.2963 65.7424 79.2928 65.7566 79.2861 65.7693C79.2795 65.782 79.2699 65.7929 79.2582 65.801C79.2465 65.8092 79.2331 65.8143 79.219 65.816C77.651 65.966 76.831 66.034 76.759 66.024C76.2124 65.9357 75.6519 66.0048 75.143 66.223V66.225L75.02 66.237V66.235C74.5591 65.9968 74.0364 65.9053 73.522 65.973C73.092 66.031 72.752 66.036 72.504 65.989C71.6153 65.8216 70.7189 65.6978 69.818 65.618C69.7314 65.6087 69.6487 65.577 69.578 65.526C69.154 65.235 68.693 65.181 68.198 65.366L66.859 65.434V65.432C66.169 65.512 65.552 65.756 65.009 66.16C64.609 66.459 64.351 66.656 64.236 66.754C63.9822 66.9729 63.7768 67.2423 63.633 67.545C63.4185 67.9885 63.1746 68.4171 62.903 68.828C62.6248 69.236 62.4782 69.7193 62.483 70.213C62.485 70.564 62.54 71.029 62.653 71.606C62.773 72.235 63.043 72.805 63.459 73.315C63.469 73.365 63.492 73.409 63.526 73.447V73.449C63.586 73.747 63.756 73.953 64.033 74.067C64.5567 74.5465 65.135 74.9627 65.756 75.307C65.797 75.3306 65.8415 75.3437 65.8841 75.3448C65.9268 75.3458 65.9656 75.3348 65.996 75.313C66.0422 75.2789 66.0793 75.2339 66.104 75.182C66.1227 75.1435 66.147 75.1105 66.1744 75.0865C66.2018 75.0624 66.2313 75.0481 66.26 75.045C66.388 75.031 66.415 75.085 66.34 75.203C66.06 75.656 66.145 75.941 66.592 76.057C68.11 76.449 69.649 76.714 71.209 76.85C71.2488 76.8528 71.2867 76.8677 71.3172 76.8927C71.3477 76.9176 71.3693 76.9513 71.379 76.989C71.492 77.436 71.395 77.822 71.088 78.151C71.0256 78.2185 70.9894 78.2995 70.986 78.379C70.9496 79.8126 70.9789 81.2471 71.074 82.678C71.173 84.265 71.489 85.755 72.022 87.147C72.239 87.717 72.574 88.14 73.029 88.414C74.443 89.265 75.914 89.392 77.439 88.794C77.947 88.591 78.262 88.449 78.383 88.367C78.693 88.159 78.886 87.844 78.959 87.424C78.9876 87.2451 79.0675 87.0784 79.189 86.944C79.357 86.76 79.459 86.624 79.496 86.539C80.0704 85.2914 80.2588 83.9005 80.037 82.545C80.2405 81.0297 80.1823 79.4907 79.865 77.995C79.8541 77.9441 79.8368 77.8981 79.8144 77.8604C79.7921 77.8228 79.7652 77.7946 79.736 77.778C79.626 77.716 79.55 77.79 79.51 78C79.47 78.2 79.372 78.3 79.215 78.3C79.1763 78.2999 79.1387 78.2845 79.1093 78.2568C79.0799 78.229 79.0606 78.1907 79.055 78.149C79.0324 78.0308 79.0442 77.9085 79.0888 77.7967C79.1335 77.6849 79.2092 77.5882 79.307 77.518C79.3855 77.4581 79.4373 77.3851 79.451 77.315C79.523 76.955 79.361 76.803 78.967 76.86C78.829 76.88 78.745 76.863 78.715 76.807C78.7075 76.7931 78.7049 76.7772 78.7076 76.7605C78.7102 76.7438 78.718 76.7266 78.7303 76.7101C78.7426 76.6937 78.7592 76.6785 78.7788 76.6655C78.7985 76.6525 78.8207 76.6421 78.844 76.635C79.567 76.4 80.304 76.24 81.059 76.157C81.351 76.124 81.71 76.026 82.135 75.86C82.6382 75.6654 83.181 75.5957 83.717 75.657C83.786 75.664 84.187 75.574 84.92 75.389L85.713 75.188C87.2321 74.5943 88.7445 73.9836 90.25 73.356C90.4699 73.2637 90.6833 73.1568 90.889 73.036C91.0932 72.9161 91.289 72.7825 91.475 72.636L92.066 71.85C92.202 71.672 92.443 71.46 92.791 71.22C93.078 71.021 93.314 70.768 93.498 70.455C94.4507 69.4447 95.2922 68.335 96.008 67.145C96.2215 66.3497 96.4664 65.5631 96.742 64.787C96.799 64.626 96.799 64.503 96.742 64.418C96.662 64.304 96.517 64.263 96.307 64.293C96.077 64.327 96.057 64.276 96.247 64.143C96.396 64.039 96.524 64.011 96.635 64.057C96.6686 64.0718 96.7051 64.0763 96.7374 64.0694C96.7697 64.0626 96.7956 64.045 96.81 64.02C97.11 63.476 97.137 62.906 96.892 62.309C96.78 62.032 96.518 61.569 96.105 60.924C95.58 60.097 94.885 59.737 94.017 59.848C93.9354 59.859 93.8498 59.8395 93.775 59.793C93.586 59.67 93.4 59.629 93.215 59.67V59.668C91.62 60.018 90.109 60.789 88.682 61.983C88.5344 62.1069 88.3638 62.2004 88.18 62.258C87.229 62.56 86.27 62.984 85.305 63.532C84.119 63.9565 82.9572 64.4459 81.825 64.998C81.81 65.005 81.625 65.141 81.268 65.405C81.043 65.572 80.766 65.62 80.438 65.545C80.1753 65.2549 80.0284 64.8784 80.025 64.487C80.025 64.4864 80.025 64.4857 80.025 64.485C80.152 64.052 80.068 63.67 79.77 63.338L79.758 62.145C79.6737 60.1059 79.3693 58.0818 78.85 56.108C78.821 55.782 78.558 55.526 78.063 55.342C77.961 55.306 77.961 55.274 78.065 55.245C78.901 55.009 79.755 54.785 80.623 54.571C81.206 54.426 82.108 53.923 83.33 53.063C84.21 52.446 84.752 51.551 84.957 50.377C85.13 49.393 84.917 48.643 84.318 48.125C84.028 47.875 83.398 47.56 82.434 47.18C81.862 46.9553 81.2727 46.777 80.672 46.647H80.67C80.3795 46.5858 80.0839 46.5516 79.787 46.545ZM91.475 72.636C91.1008 72.9299 90.6888 73.172 90.25 73.356C88.7445 73.9836 87.2321 74.5943 85.713 75.188L84.883 75.78C84.7855 75.8486 84.7013 75.9197 84.6358 75.9886C84.5704 76.0575 84.5251 76.1227 84.503 76.18C84.308 76.711 84.401 76.866 84.781 76.64C85.291 76.34 85.822 76.086 86.373 75.88C87.271 75.544 87.815 75.33 88.008 75.237C89.7749 74.3842 91.4533 73.3593 93.019 72.177C93.0542 72.1514 93.0808 72.1169 93.0944 72.0791C93.108 72.0414 93.1079 72.0026 93.094 71.969C93.014 71.78 92.869 71.799 92.662 72.028C92.364 72.356 91.968 72.559 91.475 72.636ZM112.174 46.803C112.164 46.8345 112.148 46.8642 112.129 46.891C112.128 46.891 112.128 46.891 112.127 46.891C112.147 46.8643 112.163 46.8346 112.174 46.803ZM14.689 47.36H14.691C14.911 47.54 15.036 47.786 15.068 48.1C15.083 48.243 15.12 48.347 15.178 48.407H15.175C15.118 48.347 15.083 48.244 15.068 48.1C15.0583 47.9573 15.0196 47.8181 14.9542 47.6909C14.8889 47.5636 14.7983 47.4511 14.688 47.36H14.689ZM9.474 47.997L9.468 48.02C9.466 48.023 9.465 48.027 9.462 48.03C9.465 48.027 9.464 48.023 9.466 48.02L9.474 47.997ZM9.595 48.824H9.617C9.605 48.824 9.593 48.826 9.582 48.827L9.595 48.824ZM9.21 49.09L9.212 49.1V49.102L8.634 49.95C8.63261 49.9533 8.63128 49.9567 8.63 49.96C8.63061 49.9567 8.63128 49.9534 8.632 49.95L9.21 49.1V49.09ZM82.644 49.387H82.646C82.6486 49.3909 82.6509 49.3949 82.653 49.399C82.65 49.3948 82.6476 49.3908 82.644 49.387ZM8.572 50.186C8.59302 50.3806 8.57362 50.5773 8.515 50.764C8.455 50.964 8.356 51.174 8.215 51.391L8.207 51.403L8.212 51.391C8.34246 51.1976 8.4445 50.9864 8.515 50.764C8.575 50.564 8.594 50.37 8.572 50.186ZM9.158 50.268C8.891 50.736 8.702 51.134 8.593 51.465C8.701 51.134 8.89 50.735 9.158 50.268ZM40.048 50.323C40.1845 50.3156 40.3212 50.3322 40.452 50.372C41.277 50.614 41.656 51.002 41.593 51.536C41.5868 51.5953 41.5971 51.6551 41.6227 51.7088C41.6483 51.7624 41.6882 51.8079 41.738 51.84C42.15 52.104 42.318 52.417 42.243 52.78C42.191 53.027 42.255 53.52 42.431 54.254C42.5056 54.5443 42.5205 54.8466 42.4747 55.1428C42.429 55.439 42.3236 55.7228 42.165 55.977C41.7953 56.6004 41.2816 57.126 40.667 57.51C40.6325 57.5317 40.5933 57.5461 40.5518 57.5525C40.5102 57.5588 40.4671 57.557 40.425 57.547L38.695 57.157C38.609 57.1363 38.5338 57.0919 38.48 57.03C37.467 55.838 37.13 54.474 37.472 52.94C37.5129 52.699 37.5273 52.4542 37.515 52.21C37.505 51.888 37.605 51.65 37.814 51.493C38.3794 51.0588 38.9968 50.697 39.652 50.416C39.782 50.362 39.915 50.33 40.048 50.323ZM56.759 50.84C56.896 50.997 56.953 51.103 56.931 51.159C56.952 51.103 56.896 50.997 56.759 50.84ZM56.927 51.163C56.915 51.187 56.887 51.203 56.841 51.206C56.888 51.203 56.915 51.188 56.927 51.163ZM109.452 51.358C109.165 51.966 109.015 52.562 109.007 53.143C109.004 53.337 109.017 53.529 109.046 53.719C109.057 53.8048 109.043 53.8929 109.006 53.973C108.866 54.272 108.796 54.519 108.798 54.717C108.797 54.519 108.866 54.271 109.007 53.973C109.044 53.8926 109.056 53.8045 109.044 53.719C109.016 53.5283 109.004 53.3357 109.007 53.143C109.016 52.563 109.162 51.968 109.45 51.36L109.452 51.358ZM78.587 51.624L78.597 51.627C78.5904 51.6255 78.5836 51.6255 78.577 51.627C78.581 51.627 78.584 51.623 78.587 51.624ZM78.565 51.631L78.558 51.635V51.633C78.56 51.631 78.563 51.633 78.565 51.631ZM56.148 51.811C56.0765 51.8436 56.0093 51.8849 55.948 51.934C55.832 52.0269 55.7447 52.1507 55.696 52.291C55.7335 52.1838 55.7931 52.0857 55.871 52.003C55.9488 51.9203 56.0432 51.8549 56.148 51.811ZM77.685 52.217C77.678 52.253 77.667 52.29 77.657 52.325C77.667 52.29 77.677 52.254 77.685 52.217ZM74.767 52.348C74.7773 52.3941 74.7931 52.4387 74.814 52.481C74.8354 52.526 74.8615 52.5686 74.892 52.608C74.8476 52.5491 74.8119 52.4841 74.786 52.415C74.778 52.3931 74.7723 52.3707 74.767 52.348ZM5.361 53.928C5.36167 53.928 5.36233 53.928 5.363 53.928V53.934L5.361 53.928ZM7.019 54.348L6.984 54.452L7.019 54.479C7.00785 54.47 6.99616 54.4616 6.984 54.454L6.972 54.471L6.982 54.451C6.997 54.409 7.005 54.39 7.019 54.348ZM53.513 55.578C53.703 55.598 53.815 55.631 53.847 55.678C53.862 55.701 53.858 55.727 53.835 55.756C53.857 55.726 53.863 55.701 53.847 55.678C53.815 55.631 53.704 55.598 53.513 55.578ZM6.443 56.026V56.041C6.439 56.099 6.2 56.928 5.724 58.531L5.716 58.559L5.722 58.532C6.199 56.928 6.437 56.099 6.441 56.042L6.443 56.026ZM106.943 56.541C106.882 56.573 106.843 56.673 106.821 56.844C106.816 56.882 106.82 56.9226 106.834 56.9632C106.847 57.0038 106.869 57.0436 106.899 57.08C106.969 57.165 107.021 57.248 107.055 57.33C107.09 57.4053 107.107 57.4872 107.106 57.57C107.106 57.6528 107.087 57.7344 107.051 57.809C107.011 57.8936 106.957 57.971 106.891 58.038C106.86 58.0704 106.837 58.1081 106.824 58.1476C106.811 58.1871 106.809 58.2272 106.817 58.264C106.829 58.3172 106.849 58.3684 106.876 58.416H106.874C106.848 58.3683 106.829 58.3171 106.817 58.264C106.808 58.2273 106.81 58.1874 106.823 58.1478C106.835 58.1083 106.858 58.0706 106.889 58.038C106.955 57.971 107.01 57.8937 107.051 57.809C107.087 57.7344 107.106 57.6528 107.106 57.57C107.107 57.4872 107.09 57.4053 107.055 57.33C107.015 57.2394 106.962 57.1552 106.897 57.08C106.867 57.0436 106.845 57.0038 106.832 56.9632C106.818 56.9226 106.814 56.882 106.819 56.844C106.841 56.673 106.883 56.573 106.943 56.541ZM125.802 56.985C125.803 56.985 125.804 56.985 125.805 56.985C125.803 56.9863 125.801 56.9876 125.799 56.989C125.8 56.9877 125.801 56.9863 125.802 56.985ZM107.43 57.151C107.47 57.196 107.513 57.218 107.557 57.213C107.512 57.219 107.47 57.197 107.43 57.151ZM125.954 57.247C125.992 57.247 125.992 57.251 125.954 57.254C125.991 57.251 125.991 57.248 125.954 57.247ZM107.626 57.954C107.66 57.981 107.696 58.023 107.731 58.081C107.75 58.1112 107.762 58.1489 107.764 58.1912C107.761 58.1489 107.749 58.111 107.729 58.081C107.702 58.0331 107.667 57.9902 107.626 57.954ZM108.041 59.059L108.043 59.061C108.203 59.518 108.335 59.975 108.445 60.436C108.775 61.8138 108.881 63.2356 108.76 64.647L108.55 67.145C108.55 67.145 108.55 67.145 108.55 67.145L108.758 64.645C108.88 63.2344 108.774 61.8133 108.445 60.436C108.335 59.975 108.201 59.516 108.041 59.059ZM110.013 59.401L111.937 61.251L110.013 59.403V59.401ZM5.594 59.858L5.596 59.883C5.59694 59.8891 5.59828 59.8951 5.6 59.901C5.59761 59.8952 5.5956 59.8892 5.594 59.883V59.858ZM95.599 61.034C95.6451 61.0369 95.6889 61.0577 95.721 61.092V61.094C95.6891 61.0594 95.6454 61.0382 95.5993 61.0351C95.5531 61.0319 95.5081 61.047 95.474 61.077C95.5079 61.0466 95.5528 61.0312 95.599 61.034ZM92.865 61.137C93.0522 61.1349 93.2393 61.1459 93.425 61.17C93.3 61.165 93.1752 61.155 93.051 61.14C92.8092 61.1318 92.5672 61.1458 92.328 61.182C92.211 61.2 92.094 61.222 91.98 61.252C91.866 61.282 91.755 61.319 91.644 61.36C91.8651 61.2767 92.0944 61.2171 92.328 61.182C92.5057 61.1539 92.6851 61.1388 92.865 61.137ZM53.098 61.295V61.327L53.1 61.337C53.1 61.332 53.096 61.331 53.096 61.327L53.098 61.295ZM52.026 61.649C52.026 61.653 52.026 61.656 52.028 61.661C52.0273 61.661 52.0267 61.661 52.026 61.661C52.024 61.655 52.027 61.654 52.026 61.649ZM94.959 61.828C94.826 61.9 94.7052 61.9925 94.601 62.102C94.6654 62.0539 94.7256 62.0004 94.781 61.942C94.837 61.9 94.896 61.862 94.959 61.828ZM114.806 62.346C115.556 62.636 116.242 62.929 116.865 63.229C116.865 63.2297 116.865 63.2304 116.865 63.231C116.191 62.9086 115.504 62.6134 114.806 62.346ZM89.117 62.395C88.7581 62.6787 88.3831 62.9415 87.994 63.182C88.1208 63.0937 88.2505 63.0096 88.383 62.93C88.803 62.636 89.048 62.458 89.117 62.395ZM91.709 62.964C91.709 62.9637 91.709 62.9644 91.709 62.964ZM52.041 63.307C52.0417 63.307 52.0423 63.307 52.043 63.307C52.0423 63.3084 52.0417 63.3097 52.041 63.311C52.041 63.3097 52.041 63.3084 52.041 63.307ZM91.467 63.662C91.2677 63.973 91.1034 64.305 90.977 64.652C90.9341 64.7679 90.8954 64.8853 90.861 65.004C90.9288 64.7672 91.0137 64.5356 91.115 64.311C91.2162 64.0863 91.3339 63.8694 91.467 63.662ZM51.887 63.668C51.897 63.784 51.922 63.902 51.963 64.024C51.986 64.092 51.9881 64.1798 51.969 64.276L51.84 64.871C51.8333 64.9006 51.8344 64.9381 51.843 64.9811C51.834 64.9381 51.8319 64.9009 51.838 64.871L51.967 64.278C51.9861 64.1818 51.984 64.094 51.961 64.026C51.9215 63.9103 51.8966 63.79 51.887 63.668ZM91.012 63.811H91.014C91.0099 63.8156 91.0059 63.8203 91.002 63.825L91.012 63.811ZM79.192 64.354H79.197L79.186 64.358L79.192 64.354ZM95.984 64.477C95.9847 64.4783 95.9854 64.4797 95.986 64.481H95.984C95.984 64.4797 95.984 64.4784 95.984 64.477ZM87.461 64.95C87.5231 64.9484 87.5842 64.9674 87.635 65.004C87.5839 64.9681 87.5229 64.9499 87.461 64.952H87.42L87.461 64.95ZM88.434 65.291H88.464C88.454 65.2908 88.444 65.2908 88.434 65.291ZM51.977 65.512C51.975 65.602 51.919 65.756 51.805 65.972C51.919 65.754 51.975 65.602 51.977 65.512ZM93.674 65.819C93.6746 65.8204 93.6753 65.8217 93.676 65.823C93.6773 65.8237 93.6786 65.8244 93.68 65.825C93.678 65.8251 93.676 65.8251 93.674 65.825C93.674 65.8231 93.674 65.8211 93.674 65.819ZM67.68 66.096C67.653 66.144 67.597 66.182 67.512 66.207C67.597 66.181 67.652 66.143 67.68 66.096ZM67.293 66.288C67.2937 66.288 67.2943 66.288 67.295 66.288C67.2885 66.3016 67.2854 66.3167 67.2861 66.3319C67.2868 66.3471 67.2912 66.3619 67.299 66.375L67.297 66.373C67.2894 66.3601 67.2851 66.3454 67.2844 66.3304C67.2837 66.3154 67.2866 66.3015 67.293 66.288ZM77.584 66.309C77.5867 66.3096 77.5894 66.3103 77.592 66.311C77.5893 66.311 77.5867 66.311 77.584 66.311H77.547L77.584 66.309ZM92.726 66.332L92.709 66.338C92.7146 66.3358 92.7203 66.3338 92.726 66.332ZM35.237 66.366C36.557 66.401 37.733 66.67 38.766 67.172C38.987 67.076 39.17 67.119 39.313 67.302C39.3311 67.3245 39.3585 67.3457 39.3937 67.3646C39.4289 67.3835 39.4711 67.3996 39.518 67.412L39.856 67.499C39.8874 67.5068 39.9139 67.5312 39.9302 67.5673C39.9465 67.6035 39.9514 67.6487 39.944 67.694C39.851 68.222 40.041 68.601 40.516 68.832C40.857 69.125 41.204 69.409 41.556 69.682C41.675 69.772 41.742 69.86 41.756 69.944C41.7638 69.9885 41.7618 70.034 41.75 70.0776C41.7383 70.1211 41.7171 70.1616 41.688 70.196C41.6669 70.2243 41.6555 70.2582 41.6559 70.2916C41.6563 70.3251 41.6683 70.3561 41.69 70.379C41.883 70.579 41.981 70.822 41.983 71.108C41.9841 71.1988 42.0084 71.2835 42.053 71.352C42.3783 71.8396 42.5813 72.3984 42.645 72.981C42.725 73.165 42.831 73.331 42.959 73.483C42.9773 73.5055 42.9935 73.5379 43.0066 73.5784C43.0196 73.6189 43.0293 73.6667 43.035 73.719L43.246 75.439C43.269 75.616 43.263 75.749 43.229 75.84C43.0131 76.4522 42.7824 77.0591 42.537 77.66C42.534 77.668 42.399 78.034 42.135 78.758C41.671 80.032 40.842 81.069 39.647 81.873C39.5311 81.9512 39.431 82.0506 39.352 82.166C39.107 82.516 38.806 82.694 38.448 82.702C38.3618 82.7004 38.2764 82.7182 38.198 82.754C37.12 83.264 36.105 83.484 35.155 83.414C34.841 83.392 34.648 83.504 34.577 83.752C34.5734 83.7666 34.5665 83.7802 34.5569 83.7917C34.5473 83.8032 34.5354 83.8122 34.5221 83.818C34.5089 83.8238 34.4946 83.8262 34.4807 83.825C34.4667 83.8238 34.4535 83.819 34.442 83.811C33.96 83.508 33.529 83.399 33.147 83.483C32.727 83.573 32.382 83.61 32.11 83.594C31.9081 83.5817 31.7061 83.5714 31.504 83.563C30.8763 83.5713 30.2612 83.3874 29.741 83.036C29.4654 82.8544 29.1943 82.666 28.928 82.471C28.6592 82.2562 28.4521 81.974 28.328 81.653C28.3127 81.616 28.2881 81.5833 28.2565 81.558C28.2249 81.5327 28.1872 81.5155 28.147 81.508L27.677 81.422C27.5974 81.407 27.5227 81.356 27.469 81.28L26.006 79.17C25.9567 79.1 25.9302 79.0167 25.9302 78.9317C25.9302 78.8468 25.9567 78.7644 26.006 78.696C26.116 78.544 26.107 78.422 25.979 78.33C25.512 78.468 25.325 78.333 25.42 77.924C25.438 77.84 25.4356 77.7529 25.413 77.67C25.3776 77.5461 25.3682 77.4163 25.3854 77.2886C25.4026 77.1609 25.4461 77.0381 25.513 76.928L25.981 74.586C25.9239 74.3546 25.9191 74.1133 25.967 73.8797C26.0149 73.6462 26.1143 73.4263 26.258 73.236L26.516 72.379C27.055 70.483 28.106 68.94 29.67 67.752C29.84 67.471 30.082 67.275 30.395 67.162C31.23 66.786 32.387 66.534 33.868 66.409C34.34 66.369 34.797 66.354 35.237 66.366ZM89.008 66.415C88.885 66.539 88.748 66.651 88.598 66.751V66.749C88.748 66.649 88.885 66.539 89.008 66.415ZM89.992 66.426L91.113 67.401C91.1426 67.4275 91.1783 67.4473 91.2178 67.4594C91.1783 67.4477 91.1428 67.4291 91.113 67.403L89.992 66.426ZM94.772 66.803L94.782 66.807C94.782 66.8077 94.782 66.8084 94.782 66.809L94.772 66.803ZM83.918 66.807C83.818 66.853 83.718 66.901 83.627 66.957C83.727 66.9137 83.8249 66.8636 83.918 66.807ZM91.965 66.934C91.9643 66.936 91.9637 66.938 91.963 66.94C91.961 66.9434 91.959 66.9467 91.957 66.95C91.9584 66.9467 91.9597 66.9434 91.961 66.94C91.9623 66.938 91.9637 66.936 91.965 66.934ZM71.451 66.971C71.4517 66.971 71.4523 66.971 71.453 66.971C71.4545 66.9743 71.4558 66.9776 71.457 66.981C71.4552 66.9776 71.4532 66.9743 71.451 66.971ZM87.148 66.971C87.049 67.0722 86.9583 67.1812 86.877 67.297C86.7203 67.5201 86.6038 67.7688 86.533 68.032C86.4981 68.1658 86.4747 68.3023 86.463 68.44C86.4948 68.0285 86.6379 67.6334 86.877 67.297C86.957 67.185 87.047 67.075 87.148 66.971ZM70.207 67.034C70.2299 67.0359 70.2525 67.0409 70.274 67.049C70.2332 67.031 70.1877 67.0261 70.144 67.035C70.1647 67.031 70.186 67.0313 70.207 67.034ZM71.465 67.082C71.4646 67.0861 71.4639 67.0901 71.463 67.094H71.461C71.4626 67.0901 71.4639 67.0861 71.465 67.082ZM90.0017 67.1719C89.965 67.1912 89.934 67.2199 89.912 67.255C89.7833 67.4555 89.6902 67.6768 89.637 67.909C89.6195 67.9883 89.6061 68.0684 89.597 68.149C89.6157 67.9893 89.6506 67.8321 89.703 67.68C89.7563 67.5304 89.8268 67.3874 89.913 67.254C89.9349 67.219 89.9652 67.1912 90.0017 67.1719ZM90.578 67.225C90.6544 67.2482 90.7247 67.288 90.7838 67.3416C90.8429 67.3952 90.8894 67.4613 90.92 67.535C90.8792 67.4375 90.8107 67.3541 90.723 67.295C90.6773 67.2665 90.6287 67.2431 90.578 67.225ZM73.164 67.28C73.228 67.314 73.291 67.34 73.354 67.358C73.4744 67.3939 73.6022 67.3967 73.724 67.366C73.6617 67.3658 73.5996 67.3729 73.539 67.387C73.4763 67.3849 73.4141 67.3759 73.354 67.358C73.2881 67.3393 73.2244 67.3125 73.164 67.28ZM81.139 67.408C81.137 67.411 81.139 67.412 81.137 67.415C80.9297 67.663 80.7402 67.9253 80.57 68.2C80.6545 68.0635 80.7439 67.9301 80.838 67.8C80.932 67.668 81.032 67.54 81.137 67.415H81.135L81.139 67.408ZM69.758 67.42C69.703 67.4405 69.6495 67.4649 69.598 67.493C69.5544 67.5162 69.5132 67.5437 69.475 67.575C69.4411 67.6027 69.4108 67.6347 69.385 67.67C69.3378 67.7364 69.312 67.8156 69.311 67.897C69.3115 67.8343 69.3265 67.7726 69.355 67.7167C69.3835 67.6608 69.4245 67.6123 69.475 67.575C69.5132 67.5437 69.5544 67.5162 69.598 67.493C69.645 67.467 69.699 67.443 69.758 67.42ZM66.555 67.534C66.543 67.539 66.533 67.546 66.522 67.551C66.532 67.546 66.543 67.539 66.555 67.534ZM88.516 67.588C88.6695 67.5845 88.8212 67.6214 88.956 67.695C88.8824 67.6765 88.8112 67.6493 88.744 67.614C88.6694 67.596 88.5928 67.5872 88.516 67.588ZM88.516 67.588C88.436 67.589 88.35 67.598 88.264 67.618C88.1299 67.6555 87.9986 67.7022 87.871 67.758C87.7656 67.8037 87.665 67.86 87.571 67.926C87.655 67.866 87.755 67.809 87.871 67.758C87.987 67.707 88.117 67.659 88.264 67.618C88.3467 67.5994 88.4312 67.5893 88.516 67.588ZM68.963 67.735C68.8883 67.75 68.8116 67.7527 68.736 67.743L68.598 67.727C68.65 67.733 68.683 67.734 68.738 67.741C68.8128 67.7514 68.8888 67.7493 68.963 67.735ZM77.906 67.666C77.9765 67.7514 78.0567 67.8282 78.145 67.895C78.1031 67.8656 78.0636 67.8329 78.027 67.797C77.9844 67.7561 77.9444 67.7127 77.907 67.667L77.906 67.666ZM66.346 67.67C66.34 67.676 66.332 67.678 66.326 67.684V67.682C66.332 67.677 66.34 67.675 66.346 67.67ZM72.904 67.674C72.9217 67.6722 72.9397 67.6736 72.957 67.678C72.9212 67.6699 72.8838 67.675 72.852 67.6924C72.8202 67.7097 72.7963 67.7381 72.785 67.772C72.7933 67.7462 72.809 67.7232 72.8303 67.7059C72.8515 67.6885 72.8764 67.6775 72.904 67.674ZM93.031 67.684C93.0331 67.686 93.0351 67.688 93.037 67.69C93.0324 67.6884 93.0277 67.6871 93.023 67.686C93.0256 67.6853 93.0283 67.6846 93.031 67.684ZM66.991 67.686C67.1622 67.6861 67.3295 67.7377 67.471 67.834C67.3014 67.7143 67.0927 67.6632 66.887 67.691C66.817 67.701 66.744 67.717 66.67 67.741C66.7734 67.7072 66.8822 67.6886 66.991 67.686ZM79.104 67.696H79.106C79.106 67.697 79.102 67.7 79.102 67.702L79.104 67.696ZM77.28 67.87C77.377 67.8872 77.4677 67.9296 77.543 67.993C77.581 68.025 77.615 68.063 77.646 68.106C77.6788 68.1525 77.7069 68.2021 77.73 68.254C77.756 68.31 77.778 68.371 77.797 68.438C77.7793 68.3751 77.7569 68.3136 77.73 68.254C77.7069 68.2021 77.6788 68.1525 77.646 68.106C77.5872 68.0243 77.5097 67.9578 77.42 67.912C77.3754 67.8916 77.3283 67.8782 77.28 67.87ZM78.926 67.862C78.817 67.9325 78.7137 68.0114 78.617 68.098C78.3279 68.3563 78.1088 68.6834 77.98 69.049C77.9797 69.049 77.9793 69.049 77.979 69.049C78.025 68.923 78.079 68.804 78.143 68.692C78.3299 68.3538 78.5993 68.0683 78.926 67.862ZM68.283 67.947C68.3034 67.941 68.3241 67.941 68.343 67.947C68.3137 67.9375 68.2807 67.9426 68.251 67.9612C68.2212 67.9798 68.1968 68.0106 68.183 68.047C68.1923 68.0226 68.2064 68.0006 68.2239 67.9831C68.2414 67.9656 68.2618 67.9532 68.283 67.947ZM69.363 68.382C69.3713 68.4307 69.3654 68.4807 69.346 68.526C69.3652 68.4803 69.3711 68.43 69.363 68.381V68.382ZM74.336 68.407C74.3387 68.4082 74.3414 68.4095 74.344 68.411C74.3414 68.4102 74.3387 68.4095 74.336 68.409H74.322L74.336 68.407ZM51.916 69.0039C51.9476 69.0377 51.9857 69.065 52.028 69.084H52.026C51.9841 69.0648 51.9473 69.0377 51.916 69.0039ZM70.512 68.927L70.438 68.983C70.463 68.964 70.486 68.945 70.512 68.927ZM68.43 69.612C68.3902 69.6627 68.3628 69.7219 68.35 69.785C68.3382 69.8489 68.3416 69.9147 68.36 69.977C68.3824 70.0519 68.4165 70.1228 68.461 70.187C68.517 70.273 68.571 70.345 68.627 70.407C68.5657 70.3379 68.5095 70.2644 68.459 70.187C68.4147 70.1228 68.3819 70.0519 68.36 69.977C68.3416 69.9147 68.3382 69.8489 68.35 69.785C68.3628 69.7219 68.3902 69.6627 68.43 69.612ZM71.813 69.633C71.8102 69.644 71.8075 69.655 71.805 69.666C71.7736 69.8035 71.703 69.9281 71.602 70.024H71.6C71.701 69.9281 71.7716 69.8035 71.803 69.666C71.805 69.655 71.81 69.645 71.813 69.633ZM117.375 69.879C117.375 69.989 117.335 70.671 117.259 71.924C117.259 71.9247 117.258 71.9254 117.258 71.926C117.335 70.673 117.375 69.99 117.375 69.879ZM42.715 70.219C42.677 70.249 42.605 70.203 42.505 70.082C42.605 70.202 42.677 70.249 42.715 70.219ZM52.797 70.034C52.7983 70.0357 52.7997 70.0374 52.801 70.039C52.8003 70.039 52.7997 70.039 52.799 70.039C52.7983 70.0374 52.7977 70.0357 52.797 70.034ZM81.357 70.1C81.1964 70.5718 81.0006 71.0307 80.771 71.473C80.9309 71.001 81.1268 70.542 81.357 70.1ZM79.467 70.212C79.1575 70.6365 78.8959 71.094 78.687 71.576C78.59 72.116 78.486 72.137 78.375 71.643C78.4289 71.6546 78.4847 71.6547 78.5387 71.6431C78.5926 71.6316 78.6435 71.6087 78.688 71.576C78.8971 71.094 79.1583 70.6373 79.467 70.212ZM68.365 70.551C68.3169 70.5397 68.2667 70.5412 68.2194 70.5552C68.172 70.5692 68.1292 70.5954 68.095 70.631C67.7484 70.9972 67.4239 71.3835 67.123 71.788C67.4242 71.3838 67.7491 70.9978 68.096 70.632C68.1302 70.5964 68.173 70.5702 68.2204 70.5562C68.2677 70.5422 68.3179 70.5407 68.366 70.552L68.365 70.551ZM73.3127 70.7018C73.311 70.7436 73.3176 70.7868 73.332 70.829L73.496 71.297V71.303L73.494 71.297L73.332 70.829C73.3176 70.7868 73.311 70.7436 73.3127 70.7018ZM67.367 70.766C67.262 70.949 67.151 71.116 67.033 71.268C67.151 71.116 67.263 70.948 67.367 70.766ZM68.873 70.85C68.8862 70.8824 68.893 70.9171 68.893 70.952C68.8928 70.9925 68.886 71.0327 68.873 71.071C68.8861 71.0324 68.8929 70.9918 68.893 70.951C68.8925 70.9168 68.8857 70.8819 68.873 70.85ZM77.045 71.001L76.963 71.129C76.992 71.085 77.02 71.043 77.045 71.001ZM74.941 71.011C74.7465 71.1477 74.5802 71.3205 74.451 71.52C74.406 71.591 74.344 71.82 74.264 72.207C74.344 71.82 74.404 71.591 74.449 71.52C74.5786 71.3199 74.7457 71.1477 74.941 71.011ZM69.047 71.036H69.049C69.0222 71.0604 69.0034 71.0932 68.995 71.1305C69.003 71.0932 69.0205 71.0606 69.047 71.036ZM74.277 71.081C74.1271 71.5152 73.9289 71.9312 73.686 72.321C73.6118 72.4395 73.5201 72.5461 73.414 72.637C73.4665 72.5927 73.5153 72.5442 73.56 72.492C73.606 72.44 73.648 72.382 73.686 72.321C73.9276 71.9304 74.1257 71.5147 74.277 71.081ZM72.988 71.239C73.071 71.2413 73.1532 71.2558 73.232 71.282C73.1781 71.2641 73.1224 71.2517 73.066 71.245C73.0162 71.2386 72.9658 71.2386 72.916 71.245C72.8215 71.2577 72.733 71.2984 72.662 71.362C72.7523 71.283 72.868 71.2393 72.988 71.239ZM52.947 71.635C53.072 71.9 53.027 72.13 52.813 72.323C53.027 72.13 53.073 71.9 52.947 71.635ZM70.418 71.897C70.3975 71.9824 70.3508 72.0578 70.285 72.112H70.283C70.3496 72.0582 70.397 71.9826 70.418 71.897ZM68.803 71.979C68.6525 72.1118 68.5198 72.2634 68.408 72.43C68.4737 72.3566 68.5339 72.2784 68.588 72.196C68.654 72.121 68.725 72.047 68.803 71.979ZM52.594 72.368C52.559 72.492 52.511 72.57 52.454 72.604C52.512 72.571 52.558 72.494 52.594 72.368ZM65.489 72.883C65.3496 72.9318 65.2043 72.9621 65.057 72.973C65.0536 72.9742 65.0503 72.9755 65.047 72.977C65.0502 72.9748 65.0535 72.9728 65.057 72.971C65.213 72.959 65.358 72.93 65.489 72.883ZM69.815 72.543H69.817L69.776 72.588L69.815 72.543ZM52.225 72.553C52.312 72.623 52.385 72.64 52.447 72.61C52.385 72.641 52.312 72.623 52.225 72.553ZM52.898 72.782L53.194 72.992C53.267 73.072 53.334 73.157 53.394 73.246C53.3324 73.1579 53.265 73.074 53.192 72.995C53.0959 72.9219 52.9972 72.8508 52.898 72.782ZM73.822 72.834C73.7493 72.8774 73.6807 72.9273 73.617 72.983C73.667 72.937 73.736 72.888 73.822 72.834ZM85.008 73.19L84.992 73.198C84.982 73.201 84.978 73.2 84.969 73.204L84.992 73.196C84.9974 73.1941 85.0027 73.1921 85.008 73.19ZM75.846 73.223L75.789 73.315C75.809 73.285 75.828 73.254 75.846 73.223ZM53.967 73.466C53.953 73.566 53.927 73.636 53.889 73.676C53.927 73.636 53.954 73.566 53.967 73.466ZM78.051 73.932L78.098 74.452V74.473L78.096 74.452L78.051 73.932ZM73.592 73.784C73.4733 73.8464 73.3578 73.9149 73.246 73.989C73.353 73.917 73.469 73.849 73.592 73.784ZM67.037 73.895C66.9677 74.0248 66.8817 74.1448 66.781 74.252C66.8232 74.1928 66.8697 74.1366 66.92 74.084C66.962 74.024 67.002 73.963 67.037 73.895ZM71.375 74L71.34 74.055C71.3393 74.055 71.3387 74.055 71.338 74.055L71.375 74ZM68.748 74.037L68.723 74.087C68.6665 74.1808 68.6036 74.2707 68.535 74.356L68.525 74.371C68.529 74.366 68.529 74.361 68.533 74.356C68.637 74.219 68.699 74.129 68.721 74.086C68.729 74.069 68.74 74.054 68.748 74.037ZM74.818 74.998C74.747 75.258 74.674 75.515 74.598 75.772C74.438 76.302 74.627 76.672 75.16 76.889C75.2 76.9053 75.236 76.9298 75.2657 76.9608C75.2953 76.9919 75.3179 77.0288 75.332 77.069C75.525 77.599 75.438 77.712 75.07 77.41C74.59 77.018 74.44 77.126 74.62 77.73C74.83 78.444 74.926 79.173 74.908 79.92C74.906 80.0031 74.9319 80.0871 74.982 80.16C75.275 80.587 75.376 81.071 75.287 81.61C75.26 81.777 75.344 82.197 75.535 82.87C75.5621 82.9649 75.6135 83.0404 75.678 83.08C75.813 83.164 75.914 83.127 75.978 82.969C76.0129 82.8673 76.0191 82.758 75.996 82.653C75.8605 81.8216 75.8246 80.977 75.889 80.137C75.771 78.929 75.669 77.57 75.58 76.057C75.5729 75.9246 75.5353 75.7955 75.47 75.68C75.315 75.402 75.28 75.194 75.365 75.055C76.024 74.999 76.605 75.26 77.109 75.84C77.299 76.056 77.563 76.119 77.902 76.03C77.9218 76.0248 77.9423 76.0229 77.9622 76.0243C77.9821 76.0258 78.0011 76.0305 78.018 76.0383C78.0349 76.0461 78.0495 76.0568 78.0608 76.0698C78.0721 76.0828 78.08 76.0979 78.084 76.114C78.0991 76.1797 78.1005 76.2478 78.088 76.314C78.0673 76.4146 78.0694 76.505 78.094 76.571C78.731 78.353 78.999 80.175 78.897 82.037C78.807 83.682 78.757 84.557 78.744 84.667C78.6398 85.5715 78.3078 86.4348 77.779 87.176C77.485 87.59 77.088 87.886 76.589 88.065C76.1352 88.2294 75.645 88.2657 75.172 88.17C74.536 88.047 74.032 87.739 73.658 87.246C73.35 86.842 73.055 86.253 72.774 85.483C72.5404 84.8484 72.4347 84.1737 72.463 83.498C72.283 82.579 72.106 81.659 71.933 80.738L72.051 79.883C72.0557 79.8487 72.051 79.8107 72.0371 79.7716C72.0233 79.7326 72.0008 79.6935 71.971 79.657C71.791 79.437 71.781 79.198 71.943 78.944C72.218 78.826 72.313 78.599 72.227 78.26C72.1387 77.9082 72.094 77.5468 72.094 77.184C72.094 76.811 72.212 76.485 72.447 76.205C73.047 75.49 73.836 75.088 74.818 74.998ZM44.696 75.809L44.672 75.936C44.68 75.894 44.689 75.852 44.696 75.809ZM82.697 76.233C82.5153 76.2349 82.3345 76.2577 82.158 76.301C81.528 76.454 80.889 76.551 80.238 76.592C79.715 76.708 79.583 76.958 79.842 77.34C79.8645 77.3729 79.8959 77.3998 79.9334 77.4183C79.9709 77.4367 80.0133 77.4463 80.057 77.446C81.021 77.449 81.974 77.343 82.914 77.127C83.349 77.184 83.711 77.057 84 76.743C84.189 76.538 84.143 76.415 83.865 76.375L83.005 76.252C82.903 76.2376 82.8 76.2319 82.697 76.233ZM54.863 76.491C54.8633 76.491 54.8627 76.491 54.863 76.491ZM79.322 79.393C79.3253 79.3936 79.3287 79.3943 79.332 79.395C79.3259 79.396 79.3199 79.3973 79.314 79.399C79.3166 79.3969 79.3192 79.3949 79.322 79.393ZM115.941 81.721C115.757 82.496 115.571 83.262 115.371 83.965C115.37 83.965 115.37 83.965 115.369 83.965C115.569 83.262 115.757 82.496 115.941 81.721ZM71.627 81.996C71.723 81.994 71.838 82.039 71.973 82.135C71.989 82.1464 72.0025 82.1609 72.0126 82.1777C72.0228 82.1945 72.0293 82.2132 72.0318 82.2326C72.0344 82.2521 72.0329 82.2718 72.0274 82.2907C72.0219 82.3095 72.0126 82.327 72 82.342C71.723 82.682 71.519 82.702 71.387 82.402C71.3689 82.3607 71.3602 82.3166 71.3616 82.2732C71.363 82.2298 71.3744 82.1883 71.395 82.152C71.453 82.051 71.531 81.999 71.627 81.996ZM101.431 83.565C101.127 83.924 100.817 84.269 100.5 84.6H100.498C100.815 84.269 101.127 83.924 101.431 83.565ZM33.08 84.819C33.089 84.82 33.097 84.819 33.106 84.821C33.097 84.819 33.089 84.822 33.08 84.821C33.057 84.822 33.035 84.821 33.012 84.823L33.08 84.819ZM99.024 86.041C98.0828 86.9087 97.071 87.6964 95.999 88.396C95.439 88.763 94.841 89.126 94.201 89.486C94.201 89.4854 94.201 89.4847 94.201 89.484C94.8122 89.1423 95.4116 88.7798 95.998 88.397C97.0702 87.6973 98.0831 86.9093 99.024 86.041ZM114.095 88.018C114.137 88.185 114.245 88.326 114.418 88.444V88.446C114.26 88.3491 114.145 88.1963 114.095 88.018ZM113.586 89.012H113.588C113.494 89.132 113.422 89.27 113.371 89.43C113.32 89.59 113.29 89.77 113.281 89.969C113.281 89.973 113.275 89.982 113.275 89.986C113.275 89.982 113.279 89.974 113.279 89.969C113.289 89.769 113.319 89.59 113.371 89.43C113.422 89.272 113.493 89.13 113.586 89.012ZM56.529 89.574C57.0944 89.836 57.6262 90.1651 58.113 90.554V90.557C57.6267 90.1665 57.0948 89.8365 56.529 89.574ZM97.316 91.591C96.6189 92.1407 95.8789 92.6336 95.103 93.065C95.103 93.0644 95.103 93.0637 95.103 93.063C95.849 92.653 96.586 92.162 97.316 91.591ZM56.352 89.778C56.503 89.785 56.482 89.942 56.292 90.246C55.315 91.789 54.78 92.744 54.686 93.113C54.533 93.7537 54.1613 94.321 53.635 94.717C53.5303 94.8044 53.4002 94.8556 53.264 94.863C52.966 94.876 52.91 94.699 53.098 94.334C53.418 93.981 53.646 93.576 53.779 93.121C54.083 92.101 54.469 91.111 54.938 90.154C55.005 89.849 55.213 89.744 55.561 89.836C55.7516 89.8886 55.9543 89.8831 56.143 89.82C56.2096 89.7935 56.2803 89.7799 56.352 89.778ZM113.06 90.67C112.916 90.99 112.704 91.383 112.414 91.861C112.391 91.8978 112.379 91.9393 112.379 91.9802C112.379 92.021 112.391 92.0593 112.414 92.09C112.559 92.283 112.766 92.33 113.037 92.23C112.766 92.33 112.557 92.285 112.412 92.092C112.389 92.0612 112.377 92.0228 112.377 91.9817C112.377 91.9407 112.389 91.899 112.412 91.862C112.701 91.385 112.916 90.99 113.06 90.67ZM44.839 91.838C45.091 91.856 45.125 91.95 44.939 92.123C44.4377 92.5904 44.0876 93.1971 43.934 93.865C43.905 93.985 43.775 94.128 43.544 94.293C43.4734 94.3411 43.4243 94.4139 43.407 94.496C43.2366 95.2805 42.8432 95.999 42.274 96.565C42.2436 96.5954 42.2062 96.6169 42.1663 96.6268C42.1264 96.6367 42.0857 96.6347 42.049 96.621C41.717 96.5 41.621 96.239 41.76 95.84C41.894 95.451 42.118 95.215 42.432 95.129C42.4481 95.1243 42.463 95.1163 42.4757 95.1057C42.4885 95.0951 42.4985 95.0822 42.5051 95.068C42.5118 95.0538 42.5147 95.0387 42.5139 95.0239C42.513 95.0092 42.5082 94.9952 42.5 94.983L42.397 94.82C42.371 94.7816 42.3525 94.741 42.3426 94.701C42.3328 94.6609 42.3319 94.6224 42.34 94.588C42.459 94.069 42.65 93.578 42.914 93.113C43.242 92.194 43.885 91.77 44.839 91.838ZM76.818 92.996C77.448 93.038 78.08 93.039 78.715 92.996C79.224 93.076 79.732 93.154 80.242 93.231C80.336 93.246 80.636 93.251 81.139 93.248C80.636 93.252 80.336 93.247 80.242 93.233C79.732 93.155 79.224 93.076 78.715 92.996C78.08 93.039 77.448 93.039 76.818 92.996ZM111.533 93.469C111.435 93.697 111.371 93.9378 111.342 94.184C111.342 94.187 111.339 94.189 111.338 94.192L111.34 94.184C111.375 93.916 111.44 93.677 111.533 93.469ZM6.943 95.424L7.436 95.894V95.897L6.944 95.426C6.944 95.4254 6.943 95.4247 6.943 95.424ZM29.86 95.473C30.037 95.483 30.068 95.594 29.954 95.805C29.6473 96.217 29.3721 96.6516 29.131 97.105C28.8999 97.5567 28.6253 97.9848 28.311 98.383C27.7487 99.0739 27.215 99.7875 26.711 100.522C26.583 100.641 26.489 100.645 26.432 100.533C26.4165 100.5 26.4101 100.461 26.4132 100.417C26.4163 100.374 26.4289 100.328 26.45 100.283C27.19 98.675 28.246 97.105 29.618 95.573C29.6479 95.5396 29.6851 95.5132 29.727 95.4959C29.7688 95.4786 29.8143 95.4708 29.86 95.473ZM82.311 96.604L82.699 96.784C82.739 96.803 82.7731 96.8284 82.7968 96.8569C82.8205 96.8854 82.8328 96.9158 82.832 96.944C82.826 97.295 82.703 97.674 82.461 98.08C82.235 98.463 82.071 99.016 81.967 99.736H81.965L81.723 100.656C81.7119 100.696 81.691 100.732 81.6626 100.759C81.6343 100.787 81.5998 100.805 81.563 100.811L80.654 100.967C80.6119 100.974 80.5695 100.97 80.5318 100.956C80.4941 100.942 80.4626 100.918 80.441 100.887C80.241 100.598 80.213 100.281 80.359 99.937H80.361C80.4045 99.8516 80.4703 99.7796 80.5515 99.7287C80.6327 99.6778 80.7262 99.6499 80.822 99.648C80.8356 99.6477 80.8489 99.6439 80.8606 99.637C80.8723 99.6302 80.8821 99.6204 80.889 99.6087C80.8959 99.597 80.8997 99.5837 80.9001 99.5701C80.9004 99.5565 80.8973 99.5431 80.891 99.531C80.76 99.249 80.804 98.933 81.023 98.582C81.3251 98.0993 81.5401 97.5672 81.658 97.01C81.7009 96.8878 81.7798 96.7814 81.8845 96.7049C81.9891 96.6285 82.1145 96.5857 82.244 96.582L82.311 96.604ZM96.36 96.659C96.417 96.656 96.497 96.692 96.601 96.764C96.6848 96.8223 96.7703 96.8529 96.841 96.85L97.341 96.828C97.3576 96.8272 97.3742 96.8297 97.3897 96.8355C97.4051 96.8412 97.419 96.85 97.4303 96.8612C97.4416 96.8724 97.45 96.8858 97.455 96.9003C97.46 96.9148 97.4613 96.93 97.459 96.945C97.384 97.349 97.145 97.634 96.74 97.803C96.7145 97.8137 96.687 97.8191 96.6594 97.8188C96.6317 97.8185 96.6044 97.8125 96.5791 97.8013C96.5538 97.7901 96.5311 97.7738 96.5123 97.7534C96.4936 97.7331 96.4792 97.7091 96.47 97.683C96.224 97.008 96.187 96.667 96.36 96.659ZM67.447 97.512L67.512 97.543L67.533 97.559C67.527 97.553 67.518 97.551 67.512 97.545C67.49 97.535 67.469 97.522 67.447 97.512ZM96.049 97.738C96.069 97.723 96.097 97.724 96.133 97.74C96.1577 97.7499 96.1789 97.771 96.1939 97.8007C96.2089 97.8304 96.217 97.8671 96.217 97.906C96.217 98.276 96.473 98.426 96.988 98.358C97.0154 98.3546 97.0433 98.3574 97.0694 98.3663C97.0956 98.3752 97.1193 98.3899 97.1387 98.4092C97.1582 98.4286 97.1728 98.452 97.1815 98.4779C97.1903 98.5037 97.1928 98.5311 97.189 98.558C97.0241 99.6541 96.7767 100.736 96.449 101.795C96.299 102.28 96.044 102.246 95.685 101.69C95.5662 101.506 95.5248 101.283 95.57 101.07C95.622 100.824 95.684 100.467 95.756 100.002C95.656 99.3229 95.7317 98.6295 95.976 97.988C95.9932 97.9368 96.0046 97.8838 96.01 97.83C96.015 97.784 96.028 97.754 96.049 97.738ZM69.159 98.338L69.186 98.346C69.206 98.354 69.227 98.359 69.248 98.367C69.228 98.359 69.206 98.355 69.186 98.346C69.176 98.345 69.168 98.34 69.158 98.337L69.159 98.338ZM77.638 99.5C77.828 99.513 77.898 99.52 78.098 99.533L78.191 99.553C78.16 99.546 78.127 99.543 78.096 99.535C77.813 99.515 77.901 99.518 77.638 99.5ZM79.42 99.774L79.502 99.785C79.502 99.7857 79.502 99.7864 79.502 99.787C79.474 99.783 79.447 99.777 79.42 99.774ZM107.771 100.088C107.688 100.224 107.59 100.35 107.478 100.463C107.27 100.667 107.09 100.898 106.943 101.15C106.942 101.15 106.942 101.15 106.941 101.15C107.059 100.936 107.237 100.708 107.476 100.463C107.589 100.35 107.688 100.224 107.771 100.088ZM60.344 100.557C60.547 100.532 60.781 100.564 61.045 100.65C61.0612 100.655 61.076 100.664 61.0885 100.676C61.101 100.687 61.1108 100.702 61.1172 100.717C61.1237 100.733 61.1267 100.75 61.1259 100.767C61.1252 100.784 61.1208 100.801 61.113 100.816C60.6209 101.74 60.1763 102.689 59.781 103.658C59.25 104.962 58.476 106.025 57.461 106.85C57.176 107.08 57.067 107.015 57.137 106.654C57.238 106.121 57.467 105.786 57.822 105.646C57.8387 105.639 57.854 105.63 57.8669 105.618C57.8799 105.605 57.8902 105.591 57.8974 105.575C57.9046 105.559 57.9084 105.542 57.9087 105.525C57.909 105.508 57.9057 105.492 57.899 105.476L57.749 105.076C57.7165 104.996 57.7165 104.907 57.749 104.83C58.3171 103.469 59.0139 102.165 59.83 100.937C59.984 100.706 60.155 100.578 60.344 100.557ZM70.996 101.666C71.188 101.631 71.238 101.766 71.148 102.076C70.9824 102.646 70.7844 103.206 70.555 103.754C70.5 103.886 70.35 104.304 70.105 105.01C69.9578 105.435 69.7597 105.841 69.515 106.219C69.23 106.663 69.032 106.945 68.918 107.064C68.6621 107.326 68.3355 107.508 67.978 107.588C67.663 107.664 67.586 107.563 67.746 107.281C67.802 107.187 67.908 107.095 68.065 107.006C68.1018 106.985 68.1333 106.956 68.1572 106.923C68.1811 106.889 68.1967 106.851 68.203 106.812C68.3648 105.945 68.6859 105.116 69.15 104.367C69.295 103.857 69.507 103.377 69.787 102.93C69.951 102.402 70.275 102.011 70.757 101.758C70.8321 101.716 70.9119 101.685 70.996 101.666ZM90.716 102.451C89.9233 102.963 89.1092 103.44 88.276 103.883C88.1795 104.312 88.056 104.735 87.906 105.148C87.767 105.528 87.663 105.95 87.596 106.41C87.4518 107.394 87.0993 108.335 86.562 109.172C86.277 109.62 86.046 109.595 85.869 109.096C85.68 108.564 85.733 107.906 86.027 107.119C86.217 106.607 86.379 106.086 86.514 105.557C86.514 105.556 86.514 105.556 86.514 105.555C86.756 104.855 86.894 104.388 86.926 104.15C87.011 103.526 87.452 103.15 88.246 103.02C88.2781 103.015 88.3109 103.019 88.3412 103.031C88.3715 103.043 88.3984 103.063 88.4194 103.089C88.4404 103.115 88.4549 103.147 88.4614 103.18C88.468 103.214 88.4665 103.25 88.457 103.283L88.276 103.883C89.111 103.44 89.922 102.963 90.716 102.451ZM12.104 102.654C12.2695 102.631 12.4379 102.64 12.6 102.68C13.052 102.79 13.29 102.848 13.317 102.852C13.317 102.853 13.317 102.853 13.317 102.854C13.0773 102.8 12.8383 102.742 12.6 102.682C12.4378 102.642 12.2696 102.633 12.104 102.654ZM14.514 103.32C14.729 103.43 14.96 103.554 15.104 103.596C15.104 103.597 15.104 103.597 15.104 103.598C14.959 103.556 14.73 103.431 14.514 103.32ZM46.75 103.93C46.8019 103.931 46.8528 103.944 46.8986 103.968C46.9444 103.993 46.9839 104.027 47.0138 104.07C47.0437 104.112 47.0632 104.161 47.0707 104.212C47.0782 104.264 47.0735 104.316 47.057 104.365C46.8973 104.844 46.6337 105.282 46.285 105.648C45.7858 106.167 45.3858 106.773 45.105 107.436C45.0757 107.505 45.0719 107.594 45.094 107.689C45.184 108.059 44.97 108.376 44.455 108.643C44.124 108.815 43.929 108.717 43.873 108.346C43.827 108.046 43.92 107.636 44.151 107.117C44.808 105.624 45.265 104.747 45.521 104.484C45.893 104.104 46.301 103.919 46.75 103.93ZM85.527 105.396C85.4152 105.42 85.3066 105.457 85.203 105.506C85.203 105.505 85.203 105.505 85.203 105.504C85.311 105.454 85.419 105.419 85.527 105.396ZM20.893 105.576C21.163 105.702 21.434 105.821 21.693 105.971C21.693 105.972 21.693 105.972 21.693 105.973C21.433 105.823 21.163 105.702 20.893 105.576ZM78.092 107.609C78.6 107.611 78.69 107.928 78.363 108.555H78.365C78.0094 109.226 77.6061 109.87 77.158 110.482C76.968 110.742 76.748 111.134 76.5 111.658C76.2381 112.213 75.859 112.704 75.389 113.098C75.3596 113.123 75.3226 113.137 75.2849 113.137C75.2472 113.138 75.2114 113.124 75.184 113.1C74.977 112.914 74.921 112.678 75.02 112.389L77.096 108.018C77.1317 107.941 77.1813 107.874 77.2413 107.821C77.3013 107.768 77.3702 107.731 77.443 107.711C77.6542 107.65 77.8722 107.616 78.092 107.609ZM16.844 108.078C16.862 108.126 16.93 108.192 17.049 108.275C16.929 108.193 16.862 108.126 16.844 108.078ZM33.858 108.478C34.096 108.441 34.14 108.612 33.993 108.99C33.6314 109.943 33.1013 110.824 32.428 111.59C32.34 111.69 32.228 111.952 32.088 112.377C31.985 112.577 31.765 112.895 31.426 113.33C30.87 114.044 30.622 113.904 30.684 112.912C31.34 111.741 31.755 110.911 31.928 110.422C32.226 109.578 32.768 108.966 33.555 108.586C33.6505 108.536 33.7525 108.499 33.858 108.478ZM99.578 109.504C99.5698 109.534 99.5714 109.565 99.5826 109.594C99.5937 109.623 99.6139 109.648 99.64 109.664C99.585 109.624 99.562 109.571 99.578 109.504ZM27.37 110.41C27.803 110.608 28.105 110.76 28.274 110.867C28.506 111.016 28.722 111.129 28.942 111.252C28.722 111.129 28.506 111.017 28.274 110.869C27.9818 110.699 27.68 110.545 27.37 110.41ZM20.717 110.51C21.982 111.327 23.287 112.12 24.627 112.89C23.3032 112.131 21.9994 111.337 20.717 110.51ZM97.109 111.486H97.111C96.754 111.83 96.393 112.218 96.031 112.65C95.953 112.747 95.889 112.85 95.838 112.963C95.8373 112.963 95.8367 112.963 95.836 112.963C95.8874 112.851 95.9529 112.746 96.031 112.65C96.393 112.218 96.751 111.83 97.109 111.486ZM32.948 112.527C33.098 112.582 33.252 112.619 33.412 112.639C33.855 112.691 34.159 112.751 34.322 112.816C34.159 112.75 33.855 112.692 33.412 112.641C33.2535 112.621 33.0978 112.583 32.948 112.527ZM73.498 112.594C72.951 112.987 72.416 113.211 71.893 113.264C72.415 113.21 72.95 112.986 73.498 112.594ZM56.108 112.932C56.466 112.958 56.532 113.158 56.307 113.532C56.193 113.724 56.125 114.007 56.102 114.382V114.385C56.0329 114.682 55.8612 114.946 55.617 115.129C55.5462 115.179 55.4885 115.245 55.449 115.322C54.9625 116.346 54.3032 117.278 53.5 118.078C53.49 118.088 53.412 118.19 53.266 118.378C53.136 118.547 52.972 118.582 52.778 118.488C52.7278 118.463 52.6837 118.427 52.6485 118.383C52.6133 118.339 52.588 118.288 52.5741 118.233C52.5602 118.178 52.5581 118.12 52.5679 118.064C52.5777 118.008 52.5992 117.954 52.631 117.906L54.697 114.852C54.907 114.62 55.057 114.352 55.151 114.049C55.285 113.624 55.523 113.279 55.863 113.012C55.9358 112.955 56.0231 112.926 56.108 112.932ZM44.385 113.385C44.4637 113.379 44.551 113.402 44.635 113.449C44.77 113.524 44.91 113.579 45.055 113.615C44.9076 113.579 44.7657 113.524 44.633 113.451C44.5497 113.404 44.4632 113.382 44.385 113.387C44.385 113.386 44.385 113.386 44.385 113.385ZM45.506 113.665C46.444 113.841 47.386 113.99 48.332 114.115C49.2162 114.043 50.1061 114.105 50.972 114.297C51.222 114.35 51.501 114.367 51.815 114.346C51.815 114.347 51.815 114.347 51.815 114.348C51.5334 114.371 51.2499 114.354 50.973 114.298C50.107 114.106 49.217 114.046 48.333 114.118C47.3867 113.993 46.444 113.842 45.506 113.665ZM38.051 113.838C38.067 113.842 38.083 113.843 38.098 113.848C38.098 113.849 38.098 113.849 38.098 113.85L38.051 113.838ZM80.787 114.248C81.12 114.25 81.139 114.574 80.847 115.217C80.8317 115.25 80.8073 115.281 80.7752 115.308C80.7431 115.336 80.7039 115.359 80.66 115.377C80.423 115.475 80.346 115.658 80.432 115.926C80.548 116.293 80.459 116.586 80.164 116.803C80.1334 116.826 80.1106 116.858 80.0987 116.893C80.0869 116.929 80.0866 116.967 80.098 117.002C80.281 117.58 80.125 118.086 79.635 118.519C79.3257 118.776 78.9644 118.962 78.576 119.066C78.6188 118.233 78.8197 117.416 79.168 116.658C79.258 115.988 79.473 115.37 79.816 114.805C79.948 114.591 80.126 114.439 80.35 114.352C80.53 114.282 80.676 114.247 80.787 114.248ZM65.442 114.459C65.618 114.439 65.802 114.462 65.99 114.529C65.985 114.641 65.879 114.866 65.672 115.203C64.9888 116.32 64.2863 117.425 63.565 118.518C63.405 118.756 63.278 118.742 63.184 118.473C63.046 118.089 63.094 117.713 63.33 117.343C63.748 116.377 64.28 115.48 64.93 114.653H64.932C65.096 114.544 65.265 114.479 65.442 114.459ZM66.332 114.646C66.258 114.741 66.194 114.779 66.137 114.76C66.194 114.78 66.257 114.741 66.332 114.646ZM43.828 114.856C44.032 114.786 44.15 114.873 44.184 115.119C44.252 115.611 44.119 116.055 43.784 116.447C43.466 116.818 43.264 117.098 43.178 117.287C42.938 117.819 42.706 118.354 42.483 118.893C42.376 119.149 42.25 119.308 42.108 119.367C41.918 119.447 41.692 119.433 41.432 119.327C41.4003 119.314 41.3715 119.295 41.3472 119.271C41.3229 119.247 41.3035 119.219 41.2902 119.187C41.2769 119.156 41.27 119.122 41.2698 119.088C41.2696 119.054 41.2761 119.02 41.289 118.988C41.8545 117.585 42.6161 116.269 43.551 115.08C43.6211 114.981 43.7169 114.904 43.828 114.856ZM91.383 115.57H91.385C91.2202 115.747 91.0723 115.939 90.943 116.143C90.9423 116.143 90.9417 116.143 90.941 116.143C91.0703 115.939 91.2182 115.747 91.383 115.57ZM31.662 118.031C31.6991 118.076 31.7434 118.114 31.793 118.145V118.147C31.7436 118.116 31.6987 118.077 31.662 118.031ZM54.174 125.357C53.812 125.365 53.4513 125.403 53.096 125.473C53.0953 125.472 53.0947 125.472 53.094 125.471C53.454 125.401 53.814 125.364 54.174 125.357Z" fill="#F05353"/>
</svg>
