<svg width="33" height="33" viewBox="0 0 33 33" fill="none" xmlns="http://www.w3.org/2000/svg">
<path d="M10.608 30.1077C11.0024 30.1094 11.3933 30.033 11.758 29.8828C12.1227 29.7326 12.4541 29.5117 12.733 29.2328C13.0119 28.9539 13.2329 28.6226 13.3831 28.2579C13.5333 27.8932 13.6098 27.5023 13.6081 27.1079L13.6084 21.1079" stroke="#F05353" stroke-width="1.5" stroke-linecap="round" stroke-linejoin="round"/>
<path d="M21.608 30.1083C21.2136 30.11 20.8227 30.0335 20.458 29.8832C20.0933 29.733 19.7619 29.5121 19.483 29.2332C19.2041 28.9543 18.9833 28.6229 18.8331 28.2582C18.6829 27.8935 18.6065 27.5026 18.6081 27.1082L18.6084 21.1082" stroke="#F05353" stroke-width="1.5" stroke-linecap="round" stroke-linejoin="round"/>
<path d="M19.1084 21.1082L21.1084 21.1083C21.5028 21.1067 21.8937 21.1831 22.2584 21.3333C22.6231 21.4835 22.9545 21.7045 23.2334 21.9834C23.5123 22.2623 23.7332 22.5937 23.8833 22.9584C24.0335 23.3231 24.11 23.714 24.1083 24.1084L24.1082 25.1084C24.1065 25.5029 24.183 25.8937 24.3332 26.2584C24.4834 26.6232 24.7042 26.9545 24.9831 27.2335C25.262 27.5124 25.5934 27.7334 25.9581 27.8835C26.3228 28.0337 26.7137 28.1102 27.1081 28.1086" stroke="#F05353" stroke-width="1.5" stroke-linecap="round" stroke-linejoin="round"/>
<path d="M13.1084 21.1079L11.1084 21.1078C10.714 21.1062 10.3231 21.1826 9.95842 21.3327C9.59368 21.4829 9.2623 21.7038 8.98338 21.9827C8.70446 22.2616 8.48353 22.593 8.33333 22.9577C8.18313 23.3224 8.10665 23.7133 8.10828 24.1077L8.10824 25.1077C8.10987 25.5022 8.03339 25.8929 7.88319 26.2576C7.73299 26.6224 7.51206 26.9537 7.23314 27.2326C6.95422 27.5115 6.62284 27.7325 6.2581 27.8826C5.89337 28.0327 5.50252 28.1092 5.10809 28.1075" stroke="#F05353" stroke-width="1.5" stroke-linecap="round" stroke-linejoin="round"/>
<path d="M14.084 8.10794C13.4966 7.18854 12.6872 6.43181 11.7304 5.90749C10.7736 5.38315 9.70023 5.1081 8.60919 5.10768C8.12403 5.94737 7.8329 6.88499 7.75715 7.85181C7.6814 8.81863 7.82296 9.79015 8.17142 10.6952C7.48788 11.7027 7.11811 12.8901 7.10876 14.1076L7.10871 15.1076C7.10863 16.6989 7.7407 18.225 8.86586 19.3503C9.99103 20.4756 11.5171 21.1078 13.1084 21.1079L19.1084 21.1082C20.6997 21.1083 22.2258 20.4762 23.3511 19.351C24.4765 18.2258 25.1086 16.6998 25.1087 15.1085L25.1088 14.1085C25.0995 12.891 24.7299 11.7036 24.0464 10.6959C24.395 9.79095 24.5366 8.81945 24.461 7.85261C24.3853 6.88579 24.0943 5.94815 23.6092 5.1084C22.5182 5.10872 21.4448 5.38367 20.4879 5.90791C19.531 6.43215 18.7216 7.1888 18.134 8.10814L14.084 8.10794Z" stroke="#F05353" stroke-width="1.5" stroke-linecap="round" stroke-linejoin="round"/>
</svg>
