<svg width="33" height="33" viewBox="0 0 33 33" fill="none" xmlns="http://www.w3.org/2000/svg">
<path d="M16.1084 21.1034C18.8698 21.1035 21.1085 18.865 21.1087 16.1036C21.1088 13.3422 18.8703 11.1035 16.1089 11.1034C13.3475 11.1033 11.1088 13.3417 11.1087 16.1031C11.1085 18.8645 13.347 21.1033 16.1084 21.1034Z" stroke="#F05353" stroke-width="1.5" stroke-miterlimit="10"/>
<path d="M21.6092 4.60367L10.6092 4.60313C7.29552 4.60297 4.6091 7.28913 4.60894 10.6028L4.60841 21.6028C4.60825 24.9165 7.29441 27.603 10.6081 27.6031L21.6081 27.6037C24.9218 27.6038 27.6082 24.9177 27.6084 21.604L27.6089 10.604C27.6091 7.29025 24.9229 4.60383 21.6092 4.60367Z" stroke="#F05353" stroke-width="1.5" stroke-linecap="round" stroke-linejoin="round"/>
<path d="M22.6089 11.1037C23.4373 11.1038 24.1089 10.4322 24.109 9.60378C24.109 8.77535 23.4375 8.10375 22.6091 8.10371C21.7807 8.10367 21.109 8.77521 21.109 9.60364C21.1089 10.432 21.7805 11.1037 22.6089 11.1037Z" fill="#F05353"/>
</svg>
