<svg width="33" height="33" viewBox="0 0 33 33" fill="none" xmlns="http://www.w3.org/2000/svg">
<path d="M26.6093 4.61318L5.60925 4.61217C5.05697 4.61214 4.60923 5.05984 4.6092 5.61212L4.60819 26.6121C4.60816 27.1644 5.05586 27.6121 5.60814 27.6122L26.6081 27.6132C27.1604 27.6132 27.6082 27.1655 27.6082 26.6132L27.6092 5.61323C27.6092 5.06095 27.1616 4.61321 26.6093 4.61318Z" stroke="#F05353" stroke-width="1.5" stroke-linecap="round" stroke-linejoin="round"/>
<path d="M15.1088 14.1126L15.1084 22.1126" stroke="#F05353" stroke-width="1.5" stroke-linecap="round" stroke-linejoin="round"/>
<path d="M11.1088 14.1124L11.1084 22.1124" stroke="#F05353" stroke-width="1.5" stroke-linecap="round" stroke-linejoin="round"/>
<path d="M15.1086 17.6126C15.1087 16.6843 15.4774 15.7941 16.1338 15.1378C16.7903 14.4814 17.6805 14.1127 18.6088 14.1128C19.5371 14.1128 20.4273 14.4816 21.0836 15.138C21.74 15.7944 22.1087 16.6846 22.1086 17.6129L22.1084 22.1129" stroke="#F05353" stroke-width="1.5" stroke-linecap="round" stroke-linejoin="round"/>
<path d="M11.1089 11.6124C11.9373 11.6125 12.609 10.9409 12.609 10.1125C12.609 9.28408 11.9375 8.61248 11.1091 8.61244C10.2807 8.6124 9.60904 9.28394 9.609 10.1124C9.60896 10.9408 10.2805 11.6124 11.1089 11.6124Z" fill="#F05353"/>
</svg>
