<svg width="32" height="32" viewBox="0 0 32 32" fill="none" xmlns="http://www.w3.org/2000/svg">
<g filter="url(#filter0_i_26_785)">
<path d="M31.9971 22.9559C31.9937 23.059 31.9892 23.1989 31.9834 23.3758C31.9984 23.5382 31.9929 23.7076 31.9669 23.884C31.9617 24.0461 31.9364 24.2005 31.8912 24.3471C31.8667 24.4793 31.813 24.5742 31.7303 24.6317C31.5441 24.7612 31.3492 24.8463 31.1458 24.8869C30.9427 24.9129 30.7298 24.9314 30.507 24.9422C30.305 24.9388 30.0923 24.9498 29.8691 24.9754C29.6665 24.9866 29.4627 25.0347 29.2577 25.1197C29.2934 25.2677 29.3812 25.365 29.5212 25.4116C29.682 25.4439 29.8426 25.4762 30.0033 25.5084C30.1848 25.5263 30.3349 25.5731 30.4537 25.6489C30.5932 25.7103 30.6599 25.8367 30.6537 26.0283C30.6436 26.3376 30.5645 26.5942 30.4164 26.7981C30.2889 26.9875 30.1316 27.1617 29.9444 27.3206C29.7578 27.4648 29.5709 27.6163 29.3837 27.7753C29.1966 27.9342 29.0484 28.138 28.9392 28.3867C28.8094 28.6498 28.6516 28.8387 28.4659 28.9534C28.2801 29.0681 28.075 29.1604 27.8503 29.2302C27.6462 29.2856 27.4319 29.3482 27.2072 29.4181C26.9825 29.4879 26.7661 29.6168 26.5577 29.8049C26.3297 29.9778 26.145 30.0631 26.0035 30.0606C25.9429 30.0596 25.8724 30.051 25.792 30.0349C25.7116 30.0187 25.6109 30.0096 25.4896 30.0075C25.3886 30.0058 25.2866 30.0335 25.1836 30.0906C25.1014 30.1334 25.059 30.1917 25.0566 30.2653C25.0557 30.2948 25.0754 30.3099 25.1158 30.3106C25.1562 30.3113 25.1661 30.3188 25.1454 30.3332C24.8976 30.4911 24.4569 30.6751 23.8233 30.8852C23.1901 31.0806 22.4663 31.2671 21.6518 31.4447C20.8377 31.6075 19.9839 31.7475 19.0905 31.8647C18.2177 31.9675 17.3872 32.0121 16.5991 31.9984C15.2249 31.9747 13.8619 31.9215 12.5098 31.8392C11.1775 31.7719 9.8142 31.7262 8.41986 31.7021L4.38835 31.6323C4.32772 31.6313 4.23535 31.6739 4.11123 31.7602C4.00732 31.8468 3.88462 31.8889 3.74317 31.8865C3.52088 31.8826 3.22859 31.8554 2.86628 31.8049C2.52417 31.7548 2.18304 31.6752 1.84286 31.5661C1.50267 31.457 1.20363 31.3265 0.945711 31.1747C0.708487 31.0084 0.593228 30.8222 0.599934 30.6159C0.602326 30.5422 0.61435 30.4835 0.635998 30.4396C0.658123 30.3811 0.680488 30.3151 0.703093 30.2418C0.898381 29.8324 1.16104 29.5274 1.49108 29.3267C1.82159 29.1113 2.17112 28.9331 2.53966 28.792C2.92888 28.6366 3.31811 28.4812 3.70733 28.3258C4.11676 28.1707 4.47784 27.9485 4.79054 27.6591C5.12345 27.37 5.39909 26.9768 5.61747 26.4793C5.83584 25.9819 5.95868 25.3133 5.986 24.4736C6.01092 23.7074 5.96487 22.9475 5.84785 22.1936C5.75103 21.4402 5.71509 20.6803 5.74001 19.9142C5.80621 18.5002 5.89216 17.1013 5.99782 15.7174C6.1237 14.3339 6.21974 12.9351 6.28595 11.5211L6.42912 8.05203C6.44109 7.68373 6.43478 7.25609 6.41018 6.76924C6.40578 6.28266 6.31984 5.81684 6.15234 5.3717C6.00553 4.91218 5.74518 4.5244 5.37129 4.20836C5.01809 3.87794 4.49867 3.68468 3.81303 3.62858C3.46998 3.6079 3.07807 3.53478 2.63733 3.40922C2.19659 3.28367 1.77725 3.12162 1.37932 2.9231C1.00207 2.71019 0.676066 2.47605 0.401296 2.22069C0.126535 1.96533 -0.00605664 1.69033 0.00352861 1.39567C0.0116699 1.14521 0.11942 0.940691 0.32677 0.782124C0.534599 0.608828 0.781656 0.473061 1.06792 0.374829C1.35466 0.261863 1.66043 0.186079 1.98519 0.147477C2.33064 0.0944921 2.64482 0.0704477 2.92774 0.0753452C3.57439 0.0865392 4.20927 0.149124 4.83236 0.2631C5.45594 0.362343 6.10116 0.417733 6.76803 0.429277C7.59656 0.443621 8.42606 0.428499 9.25649 0.383905C10.1072 0.339667 10.948 0.287887 11.7788 0.228565C12.6103 0.154509 13.4412 0.0951867 14.2716 0.0505973C15.1223 0.00635767 15.972 -0.00841612 16.8207 0.0062759C17.528 0.0185195 18.2346 0.0528627 18.9404 0.109305C19.6467 0.151015 20.353 0.192724 21.0594 0.234434C21.1768 0.354396 21.3858 0.453832 21.6866 0.532744C21.9873 0.611657 22.3085 0.683554 22.6501 0.748435C23.0119 0.813659 23.3639 0.871351 23.706 0.921496C24.0486 0.956912 24.3104 0.990924 24.4913 1.02354C24.9739 1.10559 25.3855 1.1938 25.7261 1.28815C26.0875 1.36811 26.3871 1.48385 26.6247 1.63538C26.8831 1.77252 27.0996 1.95316 27.2743 2.17731C27.4693 2.40181 27.6418 2.69225 27.7919 3.04864C27.8107 3.09318 27.8995 3.16106 28.0583 3.25226C28.2373 3.3438 28.4365 3.4357 28.6559 3.52794C28.8753 3.62019 29.0846 3.71226 29.2838 3.80416C29.483 3.89605 29.6221 3.97217 29.701 4.0325C29.9575 4.22858 30.2106 4.52778 30.4603 4.93012C30.7308 5.31808 30.97 5.73498 31.1779 6.1808C31.3858 6.62664 31.5535 7.06441 31.6811 7.49412C31.8087 7.92382 31.8681 8.2713 31.8595 8.53649C31.8418 9.08163 31.7129 9.62483 31.4729 10.1661C31.2531 10.7077 31.0237 11.2344 30.7846 11.7462C30.6331 12.0532 30.4113 12.3442 30.1193 12.6192C29.8475 12.8946 29.5754 13.1773 29.3032 13.4674C29.0313 13.7428 28.7896 14.0261 28.5779 14.3172C28.3864 14.6087 28.2855 14.9166 28.2749 15.2407C28.2601 15.6974 28.3765 16.1564 28.6245 16.6177C28.8723 17.0789 29.1617 17.5041 29.4928 17.8931C29.6285 18.0723 29.7847 18.2446 29.9613 18.4097C30.1581 18.5753 30.3447 18.7407 30.5214 18.9059C30.7186 19.0568 30.8953 19.222 31.0512 19.4015C31.2076 19.5665 31.343 19.753 31.4576 19.9614C31.705 20.4374 31.8607 20.9339 31.9247 21.451C31.9893 21.9533 32.0134 22.4549 31.9971 22.9559ZM26.7073 9.35385C26.7126 9.19179 26.6885 8.99974 26.6351 8.77769C26.5816 8.55565 26.5181 8.33347 26.4444 8.11104C26.3713 7.8739 26.2979 7.64418 26.2242 7.42175C26.151 7.18468 26.0972 6.97734 26.0625 6.79986C26.009 6.57781 25.9238 6.39943 25.8069 6.2647C25.6905 6.1153 25.5529 5.99499 25.3941 5.9038C25.2358 5.79786 25.057 5.69895 24.8578 5.60706C24.659 5.50043 24.4608 5.37907 24.263 5.24297C23.7684 4.9101 23.2918 4.64387 22.8333 4.4443C22.3746 4.24473 21.8945 4.089 21.3926 3.97712C20.8908 3.86524 20.3574 3.78968 19.7925 3.75042C19.2281 3.69642 18.6024 3.66348 17.9154 3.65158C17.4708 3.64389 17.0058 3.64321 16.5202 3.64955C16.055 3.65623 15.6292 3.69309 15.2428 3.76011C15.1611 3.78817 15.1093 3.82413 15.0877 3.86798C15.0661 3.91183 15.0141 3.95516 14.9318 3.99796C14.8698 4.0411 14.7471 4.0832 14.5638 4.12426C14.381 4.15057 14.0975 4.16041 13.7136 4.15376C13.1275 4.14362 12.6407 4.19415 12.2529 4.30537C11.8852 4.41693 11.5868 4.58129 11.3573 4.79844C11.1484 5.0012 10.9987 5.25659 10.9077 5.56458C10.8173 5.85784 10.7558 6.19581 10.7232 6.57856C10.6871 7.06437 10.6506 7.56494 10.6136 8.08022C10.5968 8.59589 10.5498 9.11104 10.4723 9.62567C10.3954 10.1255 10.2683 10.6171 10.0907 11.1006C9.93353 11.5843 9.68574 12.0517 9.34764 12.5028C10.4725 12.7287 11.6191 12.9107 12.7873 13.0488C13.9556 13.187 15.1055 13.2659 16.2372 13.2855C17.0253 13.2991 17.8141 13.2907 18.6037 13.2601C19.4134 13.2299 20.204 13.1699 20.9752 13.0801C21.2595 13.0407 21.636 12.9662 22.1047 12.8563C22.5935 12.7469 23.0631 12.6076 23.5134 12.4385C23.984 12.2697 24.3946 12.0778 24.7453 11.8628C25.1162 11.6481 25.3257 11.4232 25.3738 11.1882C25.42 11.0121 25.5061 10.8515 25.6322 10.7062C25.7784 10.5613 25.9243 10.4238 26.0701 10.2936C26.2366 10.1491 26.3828 10.0042 26.5089 9.859C26.635 9.71378 26.701 9.54539 26.7073 9.35385ZM27.2274 24.1337C27.2399 23.7506 27.1817 23.3663 27.0526 22.9808C26.9438 22.5956 26.8553 22.2109 26.7869 21.8264C26.7378 21.4717 26.6862 21.1908 26.6324 20.9835C26.5986 20.7765 26.5236 20.5983 26.4071 20.4489C26.3113 20.2851 26.1648 20.1277 25.9675 19.9769C25.7702 19.8261 25.4835 19.6295 25.1072 19.3871C25.0166 19.0613 24.9117 18.8678 24.7924 18.8068C24.6932 18.7461 24.5831 18.7147 24.4618 18.7126C24.3608 18.7108 24.2495 18.7163 24.1277 18.7289C24.0266 18.7271 23.9256 18.7254 23.8246 18.7237L23.4203 18.0976C23.0426 17.8994 22.7039 17.7461 22.4041 17.6377C22.1245 17.5296 21.7528 17.4569 21.2891 17.4194C20.8858 17.3829 20.4836 17.317 20.0822 17.2216C19.7012 17.1266 19.2984 17.0754 18.8741 17.068C18.6922 17.0649 18.5491 17.114 18.4447 17.2154C18.3404 17.3168 18.2578 17.3669 18.1972 17.3658C18.076 17.3638 17.935 17.3466 17.7742 17.3143C17.614 17.2673 17.4435 17.2275 17.2625 17.1949C17.0821 17.1476 16.8914 17.1074 16.6902 17.0745C16.5098 17.0271 16.3387 17.002 16.1771 16.9992C15.2677 16.9835 14.3762 17.0417 13.5024 17.174C12.6493 17.2919 11.7857 17.4244 10.9115 17.5714C10.7398 17.8781 10.5671 18.2141 10.3934 18.5796C10.24 18.9455 10.0964 19.3189 9.96277 19.6999C9.82901 20.0808 9.7155 20.4622 9.62225 20.8438C9.52944 21.2107 9.47776 21.5562 9.46722 21.8804C9.4619 22.0424 9.47782 22.1754 9.51488 22.2792C9.55247 22.3683 9.60032 22.4502 9.65852 22.525C9.71681 22.5996 9.76493 22.6742 9.80296 22.7486C9.8409 22.8229 9.85824 22.9117 9.85487 23.0148C9.83574 23.6041 9.72584 24.1845 9.52529 24.7559C9.34543 25.313 9.24588 25.8862 9.22675 26.4755C9.21426 26.8585 9.27306 27.2281 9.40299 27.5841C9.533 27.9402 9.76492 28.2685 10.0988 28.5691C10.503 28.5761 10.885 28.6417 11.245 28.7659C11.6054 28.8753 11.9876 28.9335 12.3918 28.9405C12.6748 28.9454 12.9492 28.8986 13.2152 28.8C13.5015 28.7018 13.7255 28.654 13.8872 28.6568C14.0489 28.6596 14.1684 28.7133 14.2458 28.8178C14.3436 28.9227 14.5035 28.977 14.7258 28.9809L14.8471 28.983C14.9101 28.9104 15.0232 28.8534 15.1862 28.812C15.3499 28.7558 15.5329 28.7222 15.7355 28.7109C15.9587 28.6853 16.1916 28.6746 16.4341 28.6788C16.6771 28.6682 16.9097 28.6649 17.132 28.6688C17.5563 28.6761 17.8795 28.6891 18.1012 28.7077C18.3433 28.7266 18.6159 28.7387 18.9189 28.7439C19.772 28.626 20.5856 28.4779 21.3597 28.2997C22.0117 28.1488 22.6751 27.954 23.3501 27.715C24.0454 27.4765 24.5905 27.1911 24.9855 26.8588C25.1923 26.715 25.4206 26.5347 25.6703 26.3179C25.9402 26.1014 26.18 25.8772 26.3898 25.6449C26.6202 25.3983 26.8102 25.151 26.9598 24.9029C27.1301 24.6406 27.2193 24.3841 27.2274 24.1337Z" fill="url(#paint0_linear_26_785)"/>
</g>
<defs>
<filter id="filter0_i_26_785" x="0.00305176" y="0.000732422" width="31.999" height="36" filterUnits="userSpaceOnUse" color-interpolation-filters="sRGB">
<feFlood flood-opacity="0" result="BackgroundImageFix"/>
<feBlend mode="normal" in="SourceGraphic" in2="BackgroundImageFix" result="shape"/>
<feColorMatrix in="SourceAlpha" type="matrix" values="0 0 0 0 0 0 0 0 0 0 0 0 0 0 0 0 0 0 127 0" result="hardAlpha"/>
<feMorphology radius="16" operator="erode" in="SourceAlpha" result="effect1_innerShadow_26_785"/>
<feOffset dy="4"/>
<feGaussianBlur stdDeviation="8"/>
<feComposite in2="hardAlpha" operator="arithmetic" k2="-1" k3="1"/>
<feColorMatrix type="matrix" values="0 0 0 0 0 0 0 0 0 0 0 0 0 0 0 0 0 0 0.8 0"/>
<feBlend mode="normal" in2="shape" result="effect1_innerShadow_26_785"/>
</filter>
<linearGradient id="paint0_linear_26_785" x1="16.0031" y1="0.000772816" x2="16.0016" y2="32.0008" gradientUnits="userSpaceOnUse">
<stop stop-color="#F05353"/>
</linearGradient>
</defs>
</svg>
